<?xml version="1.0" encoding="UTF-8" standalone="no"?>
<!-- Created with Inkscape (http://www.inkscape.org/) -->

<svg
   xmlns:dc="http://purl.org/dc/elements/1.1/"
   xmlns:cc="http://creativecommons.org/ns#"
   xmlns:rdf="http://www.w3.org/1999/02/22-rdf-syntax-ns#"
   xmlns:svg="http://www.w3.org/2000/svg"
   xmlns="http://www.w3.org/2000/svg"
   xmlns:sodipodi="http://sodipodi.sourceforge.net/DTD/sodipodi-0.dtd"
   xmlns:inkscape="http://www.inkscape.org/namespaces/inkscape"
   width="64"
   height="64"
   id="svg2"
   version="1.1"
   inkscape:version="0.91 r13725"
   sodipodi:docname="partition_list.svg">
  <defs
     id="defs4" />
  <sodipodi:namedview
     id="base"
     pagecolor="#ffffff"
     bordercolor="#666666"
     borderopacity="1.0"
     inkscape:pageopacity="0.0"
     inkscape:pageshadow="2"
     inkscape:zoom="9.7448153"
     inkscape:cx="54.772264"
     inkscape:cy="37.822783"
     inkscape:document-units="px"
     inkscape:current-layer="layer1"
     showgrid="true"
     inkscape:window-width="1920"
     inkscape:window-height="1122"
     inkscape:window-x="1317"
     inkscape:window-y="91"
     inkscape:window-maximized="0"
     objecttolerance="10000"
     guidetolerance="10000"
     showguides="true"
     inkscape:guide-bbox="true">
    <inkscape:grid
       type="xygrid"
       id="grid3004"
       empspacing="5"
       visible="true"
       enabled="true"
       snapvisiblegridlinesonly="true" />
  </sodipodi:namedview>
  <metadata
     id="metadata7">
    <rdf:RDF>
      <cc:Work
         rdf:about="">
        <dc:format>image/svg+xml</dc:format>
        <dc:type
           rdf:resource="http://purl.org/dc/dcmitype/StillImage" />
        <dc:title></dc:title>
      </cc:Work>
    </rdf:RDF>
  </metadata>
  <g
     inkscape:label="Layer 1"
     inkscape:groupmode="layer"
     id="layer1"
     transform="translate(0,-988.36218)">
    <circle
       id="path4714-4-5"
       cx="-11.677414"
       cy="1030.6501"
       r="7.5298166"
       transform="scale(-1,1)" />
    <circle
       id="path4714-4-5-1"
       cx="-11.677872"
       cy="1009.7422"
       r="7.5298166"
       transform="scale(-1,1)" />
    <rect
       style="fill:none;stroke:#000000;stroke-width:0.86272508;stroke-opacity:1"
       id="rect4735-2"
       width="21.371416"
       height="20.895983"
       x="-22.216415"
       y="-1041.3158"
       transform="scale(-1,-1)" />
    <rect
       style="fill:none;stroke:#000000;stroke-width:0.86272508;stroke-opacity:1"
       id="rect4735-2-4"
       width="21.371416"
       height="20.895983"
       x="-22.216873"
       y="-1020.4078"
       transform="scale(-1,-1)" />
    <circle
       id="path4714-4-50"
       cx="-52.60524"
       cy="1041.1724"
       r="7.5298166"
       transform="scale(-1,1)" />
    <circle
       id="path4714-4-5-1-4"
       cx="-52.605698"
       cy="999.3692"
       r="7.5298166"
       transform="scale(-1,1)" />
    <rect
       style="fill:none;stroke:#000000;stroke-width:0.86272508;stroke-opacity:1"
       id="rect4735-6"
       width="21.371416"
       height="20.895983"
       x="-63.144241"
       y="-1051.8378"
       transform="scale(-1,-1)" />
    <rect
       style="fill:none;stroke:#000000;stroke-width:0.86272508;stroke-opacity:1"
       id="rect4735-2-4-7"
       width="21.371416"
       height="20.895983"
       x="-63.144699"
       y="-1010.0348"
       transform="scale(-1,-1)" />
    <path
       inkscape:connector-curvature="0"
       style="font-style:normal;font-weight:normal;font-size:13.4879818px;line-height:125%;font-family:sans-serif;letter-spacing:0px;word-spacing:0px;fill:#000000;fill-opacity:1;stroke:none;stroke-width:1px;stroke-linecap:butt;stroke-linejoin:miter;stroke-opacity:1"
       d="m 31.806641,999.07798 c 0.413225,1.20582 0.725432,2.05452 0.935547,2.54502 0.210114,0.4802 0.580991,1.2104 1.113281,2.1914 l -8.855469,0 0,1.5488 8.855469,0 c -0.721394,1.1036 -1.411954,2.6825 -2.070313,4.7363 l 0.808594,0 c 0.903493,-1.4714 1.680676,-2.5856 2.332031,-3.3418 0.651355,-0.7663 1.3242,-1.3943 2.017578,-1.8847 l 0,-0.6895 c -0.602328,-0.3781 -1.242504,-0.9504 -1.921875,-1.7168 -0.67937,-0.7766 -1.484507,-1.907 -2.416015,-3.38872 l -0.798828,0 z"
       id="text3751" />
    <path
       inkscape:connector-curvature="0"
       style="font-style:normal;font-weight:normal;font-size:13.4879818px;line-height:125%;font-family:sans-serif;letter-spacing:0px;word-spacing:0px;fill:#000000;fill-opacity:1;stroke:none;stroke-width:1px;stroke-linecap:butt;stroke-linejoin:miter;stroke-opacity:1"
       d="m 31.756396,1030.7722 c 0.413225,1.2058 0.725432,2.0545 0.935547,2.545 0.210114,0.4802 0.580991,1.2104 1.113281,2.1914 l -8.855469,0 0,1.5488 8.855469,0 c -0.721394,1.1036 -1.411954,2.6825 -2.070313,4.7363 l 0.808594,0 c 0.903493,-1.4714 1.680676,-2.5856 2.332031,-3.3418 0.651355,-0.7663 1.3242,-1.3943 2.017578,-1.8847 l 0,-0.6895 c -0.602328,-0.3781 -1.242504,-0.9504 -1.921875,-1.7168 -0.67937,-0.7766 -1.484507,-1.907 -2.416015,-3.3887 l -0.798828,0 z"
       id="text3751-8" />
  </g>
</svg>
