<?xml version="1.0" encoding="UTF-8" standalone="no"?>
<svg
   xmlns:dc="http://purl.org/dc/elements/1.1/"
   xmlns:cc="http://creativecommons.org/ns#"
   xmlns:rdf="http://www.w3.org/1999/02/22-rdf-syntax-ns#"
   xmlns:svg="http://www.w3.org/2000/svg"
   xmlns="http://www.w3.org/2000/svg"
   xmlns:sodipodi="http://sodipodi.sourceforge.net/DTD/sodipodi-0.dtd"
   xmlns:inkscape="http://www.inkscape.org/namespaces/inkscape"
   aria-hidden="true"
   focusable="false"
   data-prefix="fas"
   data-icon="play"
   class="svg-inline--fa fa-play fa-w-14"
   role="img"
   viewBox="0 0 448 512"
   version="1.1"
   id="svg4"
   sodipodi:docname="play-outline.svg"
   inkscape:version="0.92.3 (2405546, 2018-03-11)">
  <metadata
     id="metadata10">
    <rdf:RDF>
      <cc:Work
         rdf:about="">
        <dc:format>image/svg+xml</dc:format>
        <dc:type
           rdf:resource="http://purl.org/dc/dcmitype/StillImage" />
        <dc:title></dc:title>
      </cc:Work>
    </rdf:RDF>
  </metadata>
  <defs
     id="defs8" />
  <sodipodi:namedview
     pagecolor="#ffffff"
     bordercolor="#666666"
     borderopacity="1"
     objecttolerance="10"
     gridtolerance="10"
     guidetolerance="10"
     inkscape:pageopacity="0"
     inkscape:pageshadow="2"
     inkscape:window-width="1920"
     inkscape:window-height="1043"
     id="namedview6"
     showgrid="false"
     inkscape:zoom="1.3037281"
     inkscape:cx="184.23043"
     inkscape:cy="407.86862"
     inkscape:window-x="0"
     inkscape:window-y="555"
     inkscape:window-maximized="1"
     inkscape:current-layer="svg4" />
  <path
     style="fill:currentColor;stroke-width:0.80000001"
     d="M 84.015625 51.244141 C 64.508125 50.797891 44.798828 64.449297 44.798828 89.529297 L 44.798828 422.4082 C 44.798828 452.4082 77.358751 470.48922 102.71875 455.44922 L 384.31836 289.04883 C 409.43836 274.24883 409.51836 237.76875 384.31836 222.96875 L 102.71875 56.488281 C 96.99875 53.108281 90.518125 51.392891 84.015625 51.244141 z M 112.10352 114.55859 C 116.59577 114.66136 121.07373 115.84462 125.02539 118.17969 L 319.56836 233.19336 C 336.97779 243.41795 336.92252 268.61916 319.56836 278.84375 L 125.02539 393.80273 C 107.50542 404.19312 85.009766 391.70207 85.009766 370.97656 L 85.009766 141.00586 C 85.009766 123.67933 98.626748 114.2503 112.10352 114.55859 z "
     id="path2" />
</svg>
