<?xml version="1.0" encoding="UTF-8" standalone="no"?>
<svg
   xmlns:dc="http://purl.org/dc/elements/1.1/"
   xmlns:cc="http://creativecommons.org/ns#"
   xmlns:rdf="http://www.w3.org/1999/02/22-rdf-syntax-ns#"
   xmlns:svg="http://www.w3.org/2000/svg"
   xmlns="http://www.w3.org/2000/svg"
   xmlns:sodipodi="http://sodipodi.sourceforge.net/DTD/sodipodi-0.dtd"
   xmlns:inkscape="http://www.inkscape.org/namespaces/inkscape"
   viewBox="0 0 448 448"
   version="1.1"
   id="svg4"
   sodipodi:docname="plus-thin.svg"
   width="448"
   height="448"
   inkscape:version="0.92.3 (2405546, 2018-03-11)">
  <metadata
     id="metadata10">
    <rdf:RDF>
      <cc:Work
         rdf:about="">
        <dc:format>image/svg+xml</dc:format>
        <dc:type
           rdf:resource="http://purl.org/dc/dcmitype/StillImage" />
        <dc:title></dc:title>
      </cc:Work>
    </rdf:RDF>
  </metadata>
  <defs
     id="defs8" />
  <sodipodi:namedview
     pagecolor="#ffffff"
     bordercolor="#666666"
     borderopacity="1"
     objecttolerance="10"
     gridtolerance="10"
     guidetolerance="10"
     inkscape:pageopacity="0"
     inkscape:pageshadow="2"
     inkscape:window-width="1920"
     inkscape:window-height="1043"
     id="namedview6"
     showgrid="true"
     inkscape:zoom="1.3037281"
     inkscape:cx="354.71571"
     inkscape:cy="197.78666"
     inkscape:window-x="0"
     inkscape:window-y="555"
     inkscape:window-maximized="1"
     inkscape:current-layer="svg4"
     scale-x="448"
     fit-margin-top="0"
     fit-margin-left="0"
     fit-margin-right="0"
     fit-margin-bottom="0">
    <inkscape:grid
       type="xygrid"
       id="grid836" />
  </sodipodi:namedview>
  <path
     d="M 390.6,189.32 H 258.68 V 57.4 c 0,-12.766575 -10.35343,-23.8 -23.12,-23.8 h -23.12 c -12.76658,0 -23.12,11.033425 -23.12,23.8 V 189.32 H 57.4 c -12.766575,0 -23.8,10.35342 -23.8,23.12 v 23.12 c 0,12.76657 11.033425,23.12 23.8,23.12 H 189.32 V 390.6 c 0,12.76657 10.35342,23.8 23.12,23.8 h 23.12 c 12.76657,0 23.12,-11.03343 23.12,-23.8 V 258.68 H 390.6 c 12.76657,0 23.8,-10.35343 23.8,-23.12 v -23.12 c 0,-12.76657 -11.03343,-23.12 -23.8,-23.12 z"
     id="path2"
     inkscape:connector-curvature="0"
     style="stroke-width:0.72250003"
     sodipodi:nodetypes="scsssscsssscsssscssss" />
</svg>
