<?xml version="1.0" encoding="UTF-8" standalone="no"?>
<svg
   xmlns:dc="http://purl.org/dc/elements/1.1/"
   xmlns:cc="http://creativecommons.org/ns#"
   xmlns:rdf="http://www.w3.org/1999/02/22-rdf-syntax-ns#"
   xmlns:svg="http://www.w3.org/2000/svg"
   xmlns="http://www.w3.org/2000/svg"
   xmlns:sodipodi="http://sodipodi.sourceforge.net/DTD/sodipodi-0.dtd"
   xmlns:inkscape="http://www.inkscape.org/namespaces/inkscape"
   aria-hidden="true"
   focusable="false"
   data-prefix="fas"
   data-icon="stop"
   class="svg-inline--fa fa-stop fa-w-14"
   role="img"
   viewBox="0 0 448 512"
   version="1.1"
   id="svg4"
   sodipodi:docname="stop-outline.svg"
   inkscape:version="0.92.3 (2405546, 2018-03-11)">
  <metadata
     id="metadata10">
    <rdf:RDF>
      <cc:Work
         rdf:about="">
        <dc:format>image/svg+xml</dc:format>
        <dc:type
           rdf:resource="http://purl.org/dc/dcmitype/StillImage" />
        <dc:title></dc:title>
      </cc:Work>
    </rdf:RDF>
  </metadata>
  <defs
     id="defs8" />
  <sodipodi:namedview
     pagecolor="#ffffff"
     bordercolor="#666666"
     borderopacity="1"
     objecttolerance="10"
     gridtolerance="10"
     guidetolerance="10"
     inkscape:pageopacity="0"
     inkscape:pageshadow="2"
     inkscape:window-width="1920"
     inkscape:window-height="1043"
     id="namedview6"
     showgrid="false"
     inkscape:zoom="0.4609375"
     inkscape:cx="1187.2542"
     inkscape:cy="234.30508"
     inkscape:window-x="0"
     inkscape:window-y="555"
     inkscape:window-maximized="1"
     inkscape:current-layer="svg4" />
  <path
     style="fill:currentColor;stroke-width:0.80000001"
     d="M 83.199219 76.800781 C 61.999219 76.800781 44.800781 93.999219 44.800781 115.19922 L 44.800781 396.80078 C 44.800781 418.00078 61.999219 435.19922 83.199219 435.19922 L 364.80078 435.19922 C 386.00078 435.19922 403.19922 418.00078 403.19922 396.80078 L 403.19922 115.19922 C 403.19922 93.999219 386.00078 76.800781 364.80078 76.800781 L 83.199219 76.800781 z M 121.67383 125.76562 L 326.32617 125.76562 C 341.73327 125.76562 354.23438 138.26673 354.23438 153.67383 L 354.23438 358.32617 C 354.23438 373.73327 341.73327 386.23438 326.32617 386.23438 L 121.67383 386.23438 C 106.26673 386.23438 93.765625 373.73327 93.765625 358.32617 L 93.765625 153.67383 C 93.765625 138.26673 106.26673 125.76562 121.67383 125.76562 z "
     id="path2" />
</svg>
