<?xml version="1.0" encoding="UTF-8" standalone="no"?>
<svg
   xmlns:dc="http://purl.org/dc/elements/1.1/"
   xmlns:cc="http://creativecommons.org/ns#"
   xmlns:rdf="http://www.w3.org/1999/02/22-rdf-syntax-ns#"
   xmlns:svg="http://www.w3.org/2000/svg"
   xmlns="http://www.w3.org/2000/svg"
   xmlns:sodipodi="http://sodipodi.sourceforge.net/DTD/sodipodi-0.dtd"
   xmlns:inkscape="http://www.inkscape.org/namespaces/inkscape"
   viewBox="0 0 512 512"
   version="1.1"
   id="svg4"
   sodipodi:docname="sync-alt-small.svg"
   inkscape:version="0.92.3 (2405546, 2018-03-11)">
  <metadata
     id="metadata10">
    <rdf:RDF>
      <cc:Work
         rdf:about="">
        <dc:format>image/svg+xml</dc:format>
        <dc:type
           rdf:resource="http://purl.org/dc/dcmitype/StillImage" />
        <dc:title></dc:title>
      </cc:Work>
    </rdf:RDF>
  </metadata>
  <defs
     id="defs8" />
  <sodipodi:namedview
     pagecolor="#ffffff"
     bordercolor="#666666"
     borderopacity="1"
     objecttolerance="10"
     gridtolerance="10"
     guidetolerance="10"
     inkscape:pageopacity="0"
     inkscape:pageshadow="2"
     inkscape:window-width="1920"
     inkscape:window-height="1043"
     id="namedview6"
     showgrid="false"
     inkscape:zoom="0.4609375"
     inkscape:cx="32.542373"
     inkscape:cy="256"
     inkscape:window-x="0"
     inkscape:window-y="555"
     inkscape:window-maximized="1"
     inkscape:current-layer="svg4" />
  <path
     d="m 353.512,151.688 c -26.5727,-24.8812 -61.0572,-38.5203 -97.6412,-38.488 -65.8393,0.0578 -122.6788,45.2013 -138.37235,107.8225 -1.1424,4.55855 -5.2037,7.7775 -9.90335,7.7775 H 58.88755 c -6.3733,0 -11.2149,-5.78595 -10.03595,-12.0496 C 67.24305,119.0854 152.99105,45.2 256,45.2 c 56.4808,0 107.77235,22.2156 145.61775,58.38225 L 431.9755,73.2245 C 444.82665,60.37335 466.8,69.47515 466.8,87.64985 V 201.6 c 0,11.26675 -9.13325,20.4 -20.4,20.4 H 332.44985 c -18.1747,0 -27.2765,-21.97335 -14.42535,-34.82535 z M 65.6,290 h 113.95015 c 18.1747,0 27.2765,21.97335 14.42535,34.82535 l -35.4875,35.4875 c 26.5727,24.88205 61.05975,38.52115 97.6446,38.488 65.8053,-0.0595 122.66775,-45.1724 138.36895,-107.82165 1.1424,-4.55855 5.2037,-7.7775 9.90335,-7.7775 h 48.7084 c 6.3733,0 11.2149,5.78595 10.03595,12.0496 C 444.75695,392.9146 359.00895,466.8 256,466.8 199.5192,466.8 148.22765,444.5844 110.38225,408.41775 L 80.0245,438.7755 C 67.17335,451.62665 45.2,442.52485 45.2,424.35015 V 310.4 c 0,-11.26675 9.13325,-20.4 20.4,-20.4 z"
     id="path2"
     inkscape:connector-curvature="0"
     style="stroke-width:0.85000002" />
</svg>
