<?xml version="1.0" encoding="utf-8"?>
<!-- Generator: Adobe Illustrator 16.0.0, SVG Export Plug-In . SVG Version: 6.00 Build 0)  -->
<!DOCTYPE svg PUBLIC "-//W3C//DTD SVG 1.1//EN" "http://www.w3.org/Graphics/SVG/1.1/DTD/svg11.dtd">
<svg version="1.1" id="Layer_1" xmlns="http://www.w3.org/2000/svg" xmlns:xlink="http://www.w3.org/1999/xlink" x="0px" y="0px"
	 width="96px" height="96px" viewBox="0 0 96 96" enable-background="new 0 0 96 96" xml:space="preserve">
<path d="M94.198,79.933l-0.188-0.415l-3.184-7.08l-1.95,5.136l-10.98-4.012c0,0,0-28.628,0-29.985s-0.854-2.143-1.649-2.445
	s-25.243-9.604-25.243-9.604V15.499h5.486l-5.493-5.496L50.67,9.678l-2.277-2.276l-2.61,2.609l-5.487,5.488h5.487v16.049L21.027,41
	c-1.277,0.43-2.122,1.157-2.122,2.441l-0.013,29.871L7.122,77.75l-1.948-5.129l-3.18,7.071l-0.192,0.426l-1.325,2.945l2.936,1.319
	l0.449,0.203l7.06,3.175l-1.946-5.13l11.704-4.41l26.546,10.122c0.933,0.399,1.495,0.274,2.33,0.004l26.23-10.002l11.241,4.109
	l-1.944,5.123l7.101-3.191l0.41-0.186l2.933-1.318L94.198,79.933z M45.78,82.14L24.174,73.9V47.453l21.605,8.219V82.14z
	 M48.394,50.993l-19.389-7.392l19.448-7.422l19.381,7.402L48.394,50.993z M72.614,73.9l-21.551,8.219V55.632l21.551-8.221V73.9z"/>
</svg>
