<?xml version="1.0" encoding="UTF-8" standalone="no"?>
<svg
   xmlns:dc="http://purl.org/dc/elements/1.1/"
   xmlns:cc="http://creativecommons.org/ns#"
   xmlns:rdf="http://www.w3.org/1999/02/22-rdf-syntax-ns#"
   xmlns:svg="http://www.w3.org/2000/svg"
   xmlns="http://www.w3.org/2000/svg"
   xmlns:sodipodi="http://sodipodi.sourceforge.net/DTD/sodipodi-0.dtd"
   xmlns:inkscape="http://www.inkscape.org/namespaces/inkscape"
   version="1.1"
   id="Capa_1"
   x="0px"
   y="0px"
   width="16"
   height="16"
   viewBox="0 0 15.999999 15.999999"
   xml:space="preserve"
   inkscape:version="0.91 r13725"
   sodipodi:docname="add-square-button.svg"><metadata
     id="metadata15"><rdf:RDF><cc:Work
         rdf:about=""><dc:format>image/svg+xml</dc:format><dc:type
           rdf:resource="http://purl.org/dc/dcmitype/StillImage" /><dc:title></dc:title></cc:Work></rdf:RDF></metadata><defs
     id="defs13" /><sodipodi:namedview
     pagecolor="#ffffff"
     bordercolor="#666666"
     borderopacity="1"
     objecttolerance="10"
     gridtolerance="10"
     guidetolerance="10"
     inkscape:pageopacity="0"
     inkscape:pageshadow="2"
     inkscape:window-width="1110"
     inkscape:window-height="863"
     id="namedview11"
     showgrid="false"
     showborder="true"
     borderlayer="false"
     inkscape:showpageshadow="true"
     inkscape:zoom="1.8610657"
     inkscape:cx="164.45551"
     inkscape:cy="164.45551"
     inkscape:window-x="1857"
     inkscape:window-y="113"
     inkscape:window-maximized="0"
     inkscape:current-layer="Capa_1" /><g
     id="g3"
     transform="matrix(0.0334437,0,0,0.0334437,2.4999986,2.4999986)"><g
       id="g5"><path
         d="M 310.199,18.71 C 297.735,6.242 282.65,0.007 264.951,0.007 l -200.997,0 C 46.251,0.007 31.164,6.242 18.701,18.711 6.235,31.177 0,46.261 0,63.96 l 0,200.991 c 0,17.515 6.232,32.552 18.701,45.11 12.467,12.566 27.553,18.843 45.253,18.843 l 201.004,0 c 17.699,0 32.777,-6.276 45.248,-18.843 12.47,-12.559 18.705,-27.596 18.705,-45.11 l 0,-200.991 c 0,-17.699 -6.245,-32.783 -18.712,-45.25 z m -17.837,246.25 c 0,7.614 -2.673,14.089 -8.001,19.414 -5.324,5.332 -11.799,7.994 -19.41,7.994 l -200.997,0 c -7.614,0 -14.082,-2.662 -19.414,-7.994 -5.33,-5.325 -7.992,-11.8 -7.992,-19.414 l 0,-200.995 c 0,-7.613 2.662,-14.086 7.992,-19.414 5.327,-5.327 11.8,-7.994 19.414,-7.994 l 201.004,0 c 7.61,0 14.086,2.663 19.41,7.994 5.325,5.328 7.994,11.801 7.994,19.414 l 0,200.995 z"
         id="path7"
         inkscape:connector-curvature="0" /><path
         d="m 246.683,146.189 -63.953,0 0,-63.953 c 0,-2.667 -0.855,-4.854 -2.573,-6.567 -1.704,-1.714 -3.895,-2.568 -6.564,-2.568 l -18.271,0 c -2.667,0 -4.854,0.854 -6.567,2.568 -1.714,1.713 -2.568,3.903 -2.568,6.567 l 0,63.954 -63.954,0 c -2.664,0 -4.857,0.855 -6.567,2.568 -1.711,1.713 -2.568,3.903 -2.568,6.567 l 0,18.271 c 0,2.666 0.854,4.855 2.568,6.563 1.712,1.708 3.903,2.57 6.567,2.57 l 63.954,0 0,63.953 c 0,2.666 0.854,4.855 2.568,6.563 1.713,1.711 3.903,2.566 6.567,2.566 l 18.271,0 c 2.67,0 4.86,-0.855 6.564,-2.566 1.718,-1.708 2.573,-3.897 2.573,-6.563 l 0,-63.952 63.953,0 c 2.662,0 4.853,-0.862 6.563,-2.57 1.712,-1.708 2.563,-3.897 2.563,-6.563 l 0,-18.271 c 0,-2.664 -0.852,-4.857 -2.563,-6.567 -1.71,-1.711 -3.901,-2.57 -6.563,-2.57 z"
         id="path9"
         inkscape:connector-curvature="0" /></g></g></svg>