<?xml version="1.0" encoding="UTF-8" standalone="no"?>
<!-- Generator: Adobe Illustrator 16.0.0, SVG Export Plug-In . SVG Version: 6.00 Build 0)  -->

<svg
   xmlns:dc="http://purl.org/dc/elements/1.1/"
   xmlns:cc="http://creativecommons.org/ns#"
   xmlns:rdf="http://www.w3.org/1999/02/22-rdf-syntax-ns#"
   xmlns:svg="http://www.w3.org/2000/svg"
   xmlns="http://www.w3.org/2000/svg"
   xmlns:sodipodi="http://sodipodi.sourceforge.net/DTD/sodipodi-0.dtd"
   xmlns:inkscape="http://www.inkscape.org/namespaces/inkscape"
   version="1.1"
   id="Capa_1"
   x="0px"
   y="0px"
   width="16"
   height="16"
   viewBox="0 0 16 16"
   xml:space="preserve"
   inkscape:version="0.91 r13725"
   sodipodi:docname="cross-mark-on-a-black-circle-background.svg"><metadata
     id="metadata41"><rdf:RDF><cc:Work
         rdf:about=""><dc:format>image/svg+xml</dc:format><dc:type
           rdf:resource="http://purl.org/dc/dcmitype/StillImage" /><dc:title></dc:title></cc:Work></rdf:RDF></metadata><defs
     id="defs39" /><sodipodi:namedview
     pagecolor="#ffffff"
     bordercolor="#666666"
     borderopacity="1"
     objecttolerance="10"
     gridtolerance="10"
     guidetolerance="10"
     inkscape:pageopacity="0"
     inkscape:pageshadow="2"
     inkscape:window-width="1000"
     inkscape:window-height="830"
     id="namedview37"
     showgrid="false"
     inkscape:zoom="18.633718"
     inkscape:cx="4.1352779"
     inkscape:cy="5.4146247"
     inkscape:window-x="1794"
     inkscape:window-y="132"
     inkscape:window-maximized="0"
     inkscape:current-layer="Capa_1" /><g
     id="g3"
     transform="matrix(0.02508369,0,0,0.02508369,2.4999996,2.4999745)"
     style="stroke:#505050;stroke-opacity:1;stroke-width:0.99666357;stroke-miterlimit:4;stroke-dasharray:none;fill:#505050;fill-opacity:1"><path
       d="M 409.133,109.203 C 389.525,75.611 362.928,49.014 329.335,29.407 295.736,9.801 259.058,0 219.273,0 179.492,0 142.803,9.801 109.21,29.407 75.615,49.011 49.018,75.608 29.41,109.203 9.801,142.8 0,179.489 0,219.267 c 0,39.78 9.804,76.463 29.407,110.062 19.607,33.592 46.204,60.189 79.799,79.798 33.597,19.605 70.283,29.407 110.063,29.407 39.78,0 76.47,-9.802 110.065,-29.407 33.593,-19.602 60.189,-46.206 79.795,-79.798 19.603,-33.596 29.403,-70.284 29.403,-110.062 0.001,-39.782 -9.8,-76.472 -29.399,-110.064 z m -86.512,161.736 c 3.617,3.613 5.428,7.905 5.428,12.854 0,5.133 -1.811,9.514 -5.428,13.127 l -25.693,25.701 c -3.614,3.613 -7.994,5.42 -13.135,5.42 -4.948,0 -9.236,-1.807 -12.847,-5.42 l -51.676,-51.682 -51.678,51.682 c -3.616,3.613 -7.898,5.42 -12.847,5.42 -5.14,0 -9.517,-1.807 -13.134,-5.42 L 115.914,296.92 c -3.616,-3.613 -5.424,-7.994 -5.424,-13.127 0,-4.948 1.809,-9.24 5.424,-12.854 l 51.678,-51.673 -51.678,-51.678 c -3.616,-3.612 -5.424,-7.898 -5.424,-12.847 0,-5.14 1.809,-9.517 5.424,-13.134 l 25.697,-25.693 c 3.617,-3.616 7.994,-5.424 13.134,-5.424 4.949,0 9.231,1.809 12.847,5.424 l 51.678,51.674 51.676,-51.674 c 3.61,-3.616 7.898,-5.424 12.847,-5.424 5.141,0 9.521,1.809 13.135,5.424 l 25.693,25.693 c 3.617,3.617 5.428,7.994 5.428,13.134 0,4.948 -1.811,9.235 -5.428,12.847 l -51.675,51.678 51.675,51.673 z"
       id="path5"
       inkscape:connector-curvature="0"
       style="stroke:#505050;stroke-opacity:1;stroke-width:0.99666357;stroke-miterlimit:4;stroke-dasharray:none;fill:#505050;fill-opacity:1" /></g><g
     id="g7"
     transform="translate(0,-422.53299)" /><g
     id="g9"
     transform="translate(0,-422.53299)" /><g
     id="g11"
     transform="translate(0,-422.53299)" /><g
     id="g13"
     transform="translate(0,-422.53299)" /><g
     id="g15"
     transform="translate(0,-422.53299)" /><g
     id="g17"
     transform="translate(0,-422.53299)" /><g
     id="g19"
     transform="translate(0,-422.53299)" /><g
     id="g21"
     transform="translate(0,-422.53299)" /><g
     id="g23"
     transform="translate(0,-422.53299)" /><g
     id="g25"
     transform="translate(0,-422.53299)" /><g
     id="g27"
     transform="translate(0,-422.53299)" /><g
     id="g29"
     transform="translate(0,-422.53299)" /><g
     id="g31"
     transform="translate(0,-422.53299)" /><g
     id="g33"
     transform="translate(0,-422.53299)" /><g
     id="g35"
     transform="translate(0,-422.53299)" /></svg>