<?xml version="1.0" encoding="UTF-8" standalone="no"?>
<!-- Created with Inkscape (http://www.inkscape.org/) -->

<svg
   xmlns:dc="http://purl.org/dc/elements/1.1/"
   xmlns:cc="http://creativecommons.org/ns#"
   xmlns:rdf="http://www.w3.org/1999/02/22-rdf-syntax-ns#"
   xmlns:svg="http://www.w3.org/2000/svg"
   xmlns="http://www.w3.org/2000/svg"
   xmlns:sodipodi="http://sodipodi.sourceforge.net/DTD/sodipodi-0.dtd"
   xmlns:inkscape="http://www.inkscape.org/namespaces/inkscape"
   width="30mm"
   height="15mm"
   viewBox="0 0 30 15"
   version="1.1"
   id="svg8"
   inkscape:version="0.92.4 (5da689c313, 2019-01-14)"
   sodipodi:docname="custom_plot.svg">
  <defs
     id="defs2">
    <inkscape:path-effect
       effect="bspline"
       id="path-effect839"
       is_visible="true"
       weight="33.333333"
       steps="2"
       helper_size="0"
       apply_no_weight="true"
       apply_with_weight="true"
       only_selected="false" />
  </defs>
  <sodipodi:namedview
     id="base"
     pagecolor="#ffffff"
     bordercolor="#666666"
     borderopacity="1.0"
     inkscape:pageopacity="0.0"
     inkscape:pageshadow="2"
     inkscape:zoom="5.6"
     inkscape:cx="40.9906"
     inkscape:cy="13.44474"
     inkscape:document-units="mm"
     inkscape:current-layer="layer1"
     showgrid="false"
     inkscape:window-width="2560"
     inkscape:window-height="1387"
     inkscape:window-x="0"
     inkscape:window-y="25"
     inkscape:window-maximized="1" />
  <metadata
     id="metadata5">
    <rdf:RDF>
      <cc:Work
         rdf:about="">
        <dc:format>image/svg+xml</dc:format>
        <dc:type
           rdf:resource="http://purl.org/dc/dcmitype/StillImage" />
        <dc:title />
      </cc:Work>
    </rdf:RDF>
  </metadata>
  <g
     inkscape:label="Layer 1"
     inkscape:groupmode="layer"
     id="layer1"
     transform="translate(0,-282)">
    <path
       style="fill:none;stroke:#000000;stroke-width:0.13187256px;stroke-linecap:butt;stroke-linejoin:miter;stroke-opacity:1"
       d="m 1.3701637,283.06213 c 0,0 -0.011812,6.11849 -0.011812,6.11849 0,0 13.4023383,0.0236 13.4023383,0.0236"
       id="path837"
       inkscape:connector-curvature="0"
       inkscape:path-effect="#path-effect839"
       inkscape:original-d="m 1.3701637,283.06213 -0.011812,6.11849 13.4023383,0.0236"
       sodipodi:nodetypes="ccc"
       transform="matrix(2.0049809,0,0,2.0077324,-1.2986253,-285.31752)" />
    <path
       id="path4631"
       d="m 19.618996,291.17968 -1.902726,-1.90273 c -0.375345,-0.37535 -0.935926,-0.44847 -1.387641,-0.22586 l -1.732114,-1.73212 v -1.00904 l -2.079836,-1.55988 -1.039919,1.03993 1.559878,2.07983 h 1.009046 l 1.732114,1.73212 c -0.220983,0.45171 -0.149489,1.01229 0.225857,1.38763 l 1.902726,1.90274 c 0.237231,0.23722 0.620701,0.23722 0.856308,0 l 0.856307,-0.85632 c 0.235608,-0.23723 0.235608,-0.6207 0,-0.8563 z m -2.752533,-2.77367 c 0.459839,0 0.892054,0.17874 1.217029,0.50371 l 0.315226,0.31523 c 0.256729,-0.11211 0.50046,-0.2681 0.711693,-0.47934 0.602828,-0.60283 0.807562,-1.45101 0.615827,-2.22119 -0.03575,-0.14624 -0.219358,-0.19662 -0.326599,-0.0894 l -1.208905,1.2089 -1.103289,-0.1836 -0.18361,-1.1033 1.208904,-1.2089 c 0.107242,-0.10724 0.05525,-0.29085 -0.09262,-0.32823 -0.77019,-0.19011 -1.618373,0.0146 -2.219576,0.61584 -0.463088,0.46308 -0.680822,1.07402 -0.669448,1.68336 l 1.334021,1.33402 c 0.131614,-0.0309 0.268104,-0.0471 0.401344,-0.0471 z m -1.688243,1.33239 -0.921303,-0.92129 -2.476305,2.47793 c -0.406219,0.40622 -0.406219,1.06429 0,1.47051 0.406218,0.40622 1.064291,0.40622 1.47051,0 l 2.008342,-2.00834 c -0.123491,-0.32335 -0.160863,-0.67595 -0.08124,-1.01881 z m -2.661541,2.68105 c -0.214483,0 -0.389969,-0.17548 -0.389969,-0.38997 0,-0.21611 0.173861,-0.38997 0.389969,-0.38997 0.216109,0 0.389969,0.17386 0.389969,0.38997 0,0.21449 -0.17386,0.38997 -0.389969,0.38997 z"
       inkscape:connector-curvature="0"
       style="fill:#414141;stroke-width:0.26458332;fill-opacity:1" />
  </g>
</svg>
