<?xml version="1.0" encoding="UTF-8" standalone="no"?>
<svg
   xmlns:dc="http://purl.org/dc/elements/1.1/"
   xmlns:cc="http://creativecommons.org/ns#"
   xmlns:rdf="http://www.w3.org/1999/02/22-rdf-syntax-ns#"
   xmlns:svg="http://www.w3.org/2000/svg"
   xmlns="http://www.w3.org/2000/svg"
   xmlns:sodipodi="http://sodipodi.sourceforge.net/DTD/sodipodi-0.dtd"
   xmlns:inkscape="http://www.inkscape.org/namespaces/inkscape"
   version="1.1"
   id="Capa_1"
   x="0px"
   y="0px"
   width="64"
   height="64"
   viewBox="0 0 64.000001 64.000001"
   xml:space="preserve"
   inkscape:version="0.91 r13725"
   sodipodi:docname="decrease-size-option.svg"><metadata
     id="metadata15"><rdf:RDF><cc:Work
         rdf:about=""><dc:format>image/svg+xml</dc:format><dc:type
           rdf:resource="http://purl.org/dc/dcmitype/StillImage" /><dc:title /></cc:Work></rdf:RDF></metadata><defs
     id="defs13" /><sodipodi:namedview
     pagecolor="#ffffff"
     bordercolor="#666666"
     borderopacity="1"
     objecttolerance="10"
     gridtolerance="10"
     guidetolerance="10"
     inkscape:pageopacity="0"
     inkscape:pageshadow="2"
     inkscape:window-width="702"
     inkscape:window-height="480"
     id="namedview11"
     showgrid="false"
     inkscape:zoom="2.8085372"
     inkscape:cx="26.439569"
     inkscape:cy="24.31295"
     inkscape:window-x="1695"
     inkscape:window-y="263"
     inkscape:window-maximized="0"
     inkscape:current-layer="Capa_1" /><path
     inkscape:connector-curvature="0"
     id="path4141"
     d="m 55.060001,4.8576976 c -0.238674,-0.238549 -0.513345,-0.357949 -0.823634,-0.357949 -0.310415,0 -0.585085,0.119275 -0.823634,0.357949 L 41.524532,16.745899 36.368259,11.588998 c -0.453645,-0.452766 -0.990192,-0.679902 -1.611273,-0.679902 -0.621081,0 -1.158255,0.227136 -1.611775,0.679902 -0.453644,0.454147 -0.680279,0.991447 -0.680279,1.612151 l 0,16.042117 c 0,0.620579 0.226635,1.157502 0.680279,1.611272 0.453896,0.453143 0.991071,0.680279 1.611775,0.680279 l 16.041991,0 c 0.620704,0 1.157628,-0.227136 1.611272,-0.680279 0.453394,-0.453644 0.680279,-0.990568 0.680279,-1.611272 0,-0.620705 -0.226885,-1.158005 -0.680279,-1.612151 L 47.253976,22.475845 59.142177,10.586891 C 59.380726,10.348217 59.5,10.074425 59.5,9.7636326 c 0,-0.310791 -0.119525,-0.584457 -0.357823,-0.82401 l -4.082176,-4.081925 z" /><path
     inkscape:connector-curvature="0"
     id="path4143"
     d="m 30.855164,33.145963 c -0.453268,-0.453644 -0.990568,-0.680279 -1.611272,-0.680279 l -16.042117,0 c -0.620579,0 -1.157252,0.226635 -1.611273,0.680279 -0.453268,0.453394 -0.679902,0.990569 -0.679902,1.611273 0,0.620704 0.226634,1.158004 0.679902,1.611273 l 5.155521,5.156274 -11.8880748,11.8882 c -0.238424,0.239051 -0.357949,0.513345 -0.357949,0.823635 0,0.310289 0.119525,0.585085 0.357949,0.823634 l 4.082677,4.082175 c 0.238549,0.238675 0.512467,0.357824 0.823133,0.357824 0.3106648,0 0.5845828,-0.119149 0.8231318,-0.357824 l 11.889079,-11.8882 5.15527,5.155897 c 0.454021,0.453519 0.991446,0.68078 1.612151,0.68078 0.620704,0 1.157502,-0.227261 1.611273,-0.68078 0.453268,-0.453269 0.679902,-0.990569 0.679902,-1.611273 l 0,-16.041991 c 3.77e-4,-0.621206 -0.224878,-1.157377 -0.679401,-1.610897 z" /></svg>