<?xml version="1.0" encoding="UTF-8" standalone="no"?>
<svg
   xmlns:dc="http://purl.org/dc/elements/1.1/"
   xmlns:cc="http://creativecommons.org/ns#"
   xmlns:rdf="http://www.w3.org/1999/02/22-rdf-syntax-ns#"
   xmlns:svg="http://www.w3.org/2000/svg"
   xmlns="http://www.w3.org/2000/svg"
   xmlns:sodipodi="http://sodipodi.sourceforge.net/DTD/sodipodi-0.dtd"
   xmlns:inkscape="http://www.inkscape.org/namespaces/inkscape"
   version="1.1"
   id="Capa_1"
   x="0px"
   y="0px"
   width="16"
   height="16"
   viewBox="0 0 16 16"
   xml:space="preserve"
   inkscape:version="0.91 r13725"
   sodipodi:docname="edit-trash-symbolic.svg"><metadata
     id="metadata19"><rdf:RDF><cc:Work
         rdf:about=""><dc:format>image/svg+xml</dc:format><dc:type
           rdf:resource="http://purl.org/dc/dcmitype/StillImage" /><dc:title></dc:title></cc:Work></rdf:RDF></metadata><defs
     id="defs17" /><sodipodi:namedview
     pagecolor="#ffffff"
     bordercolor="#666666"
     borderopacity="1"
     objecttolerance="10"
     gridtolerance="10"
     guidetolerance="10"
     inkscape:pageopacity="0"
     inkscape:pageshadow="2"
     inkscape:window-width="1080"
     inkscape:window-height="811"
     id="namedview15"
     showgrid="false"
     fit-margin-top="0"
     fit-margin-left="0"
     fit-margin-right="0"
     fit-margin-bottom="0"
     inkscape:zoom="1.3327939"
     inkscape:cx="219.2645"
     inkscape:cy="217.26449"
     inkscape:window-x="1349"
     inkscape:window-y="51"
     inkscape:window-maximized="0"
     inkscape:current-layer="Capa_1" /><g
     id="g3"
     transform="matrix(0.02736393,0,0,0.02736393,2.0000889,2.0000753)"><g
       id="g5"><path
         d="m 417.689,75.654 c -1.711,-1.709 -3.901,-2.568 -6.563,-2.568 l -88.224,0 L 302.917,25.41 C 300.063,18.366 294.923,12.37 287.504,7.421 280.078,2.473 272.556,0 264.945,0 l -91.363,0 c -7.611,0 -15.131,2.473 -22.554,7.421 -7.424,4.949 -12.563,10.944 -15.419,17.989 l -19.985,47.676 -88.22,0 c -2.667,0 -4.853,0.859 -6.567,2.568 -1.709,1.713 -2.568,3.903 -2.568,6.567 l 0,18.274 c 0,2.664 0.855,4.854 2.568,6.564 1.714,1.712 3.904,2.568 6.567,2.568 l 27.406,0 0,271.8 c 0,15.803 4.473,29.266 13.418,40.398 8.947,11.139 19.701,16.703 32.264,16.703 l 237.542,0 c 12.566,0 23.319,-5.756 32.265,-17.268 8.945,-11.52 13.415,-25.174 13.415,-40.971 l 0,-270.662 27.411,0 c 2.662,0 4.853,-0.856 6.563,-2.568 1.708,-1.709 2.57,-3.9 2.57,-6.564 l 0,-18.274 c 0.002,-2.664 -0.861,-4.854 -2.569,-6.567 z M 169.301,39.678 c 1.331,-1.712 2.95,-2.762 4.853,-3.14 l 90.504,0 c 1.903,0.381 3.525,1.43 4.854,3.14 l 13.709,33.404 -127.91,0 13.99,-33.404 z m 177.872,340.613 c 0,4.186 -0.664,8.042 -1.999,11.561 -1.334,3.518 -2.717,6.088 -4.141,7.706 -1.431,1.622 -2.423,2.427 -2.998,2.427 l -237.542,0 c -0.571,0 -1.565,-0.805 -2.996,-2.427 -1.429,-1.618 -2.81,-4.188 -4.143,-7.706 -1.331,-3.519 -1.997,-7.379 -1.997,-11.561 l 0,-270.664 255.815,0 0,270.664 z"
         id="path7"
         inkscape:connector-curvature="0" /><path
         d="m 137.04,347.172 18.271,0 c 2.667,0 4.858,-0.855 6.567,-2.567 1.709,-1.718 2.568,-3.901 2.568,-6.57 l 0,-164.454 c 0,-2.663 -0.859,-4.853 -2.568,-6.567 -1.714,-1.709 -3.899,-2.565 -6.567,-2.565 l -18.271,0 c -2.667,0 -4.854,0.855 -6.567,2.565 -1.711,1.714 -2.568,3.904 -2.568,6.567 l 0,164.454 c 0,2.669 0.854,4.853 2.568,6.57 1.713,1.711 3.9,2.567 6.567,2.567 z"
         id="path9"
         inkscape:connector-curvature="0" /><path
         d="m 210.129,347.172 18.271,0 c 2.666,0 4.856,-0.855 6.564,-2.567 1.718,-1.718 2.569,-3.901 2.569,-6.57 l 0,-164.454 c 0,-2.663 -0.852,-4.853 -2.569,-6.567 -1.708,-1.709 -3.898,-2.565 -6.564,-2.565 l -18.271,0 c -2.664,0 -4.854,0.855 -6.567,2.565 -1.714,1.714 -2.568,3.904 -2.568,6.567 l 0,164.454 c 0,2.669 0.854,4.853 2.568,6.57 1.712,1.711 3.903,2.567 6.567,2.567 z"
         id="path11"
         inkscape:connector-curvature="0" /><path
         d="m 283.22,347.172 18.268,0 c 2.669,0 4.859,-0.855 6.57,-2.567 1.711,-1.718 2.562,-3.901 2.562,-6.57 l 0,-164.454 c 0,-2.663 -0.852,-4.853 -2.562,-6.567 -1.711,-1.709 -3.901,-2.565 -6.57,-2.565 l -18.268,0 c -2.67,0 -4.853,0.855 -6.571,2.565 -1.711,1.714 -2.566,3.904 -2.566,6.567 l 0,164.454 c 0,2.669 0.855,4.853 2.566,6.57 1.718,1.711 3.901,2.567 6.571,2.567 z"
         id="path13"
         inkscape:connector-curvature="0" /></g></g></svg>