<?xml version="1.0" encoding="iso-8859-1"?>
<!-- Generator: Adobe Illustrator 16.0.0, SVG Export Plug-In . SVG Version: 6.00 Build 0)  -->
<!DOCTYPE svg PUBLIC "-//W3C//DTD SVG 1.1//EN" "http://www.w3.org/Graphics/SVG/1.1/DTD/svg11.dtd">
<svg version="1.1" id="Layer_1" xmlns="http://www.w3.org/2000/svg" xmlns:xlink="http://www.w3.org/1999/xlink" x="0px" y="0px"
	 width="31.826px" height="31.148px" viewBox="0 0 31.826 31.148" style="enable-background:new 0 0 31.826 31.148;"
	 xml:space="preserve">
<g>
	<polygon points="31.826,29.175 28.676,27.201 28.676,28.538 2.612,28.538 2.612,3.149 3.949,3.149 1.975,0 0,3.149 1.336,3.149 
		1.336,29.813 28.676,29.813 28.676,31.148 	"/>
	<path d="M4.554,21.976l5.316-6.964c0.458,0.328,1.013,0.524,1.618,0.524c0.747,0,1.423-0.298,1.925-0.779l3.62,3.689
		c-0.316,0.451-0.504,1-0.504,1.591c0,1.54,1.252,2.792,2.791,2.792s2.792-1.252,2.792-2.792c0-0.842-0.384-1.589-0.975-2.101
		l5.187-9.027c0.367,0.176,0.771,0.282,1.203,0.282c1.539,0,2.791-1.251,2.791-2.791c0-1.538-1.252-2.79-2.791-2.79
		c-1.54,0-2.791,1.252-2.791,2.79c0,0.877,0.413,1.653,1.05,2.165l-5.178,9.01c-0.388-0.201-0.821-0.328-1.288-0.328
		c-0.717,0-1.364,0.278-1.859,0.725l-3.637-3.707c0.284-0.438,0.454-0.959,0.454-1.52c0-1.538-1.252-2.79-2.79-2.79
		c-1.539,0-2.792,1.252-2.792,2.79c0,0.705,0.271,1.341,0.703,1.833l-5.354,7.01L4.554,21.976z M27.527,4.886
		c0.835,0,1.515,0.68,1.515,1.515c0,0.836-0.68,1.516-1.515,1.516c-0.836,0-1.516-0.68-1.516-1.516
		C26.012,5.565,26.691,4.886,27.527,4.886z M19.32,18.522c0.837,0,1.516,0.68,1.516,1.515c0,0.837-0.679,1.515-1.516,1.515
		c-0.836,0-1.516-0.678-1.516-1.515C17.805,19.202,18.484,18.522,19.32,18.522z M11.488,11.229c0.835,0,1.514,0.681,1.514,1.516
		s-0.679,1.516-1.514,1.516c-0.836,0-1.516-0.681-1.516-1.516S10.652,11.229,11.488,11.229z"/>
</g>
<g>
</g>
<g>
</g>
<g>
</g>
<g>
</g>
<g>
</g>
<g>
</g>
<g>
</g>
<g>
</g>
<g>
</g>
<g>
</g>
<g>
</g>
<g>
</g>
<g>
</g>
<g>
</g>
<g>
</g>
</svg>
