<?xml version="1.0" encoding="iso-8859-1"?>
<!-- Generator: Adobe Illustrator 16.0.0, SVG Export Plug-In . SVG Version: 6.00 Build 0)  -->
<!DOCTYPE svg PUBLIC "-//W3C//DTD SVG 1.1//EN" "http://www.w3.org/Graphics/SVG/1.1/DTD/svg11.dtd">
<svg version="1.1" id="Layer_1" xmlns="http://www.w3.org/2000/svg" xmlns:xlink="http://www.w3.org/1999/xlink" x="0px" y="0px"
	 width="36px" height="36px" viewBox="0 0 36 36" style="enable-background:new 0 0 36 36;" xml:space="preserve">
<path style="fill:#010101;" d="M23.345,13.19c0.125-1.385,0.279-3.922-0.201-4.361l-2.479-2.264
	c-0.529-0.483-1.287-0.546-1.882-0.222l-1.759-1.605c-0.332-0.304-0.85-0.282-1.154,0.052c-0.304,0.333-0.279,0.85,0.053,1.154
	l1.688,1.541l-1.738,1.905L14.185,7.85c-0.334-0.304-0.85-0.281-1.154,0.052c-0.305,0.333-0.281,0.85,0.053,1.154l1.768,1.614
	c-0.246,0.614-0.107,1.341,0.41,1.813l2.479,2.264c0.463,0.422,2.935-0.054,4.407-0.386c3.276,2.134,6.271,4.548,6.106,8.03
	c-0.115,2.225-0.789,3.894-1.896,4.7c-0.858,0.624-2.006,0.749-3.435,0.366c-0.943-0.218-2.121-1.067-3.261-1.889
	c-1.887-1.36-3.836-2.766-5.871-2.402c-0.969,0.204-1.811,0.901-2.372,1.963c-0.724,1.368-0.868,3.118-0.359,4.354
	c0.13,0.315,0.435,0.506,0.756,0.506c0.104,0,0.209-0.02,0.311-0.062c0.417-0.172,0.616-0.649,0.444-1.066
	c-0.324-0.786-0.201-2.035,0.293-2.968c0.191-0.362,0.61-0.99,1.239-1.123c1.329-0.235,2.994,0.963,4.604,2.124
	c1.329,0.958,2.584,1.864,3.82,2.148c1.902,0.511,3.515,0.299,4.79-0.629c1.516-1.102,2.427-3.21,2.567-5.94
	C30.096,18.023,26.24,15.084,23.345,13.19z M18.738,10.465l-0.221-0.105l-0.105,0.221c0,0-0.039,0.08-0.095,0.199l-0.487,1.035
	l0.782-0.011l-0.006,0.639L17.77,12.41l-0.061-0.013c-0.083-0.064-0.305-0.269-0.442-0.395c-0.154-0.142-0.248-0.228-0.311-0.282
	c0.127-0.273,0.357-0.757,0.512-1.085l0.094-0.199c0.052-0.109,0.086-0.182,0.086-0.182l0.102-0.221l-0.275-0.129
	c0.309-0.116,0.731-0.274,0.951-0.357l0.351,0.936C18.751,10.472,18.738,10.465,18.738,10.465z M18.5,8.976l0.506-0.666l0.053-0.048
	c0.105-0.032,0.396-0.096,0.578-0.136c0.201-0.044,0.324-0.072,0.405-0.093c0.065,0.116,0.155,0.271,0.249,0.436
	c0.17,0.296,0.356,0.621,0.457,0.798l0.219,0.384l0.266-0.152c-0.08,0.318-0.192,0.756-0.251,0.984l-0.969-0.249
	c0.023-0.013,0.038-0.021,0.038-0.021l0.213-0.122l-0.8-1.397l-0.442,0.652L18.5,8.976z M21.79,12.256
	c-0.063,0.2-0.101,0.323-0.122,0.403h-1.863v0.305c-0.236-0.229-0.561-0.544-0.729-0.708l0.697-0.716v0.289h1.607l-0.351-0.718
	l0.58-0.268l0.326,0.772l0.019,0.088C21.927,11.818,21.842,12.086,21.79,12.256z"/>
</svg>
