<?xml version="1.0" encoding="UTF-8" standalone="no"?>
<svg
   xmlns:dc="http://purl.org/dc/elements/1.1/"
   xmlns:cc="http://creativecommons.org/ns#"
   xmlns:rdf="http://www.w3.org/1999/02/22-rdf-syntax-ns#"
   xmlns:svg="http://www.w3.org/2000/svg"
   xmlns="http://www.w3.org/2000/svg"
   xmlns:sodipodi="http://sodipodi.sourceforge.net/DTD/sodipodi-0.dtd"
   xmlns:inkscape="http://www.inkscape.org/namespaces/inkscape"
   aria-hidden="true"
   focusable="false"
   data-prefix="fas"
   data-icon="magic"
   class="svg-inline--fa fa-magic fa-w-16"
   role="img"
   viewBox="0 0 512 512"
   version="1.1"
   id="svg856"
   sodipodi:docname="new-from-template.svg"
   inkscape:version="0.92.4 (5da689c313, 2019-01-14)">
  <metadata
     id="metadata862">
    <rdf:RDF>
      <cc:Work
         rdf:about="">
        <dc:format>image/svg+xml</dc:format>
        <dc:type
           rdf:resource="http://purl.org/dc/dcmitype/StillImage" />
        <dc:title></dc:title>
      </cc:Work>
    </rdf:RDF>
  </metadata>
  <defs
     id="defs860" />
  <sodipodi:namedview
     pagecolor="#ffffff"
     bordercolor="#666666"
     borderopacity="1"
     objecttolerance="10"
     gridtolerance="10"
     guidetolerance="10"
     inkscape:pageopacity="0"
     inkscape:pageshadow="2"
     inkscape:window-width="1495"
     inkscape:window-height="1085"
     id="namedview858"
     showgrid="false"
     inkscape:zoom="0.4609375"
     inkscape:cx="136.92624"
     inkscape:cy="143.89774"
     inkscape:window-x="543"
     inkscape:window-y="171"
     inkscape:window-maximized="0"
     inkscape:current-layer="svg856" />
  <path
     d="m 342.18415,282.80863 -8,-16 -16,-8.00001 16,-7.99999 8,-16 8,16 16,7.99999 -16,8.00001 z m 72,32 -13.33,-26.665 -26.67,-13.33501 26.67,-13.335 13.33,-26.66499 13.33,26.66499 26.67,13.335 -26.67,13.33501 z m -176,64 13.33,26.66499 26.67,13.335 -26.67,13.335 -13.33,26.66501 -13.33,-26.66501 -26.67,-13.335 26.67,-13.335 z m -35.31,-96.885 42.425,-42.425 c 3.12,-3.13 7.215,-4.69 11.31,-4.69 4.095,0 8.19,1.56 11.315,4.69 l 181.57,181.56999 c 6.25,6.25 6.25,16.38 0,22.62501 l -42.425,42.425 c -3.125,3.12499 -7.22,4.68499 -11.31,4.68499 -4.095,0 -8.19,-1.56 -11.315,-4.68499 l -181.57,-181.57501 c -6.25,-6.23999 -6.25,-16.375 0,-22.61999 z m 71.585,54.615 25.455,-25.455 -43.3,-43.30001 -25.45499,25.455 z"
     id="path854"
     inkscape:connector-curvature="0"
     style="fill:currentColor;stroke-width:1" />
  <path
     style="fill:currentColor"
     d="m 104.40625,-0.05078125 c -26.5,0.1 -48,21.60156225 -48,48.10156225 V 464.05078 c 0,26.5 21.5,48 48,48 h 232.46289 c 11.31371,-11.31371 11.31371,-36.68629 0,-48 H 104.40625 V 48.050781 h 160 V 152.05078 c 0,13.3 10.7,24 24,24 h 104 v 42.82154 c 11.31371,11.31371 36.68629,11.31371 48,0 v -86.9231 c 0,-12.7 -5.09961,-25 -14.09961,-34.000001 L 342.40625,14.050781 c -9,-8.9999998 -21.20039,-14.10156225 -33.90039,-14.10156225 z m 208,52.00000025 76.09961,76.101561 h -76.09961 z"
     id="path5721"
     inkscape:connector-curvature="0"
     sodipodi:nodetypes="cssscccccsscccsccsccccc" />
</svg>
