<?xml version="1.0" encoding="UTF-8" standalone="no"?>
<!-- Created with Inkscape (http://www.inkscape.org/) -->

<svg
   xmlns:dc="http://purl.org/dc/elements/1.1/"
   xmlns:cc="http://creativecommons.org/ns#"
   xmlns:rdf="http://www.w3.org/1999/02/22-rdf-syntax-ns#"
   xmlns:svg="http://www.w3.org/2000/svg"
   xmlns="http://www.w3.org/2000/svg"
   xmlns:sodipodi="http://sodipodi.sourceforge.net/DTD/sodipodi-0.dtd"
   xmlns:inkscape="http://www.inkscape.org/namespaces/inkscape"
   width="512"
   height="512"
   id="svg2"
   version="1.1"
   inkscape:version="0.91 r13725"
   sodipodi:docname="label.svg">
  <defs
     id="defs4" />
  <sodipodi:namedview
     id="base"
     pagecolor="#ffffff"
     bordercolor="#666666"
     borderopacity="1.0"
     inkscape:pageopacity="0.0"
     inkscape:pageshadow="2"
     inkscape:zoom="2.1217014"
     inkscape:cx="123.78924"
     inkscape:cy="231.60051"
     inkscape:document-units="px"
     inkscape:current-layer="text3901"
     showgrid="true"
     inkscape:showpageshadow="false"
     borderlayer="false"
     inkscape:window-width="2505"
     inkscape:window-height="1395"
     inkscape:window-x="1280"
     inkscape:window-y="1"
     inkscape:window-maximized="1">
    <inkscape:grid
       type="xygrid"
       id="grid2985"
       empspacing="1"
       visible="true"
       enabled="true"
       snapvisiblegridlinesonly="true"
       dotted="true" />
  </sodipodi:namedview>
  <metadata
     id="metadata7">
    <rdf:RDF>
      <cc:Work
         rdf:about="">
        <dc:format>image/svg+xml</dc:format>
        <dc:type
           rdf:resource="http://purl.org/dc/dcmitype/StillImage" />
        <dc:title></dc:title>
      </cc:Work>
    </rdf:RDF>
  </metadata>
  <g
     inkscape:label="Layer 1"
     inkscape:groupmode="layer"
     id="layer1"
     transform="translate(0,-540.3622)">
    <g
       style="font-style:normal;font-weight:normal;font-size:40px;line-height:0%;font-family:Sans;letter-spacing:0px;word-spacing:0px;fill:#000000;fill-opacity:1;stroke:none"
       id="text3901">
      <g
         style="font-style:normal;font-weight:normal;font-size:342.09353638px;line-height:125%;font-family:sans-serif;letter-spacing:0px;word-spacing:0px;fill:#000000;fill-opacity:1;stroke:none;stroke-width:1px;stroke-linecap:butt;stroke-linejoin:miter;stroke-opacity:1"
         id="text4141">
        <path
           d="m 212.06904,873.19961 -100.55679,0 -15.868601,45.4343 -64.643652,0 92.371933,-249.38752 76.67038,0 92.37194,249.38752 -64.64365,0 -15.70156,-45.4343 z m -84.52116,-46.26948 68.31848,0 -34.07572,-99.22049 -34.24276,99.22049 z"
           style="font-style:normal;font-variant:normal;font-weight:bold;font-stretch:normal;font-family:sans-serif;-inkscape-font-specification:'sans-serif Bold'"
           id="path4150" />
        <path
           d="m 477.65925,811.89672 -20.87974,106.73719 -30.73496,0 5.67928,-28.39643 q -13.53006,16.70378 -30.902,25.05567 -17.2049,8.18486 -38.41871,8.18486 -23.88641,0 -39.25389,-14.53229 -15.20045,-14.69934 -15.20045,-37.58352 0,-32.73942 26.05791,-51.78174 26.22494,-19.04232 72.16035,-19.04232 l 42.76169,0 1.67038,-8.18485 q 0.33408,-1.3363 0.50112,-2.83964 0.16703,-1.67038 0.16703,-5.01114 0,-14.86637 -12.19376,-23.05122 -12.02673,-8.3519 -33.90868,-8.3519 -15.03341,0 -30.90201,3.84187 -15.70156,3.84187 -32.40534,11.52562 l 5.34521,-28.39644 q 17.37194,-6.51448 33.90868,-9.6882 16.70379,-3.34075 32.23831,-3.34075 33.0735,0 50.2784,14.36525 Q 481,755.772 481,783.16621 q 0,5.51225 -0.83519,13.02895 -0.83519,7.34967 -2.50556,15.70156 z m -33.24054,12.69488 -30.73496,0 q -37.75056,0 -55.95769,10.18931 -18.04009,10.02227 -18.04009,31.23608 0,14.69933 9.18709,23.05122 9.35412,8.35189 25.72383,8.35189 25.05568,0 43.76392,-17.87305 18.70824,-18.04009 24.7216,-48.1069 l 1.3363,-6.84855 z"
           style="font-style:italic;font-variant:normal;font-weight:normal;font-stretch:normal;font-family:sans-serif;-inkscape-font-specification:'sans-serif Italic'"
           id="path4152" />
      </g>
    </g>
  </g>
</svg>
