<?xml version="1.0" encoding="UTF-8" standalone="no"?>
<!-- Generator: Adobe Illustrator 16.0.4, SVG Export Plug-In . SVG Version: 6.00 Build 0)  -->

<svg
   xmlns:dc="http://purl.org/dc/elements/1.1/"
   xmlns:cc="http://creativecommons.org/ns#"
   xmlns:rdf="http://www.w3.org/1999/02/22-rdf-syntax-ns#"
   xmlns:svg="http://www.w3.org/2000/svg"
   xmlns="http://www.w3.org/2000/svg"
   xmlns:sodipodi="http://sodipodi.sourceforge.net/DTD/sodipodi-0.dtd"
   xmlns:inkscape="http://www.inkscape.org/namespaces/inkscape"
   version="1.1"
   id="Capa_1"
   x="0px"
   y="0px"
   width="512px"
   height="512px"
   viewBox="0 0 512 512"
   enable-background="new 0 0 512 512"
   xml:space="preserve"
   sodipodi:docname="labels.svg"
   inkscape:version="0.92.3 (3ce5693, 2018-03-11)"><metadata
   id="metadata9"><rdf:RDF><cc:Work
       rdf:about=""><dc:format>image/svg+xml</dc:format><dc:type
         rdf:resource="http://purl.org/dc/dcmitype/StillImage" /><dc:title></dc:title></cc:Work></rdf:RDF></metadata><defs
   id="defs7" /><sodipodi:namedview
   pagecolor="#ffffff"
   bordercolor="#666666"
   borderopacity="1"
   objecttolerance="10"
   gridtolerance="10"
   guidetolerance="10"
   inkscape:pageopacity="0"
   inkscape:pageshadow="2"
   inkscape:window-width="1920"
   inkscape:window-height="1015"
   id="namedview5"
   showgrid="false"
   inkscape:zoom="1.18"
   inkscape:cx="256"
   inkscape:cy="256"
   inkscape:window-x="0"
   inkscape:window-y="0"
   inkscape:window-maximized="1"
   inkscape:current-layer="Capa_1" />

<path
   d="m 218.4072,25.029582 h -64.38271 c -11.80415,0 -28.29016,6.828682 -36.63647,15.174994 L 17.657554,139.93505 c -8.3463126,8.34631 -8.3463126,22.00455 0,30.35087 l 76.954813,76.95392 c 8.346313,8.34676 22.004113,8.34676 30.350423,0 l 99.73046,-99.73002 c 8.34632,-8.34675 15.175,-24.83322 15.175,-36.63649 V 46.490633 c 0,-11.803704 -9.65779,-21.461051 -21.46105,-21.461051 z m -28.51686,71.397013 c -11.82959,0 -21.41911,-9.589507 -21.41911,-21.419102 0,-11.829591 9.58952,-21.419106 21.41911,-21.419106 11.82959,0 21.4191,9.589515 21.4191,21.419106 0,11.829595 -9.58951,21.419102 -21.4191,21.419102 z"
   id="path2-3"
   inkscape:connector-curvature="0"
   style="fill:#000000;stroke:#808080;stroke-width:0.44623128" /><path
   d="m 344.46329,145.6228 h -64.3827 c -11.80415,0 -28.29017,6.82868 -36.63648,15.17499 l -99.73046,99.73047 c -8.34631,8.34631 -8.34631,22.00456 0,30.35087 l 76.95481,76.95392 c 8.34631,8.34677 22.00411,8.34677 30.35042,0 l 99.73047,-99.73002 c 8.34631,-8.34675 15.17499,-24.83321 15.17499,-36.63648 v -64.3827 c 0,-11.8037 -9.65778,-21.46105 -21.46105,-21.46105 z m -28.51686,71.39701 c -11.82959,0 -21.4191,-9.58951 -21.4191,-21.4191 0,-11.82959 9.58951,-21.4191 21.4191,-21.4191 11.82959,0 21.41911,9.58951 21.41911,21.4191 0,11.82959 -9.58952,21.4191 -21.41911,21.4191 z"
   id="path2-3-6"
   inkscape:connector-curvature="0"
   style="fill:#000000;stroke:#808080;stroke-width:0.44623128" /><path
   d="m 472.44162,270.72991 h -64.3827 c -11.80415,0 -28.29017,6.82869 -36.63648,15.175 l -99.73046,99.73047 c -8.34631,8.34631 -8.34631,22.00456 0,30.35087 l 76.95481,76.95392 c 8.34632,8.34677 22.00411,8.34677 30.35043,0 l 99.73046,-99.73002 c 8.34631,-8.34675 15.175,-24.83321 15.175,-36.63648 v -64.38271 c 0,-11.8037 -9.65779,-21.46105 -21.46106,-21.46105 z m -28.51686,71.39702 c -11.82959,0 -21.4191,-9.58951 -21.4191,-21.41911 0,-11.82959 9.58951,-21.4191 21.4191,-21.4191 11.8296,0 21.41911,9.58951 21.41911,21.4191 0,11.8296 -9.58951,21.41911 -21.41911,21.41911 z"
   id="path2-3-7"
   inkscape:connector-curvature="0"
   style="fill:#000000;stroke:#808080;stroke-width:0.44623128" /></svg>