<?xml version="1.0" encoding="UTF-8" standalone="no"?>
<svg
   xmlns:dc="http://purl.org/dc/elements/1.1/"
   xmlns:cc="http://creativecommons.org/ns#"
   xmlns:rdf="http://www.w3.org/1999/02/22-rdf-syntax-ns#"
   xmlns:svg="http://www.w3.org/2000/svg"
   xmlns="http://www.w3.org/2000/svg"
   xmlns:sodipodi="http://sodipodi.sourceforge.net/DTD/sodipodi-0.dtd"
   xmlns:inkscape="http://www.inkscape.org/namespaces/inkscape"
   version="1.1"
   id="Capa_1"
   x="0px"
   y="0px"
   width="16"
   height="16"
   viewBox="0 0 16 16"
   xml:space="preserve"
   inkscape:version="0.91 r13725"
   sodipodi:docname="plus-sign-in-a-black-circle.svg"><metadata
     id="metadata11"><rdf:RDF><cc:Work
         rdf:about=""><dc:format>image/svg+xml</dc:format><dc:type
           rdf:resource="http://purl.org/dc/dcmitype/StillImage" /><dc:title></dc:title></cc:Work></rdf:RDF></metadata><defs
     id="defs9" /><sodipodi:namedview
     pagecolor="#ffffff"
     bordercolor="#666666"
     borderopacity="1"
     objecttolerance="10"
     gridtolerance="10"
     guidetolerance="10"
     inkscape:pageopacity="0"
     inkscape:pageshadow="2"
     inkscape:window-width="702"
     inkscape:window-height="480"
     id="namedview7"
     showgrid="false"
     inkscape:zoom="0.53815792"
     inkscape:cx="219.26649"
     inkscape:cy="219.26649"
     inkscape:window-x="1638"
     inkscape:window-y="116"
     inkscape:window-maximized="0"
     inkscape:current-layer="Capa_1" /><g
     id="g3"
     transform="matrix(0.02508369,0,0,0.02508369,2.4999996,2.4999745)"><path
       d="M 409.133,109.203 C 389.525,75.611 362.928,49.014 329.335,29.407 295.736,9.801 259.058,0 219.273,0 179.492,0 142.803,9.801 109.21,29.407 75.615,49.011 49.018,75.608 29.41,109.203 9.801,142.8 0,179.489 0,219.267 c 0,39.78 9.804,76.463 29.407,110.062 19.607,33.592 46.204,60.189 79.799,79.798 33.597,19.605 70.283,29.407 110.063,29.407 39.78,0 76.47,-9.802 110.065,-29.407 33.593,-19.602 60.189,-46.206 79.795,-79.798 19.603,-33.596 29.403,-70.284 29.403,-110.062 0.001,-39.782 -9.8,-76.472 -29.399,-110.064 z m -61.954,128.336 c 0,4.948 -1.811,9.236 -5.428,12.847 -3.62,3.614 -7.901,5.428 -12.847,5.428 l -73.091,0 0,73.084 c 0,4.948 -1.813,9.232 -5.428,12.854 -3.613,3.613 -7.897,5.421 -12.847,5.421 l -36.543,0 c -4.948,0 -9.231,-1.808 -12.847,-5.421 -3.617,-3.621 -5.426,-7.905 -5.426,-12.854 l 0,-73.084 -73.089,0 c -4.948,0 -9.229,-1.813 -12.847,-5.428 -3.616,-3.61 -5.424,-7.898 -5.424,-12.847 l 0,-36.547 c 0,-4.948 1.809,-9.231 5.424,-12.847 3.617,-3.617 7.898,-5.426 12.847,-5.426 l 73.092,0 0,-73.089 c 0,-4.949 1.809,-9.229 5.426,-12.847 3.616,-3.616 7.898,-5.424 12.847,-5.424 l 36.547,0 c 4.948,0 9.233,1.809 12.847,5.424 3.614,3.617 5.428,7.898 5.428,12.847 l 0,73.089 73.084,0 c 4.948,0 9.232,1.809 12.847,5.426 3.617,3.615 5.428,7.898 5.428,12.847 l 0,36.547 z"
       id="path5"
       inkscape:connector-curvature="0" /></g></svg>