<?xml version="1.0" encoding="UTF-8" standalone="no"?>
<!-- Generator: Adobe Illustrator 16.0.0, SVG Export Plug-In . SVG Version: 6.00 Build 0)  -->

<svg
   xmlns:dc="http://purl.org/dc/elements/1.1/"
   xmlns:cc="http://creativecommons.org/ns#"
   xmlns:rdf="http://www.w3.org/1999/02/22-rdf-syntax-ns#"
   xmlns:svg="http://www.w3.org/2000/svg"
   xmlns="http://www.w3.org/2000/svg"
   xmlns:sodipodi="http://sodipodi.sourceforge.net/DTD/sodipodi-0.dtd"
   xmlns:inkscape="http://www.inkscape.org/namespaces/inkscape"
   version="1.1"
   id="Capa_1"
   x="0px"
   y="0px"
   width="510.714px"
   height="510.714px"
   viewBox="0 0 510.714 510.714"
   style="enable-background:new 0 0 510.714 510.714;"
   xml:space="preserve"
   inkscape:version="0.91 r13725"
   sodipodi:docname="text-size.svg"><metadata
     id="metadata45"><rdf:RDF><cc:Work
         rdf:about=""><dc:format>image/svg+xml</dc:format><dc:type
           rdf:resource="http://purl.org/dc/dcmitype/StillImage" /></cc:Work></rdf:RDF></metadata><defs
     id="defs43" /><sodipodi:namedview
     pagecolor="#ffffff"
     bordercolor="#666666"
     borderopacity="1"
     objecttolerance="10"
     gridtolerance="10"
     guidetolerance="10"
     inkscape:pageopacity="0"
     inkscape:pageshadow="2"
     inkscape:window-width="2060"
     inkscape:window-height="1130"
     id="namedview41"
     showgrid="false"
     inkscape:zoom="1.3993361"
     inkscape:cx="255.35699"
     inkscape:cy="235.59709"
     inkscape:window-x="1466"
     inkscape:window-y="49"
     inkscape:window-maximized="0"
     inkscape:current-layer="g5" /><g
     id="g3"><g
       id="g5"><path
         d="m 485.54091,389.56483 -20.97222,0 0,-268.41657 20.97222,0 c 5.76844,0 9.4381,-1.61495 11.00898,-4.84942 1.57454,-3.23264 0.61237,-7.11897 -2.88193,-11.66634 L 460.63829,62.172071 c -3.4943,-4.543691 -7.78,-6.815078 -12.84426,-6.815078 -5.06426,0 -9.34721,2.271387 -12.84059,6.815078 l -33.03059,42.461349 c -3.48787,4.54645 -4.44912,8.43369 -2.88468,11.66633 1.56445,3.23448 5.24054,4.84942 11.00898,4.84942 l 20.97498,0 0,268.41657 -20.97498,0 c -5.76844,0 -9.4381,1.61587 -11.00898,4.85493 -1.57087,3.22989 -0.60962,7.11897 2.88468,11.66175 l 33.03059,42.46317 c 3.4943,4.54278 7.77725,6.81141 12.84059,6.81141 5.06517,0 9.35088,-2.26863 12.84426,-6.81141 l 33.03059,-42.46317 c 3.49154,-4.54278 4.4528,-8.43278 2.88192,-11.66175 -1.57087,-3.23998 -5.24053,-4.85584 -11.00989,-4.85584 z"
         id="path9"
         inkscape:connector-curvature="0" /><text
         xml:space="preserve"
         style="font-style:normal;font-variant:normal;font-weight:normal;font-stretch:normal;font-size:504.20169067px;line-height:125%;font-family:'Helvetica Neue';-inkscape-font-specification:'Helvetica Neue';letter-spacing:0px;word-spacing:0px;fill:#000000;fill-opacity:1;stroke:none;stroke-width:1px;stroke-linecap:butt;stroke-linejoin:miter;stroke-opacity:1"
         x="34.456181"
         y="435.35699"
         id="text4173"
         sodipodi:linespacing="125%"><tspan
           sodipodi:role="line"
           id="tspan4175"
           x="34.456181"
           y="435.35699">A</tspan></text>
</g></g><g
     id="g11" /><g
     id="g13" /><g
     id="g15" /><g
     id="g17" /><g
     id="g19" /><g
     id="g21" /><g
     id="g23" /><g
     id="g25" /><g
     id="g27" /><g
     id="g29" /><g
     id="g31" /><g
     id="g33" /><g
     id="g35" /><g
     id="g37" /><g
     id="g39" /></svg>