<?xml version="1.0" encoding="UTF-8" standalone="no"?>
<!-- Created with Inkscape (http://www.inkscape.org/) -->

<svg
   xmlns:dc="http://purl.org/dc/elements/1.1/"
   xmlns:cc="http://creativecommons.org/ns#"
   xmlns:rdf="http://www.w3.org/1999/02/22-rdf-syntax-ns#"
   xmlns:svg="http://www.w3.org/2000/svg"
   xmlns="http://www.w3.org/2000/svg"
   xmlns:sodipodi="http://sodipodi.sourceforge.net/DTD/sodipodi-0.dtd"
   xmlns:inkscape="http://www.inkscape.org/namespaces/inkscape"
   sodipodi:docname="view-plot-aspect-ratio-symbolic.svg"
   height="512"
   id="svg7384"
   inkscape:version="0.91 r13725"
   version="1.1"
   width="512">
  <metadata
     id="metadata90">
    <rdf:RDF>
      <cc:Work
         rdf:about="">
        <dc:format>image/svg+xml</dc:format>
        <dc:type
           rdf:resource="http://purl.org/dc/dcmitype/StillImage" />
        <dc:title>Gnome Symbolic Icon Theme</dc:title>
      </cc:Work>
    </rdf:RDF>
  </metadata>
  <sodipodi:namedview
     inkscape:bbox-paths="false"
     bordercolor="#666666"
     borderopacity="1"
     inkscape:current-layer="layer12"
     inkscape:cx="-53.501485"
     inkscape:cy="-172.16318"
     gridtolerance="10"
     inkscape:guide-bbox="true"
     guidetolerance="10"
     id="namedview88"
     inkscape:object-nodes="false"
     inkscape:object-paths="false"
     objecttolerance="10"
     pagecolor="#555753"
     inkscape:pageopacity="0"
     inkscape:pageshadow="2"
     showborder="false"
     showgrid="true"
     showguides="true"
     inkscape:snap-bbox="true"
     inkscape:snap-bbox-midpoints="false"
     inkscape:snap-global="true"
     inkscape:snap-grids="true"
     inkscape:snap-nodes="false"
     inkscape:snap-others="false"
     inkscape:snap-to-guides="true"
     inkscape:window-height="1387"
     inkscape:window-maximized="1"
     inkscape:window-width="2560"
     inkscape:window-x="0"
     inkscape:window-y="27"
     inkscape:zoom="0.29833984">
    <inkscape:grid
       empspacing="2"
       enabled="true"
       id="grid4866"
       snapvisiblegridlinesonly="true"
       spacingx="1px"
       spacingy="1px"
       type="xygrid"
       visible="true" />
    <sodipodi:guide
       position="0,0"
       orientation="0,512"
       id="guide4633" />
    <sodipodi:guide
       position="512,0"
       orientation="-512,0"
       id="guide4635" />
    <sodipodi:guide
       position="512,512"
       orientation="0,-512"
       id="guide4637" />
    <sodipodi:guide
       position="0,512"
       orientation="512,0"
       id="guide4639" />
  </sodipodi:namedview>
  <title
     id="title9167">Gnome Symbolic Icon Theme</title>
  <defs
     id="defs7386">
    <marker
       inkscape:stockid="Arrow1Lend"
       orient="auto"
       refY="0.0"
       refX="0.0"
       id="Arrow1Lend"
       style="overflow:visible;"
       inkscape:isstock="true">
      <path
         id="path5333"
         d="M 0.0,0.0 L 5.0,-5.0 L -12.5,0.0 L 5.0,5.0 L 0.0,0.0 z "
         style="fill-rule:evenodd;stroke:none;stroke-width:1pt;stroke-opacity:1;fill:#141414;fill-opacity:1"
         transform="scale(0.8) rotate(180) translate(12.5,0)" />
    </marker>
    <marker
       inkscape:stockid="Arrow1Lstart"
       orient="auto"
       refY="0.0"
       refX="0.0"
       id="Arrow1Lstart"
       style="overflow:visible"
       inkscape:isstock="true">
      <path
         id="path5330"
         d="M 0.0,0.0 L 5.0,-5.0 L -12.5,0.0 L 5.0,5.0 L 0.0,0.0 z "
         style="fill-rule:evenodd;stroke:none;stroke-width:1pt;stroke-opacity:1;fill:#141414;fill-opacity:1"
         transform="scale(0.8) translate(12.5,0)" />
    </marker>
  </defs>
  <g
     inkscape:groupmode="layer"
     id="layer9"
     inkscape:label="status"
     style="display:inline"
     transform="translate(-360,-270.01759)" />
  <g
     inkscape:groupmode="layer"
     id="layer10"
     inkscape:label="devices"
     transform="translate(-360,-270.01759)" />
  <g
     inkscape:groupmode="layer"
     id="layer11"
     inkscape:label="apps"
     transform="translate(-360,-270.01759)" />
  <g
     inkscape:groupmode="layer"
     id="layer13"
     inkscape:label="places"
     transform="translate(-360,-270.01759)" />
  <g
     inkscape:groupmode="layer"
     id="layer14"
     inkscape:label="mimetypes"
     transform="translate(-360,-270.01759)" />
  <g
     inkscape:groupmode="layer"
     id="layer15"
     inkscape:label="emblems"
     style="display:inline"
     transform="translate(-360,-270.01759)" />
  <g
     inkscape:groupmode="layer"
     id="g71291"
     inkscape:label="emotes"
     style="display:inline"
     transform="translate(-360,-270.01759)" />
  <g
     inkscape:groupmode="layer"
     id="g4953"
     inkscape:label="categories"
     style="display:inline"
     transform="translate(-360,-270.01759)" />
  <g
     inkscape:groupmode="layer"
     id="layer12"
     inkscape:label="actions"
     style="display:inline"
     transform="translate(-360,-270.01759)">
    <g
       id="g4350"
       transform="matrix(0.95217778,0,0,0.93881511,29.458485,32.184325)">
      <path
         sodipodi:nodetypes="ccccccccccccccccccc"
         inkscape:connector-curvature="0"
         id="path4147"
         d="m 460.24285,464.65382 c -29.4044,20.45455 -58.80908,40.90828 -88.21347,61.36328 29.40439,20.45461 58.80907,40.90936 88.21347,61.36426 l 44.10673,0 c -17.45862,-11.6885 -34.91813,-23.37723 -52.37675,-35.06543 l 161.66385,0 -0.086,0 166.47649,0 c -17.45862,11.6882 -34.91604,23.37693 -52.37465,35.06543 l 44.10673,0 c 29.40439,-20.4549 58.80698,-40.90966 88.21137,-61.36426 -29.40439,-20.455 -58.80698,-40.90873 -88.21137,-61.36328 l -44.10673,0 c 17.45861,11.68813 34.91603,23.3759 52.37465,35.06445 l -163.30023,0 -0.086,0 -164.66807,0 c 17.45862,-11.68856 34.91813,-23.37632 52.37675,-35.06445 z"
         style="fill:#141414;fill-opacity:1;fill-rule:evenodd;stroke:none;stroke-width:1;stroke-linecap:butt;stroke-linejoin:miter;stroke-miterlimit:4;stroke-dasharray:none;stroke-opacity:1" />
      <path
         sodipodi:nodetypes="ccccccccccccccccccc"
         inkscape:connector-curvature="0"
         id="path4147-6"
         d="m 677.36377,417.56181 c -20.45455,-20.47467 -40.90828,-40.94954 -61.36328,-61.42421 -20.45461,20.47467 -40.90936,40.94954 -61.36426,61.42421 l 0,30.71211 c 11.6885,-12.15667 23.37723,-24.31396 35.06543,-36.47063 l 0,112.5687 0,-0.0599 0,115.9198 c -11.6882,-12.15667 -23.37693,-24.3125 -35.06543,-36.46917 l 0,30.71211 c 20.4549,20.47467 40.90966,40.94808 61.36426,61.42275 20.455,-20.47467 40.90873,-40.94808 61.36328,-61.42275 l 0,-30.71211 c -11.68813,12.15667 -23.3759,24.3125 -35.06444,36.46917 l 0,-113.70813 0,-0.0599 0,-114.66058 c 11.68856,12.15667 23.37631,24.31396 35.06444,36.47063 z"
         style="display:inline;fill:#141414;fill-opacity:1;fill-rule:evenodd;stroke:none;stroke-width:1;stroke-linecap:butt;stroke-linejoin:miter;stroke-miterlimit:4;stroke-dasharray:none;stroke-opacity:1" />
      <rect
         y="347.97333"
         x="361.922"
         height="356.0885"
         width="508.15598"
         id="rect4192"
         style="opacity:0.9;fill:none;fill-opacity:1;stroke:#000000;stroke-width:15.86507702;stroke-linecap:round;stroke-linejoin:round;stroke-miterlimit:4;stroke-dasharray:none;stroke-dashoffset:0;stroke-opacity:1" />
    </g>
  </g>
</svg>
