<?xml version="1.0" encoding="UTF-8" standalone="no"?>
<!-- Created with Inkscape (http://www.inkscape.org/) -->

<svg
   xmlns:dc="http://purl.org/dc/elements/1.1/"
   xmlns:cc="http://creativecommons.org/ns#"
   xmlns:rdf="http://www.w3.org/1999/02/22-rdf-syntax-ns#"
   xmlns:svg="http://www.w3.org/2000/svg"
   xmlns="http://www.w3.org/2000/svg"
   xmlns:sodipodi="http://sodipodi.sourceforge.net/DTD/sodipodi-0.dtd"
   xmlns:inkscape="http://www.inkscape.org/namespaces/inkscape"
   sodipodi:docname="view-plot-line-symbolic.svg"
   height="512"
   id="svg7384"
   inkscape:version="0.91 r13725"
   version="1.1"
   width="512">
  <metadata
     id="metadata90">
    <rdf:RDF>
      <cc:Work
         rdf:about="">
        <dc:format>image/svg+xml</dc:format>
        <dc:type
           rdf:resource="http://purl.org/dc/dcmitype/StillImage" />
        <dc:title>Gnome Symbolic Icon Theme</dc:title>
      </cc:Work>
    </rdf:RDF>
  </metadata>
  <sodipodi:namedview
     inkscape:bbox-paths="false"
     bordercolor="#666666"
     borderopacity="1"
     inkscape:current-layer="layer12"
     inkscape:cx="68.446927"
     inkscape:cy="-57.506587"
     gridtolerance="10"
     inkscape:guide-bbox="true"
     guidetolerance="10"
     id="namedview88"
     inkscape:object-nodes="false"
     inkscape:object-paths="false"
     objecttolerance="10"
     pagecolor="#555753"
     inkscape:pageopacity="1"
     inkscape:pageshadow="2"
     showborder="false"
     showgrid="true"
     showguides="true"
     inkscape:snap-bbox="true"
     inkscape:snap-bbox-midpoints="false"
     inkscape:snap-global="true"
     inkscape:snap-grids="true"
     inkscape:snap-nodes="false"
     inkscape:snap-others="false"
     inkscape:snap-to-guides="true"
     inkscape:window-height="1395"
     inkscape:window-maximized="1"
     inkscape:window-width="2505"
     inkscape:window-x="1280"
     inkscape:window-y="1"
     inkscape:zoom="0.90509668"
     fit-margin-top="0"
     fit-margin-left="0"
     fit-margin-right="0"
     fit-margin-bottom="0">
    <inkscape:grid
       empspacing="2"
       enabled="true"
       id="grid4866"
       snapvisiblegridlinesonly="true"
       spacingx="1px"
       spacingy="1px"
       type="xygrid"
       visible="true"
       originx="0"
       originy="-2" />
    <sodipodi:guide
       position="0,0"
       orientation="0,512"
       id="guide4519" />
    <sodipodi:guide
       position="512,0"
       orientation="-512,0"
       id="guide4521" />
    <sodipodi:guide
       position="512,512"
       orientation="0,-512"
       id="guide4523" />
    <sodipodi:guide
       position="0,512"
       orientation="512,0"
       id="guide4525" />
  </sodipodi:namedview>
  <title
     id="title9167">Gnome Symbolic Icon Theme</title>
  <defs
     id="defs7386" />
  <g
     inkscape:groupmode="layer"
     id="layer9"
     inkscape:label="status"
     style="display:inline"
     transform="translate(-360,-268.01759)" />
  <g
     inkscape:groupmode="layer"
     id="layer10"
     inkscape:label="devices"
     transform="translate(-360,-268.01759)" />
  <g
     inkscape:groupmode="layer"
     id="layer11"
     inkscape:label="apps"
     transform="translate(-360,-268.01759)" />
  <g
     inkscape:groupmode="layer"
     id="layer13"
     inkscape:label="places"
     transform="translate(-360,-268.01759)" />
  <g
     inkscape:groupmode="layer"
     id="layer14"
     inkscape:label="mimetypes"
     transform="translate(-360,-268.01759)" />
  <g
     inkscape:groupmode="layer"
     id="layer15"
     inkscape:label="emblems"
     style="display:inline"
     transform="translate(-360,-268.01759)" />
  <g
     inkscape:groupmode="layer"
     id="g71291"
     inkscape:label="emotes"
     style="display:inline"
     transform="translate(-360,-268.01759)" />
  <g
     inkscape:groupmode="layer"
     id="g4953"
     inkscape:label="categories"
     style="display:inline"
     transform="translate(-360,-268.01759)" />
  <g
     inkscape:groupmode="layer"
     id="layer12"
     inkscape:label="actions"
     style="display:inline"
     transform="translate(-360,-268.01759)">
    <g
       id="g4514"
       transform="matrix(40.909091,0,0,40.909091,-14336.273,-31160.793)">
      <path
         inkscape:connector-curvature="0"
         id="path4147"
         d="m 368,777.01759 c 0.39583,0.28571 0.79167,0.57142 1.1875,0.85714 -3.0625,0 -6.125,0 -9.1875,0 0,0.42857 0,0.85715 0,1.28572 3.0625,0 6.125,0 9.1875,0 -0.39583,0.28571 -0.79167,0.57142 -1.1875,0.85714 0.33333,0 0.66667,0 1,0 0.66667,-0.50001 1.33333,-1 2,-1.5 -0.66667,-0.50001 -1.33333,-1 -2,-1.5 -0.33333,0 -0.66667,0 -1,0 z"
         style="fill:#141414;fill-opacity:1;fill-rule:evenodd;stroke:none;stroke-width:1px;stroke-linecap:butt;stroke-linejoin:miter;stroke-opacity:1" />
      <path
         style="fill:#141414;fill-opacity:1;fill-rule:evenodd;stroke:none;stroke-width:1px;stroke-linecap:butt;stroke-linejoin:miter;stroke-opacity:1"
         d="m 360,772.01759 c 0.28571,-0.39583 0.57142,-0.79167 0.85714,-1.1875 0,3.0625 0,6.125 0,9.1875 0.42857,0 0.85715,0 1.28572,0 0,-3.0625 0,-6.125 0,-9.1875 0.28571,0.39583 0.57142,0.79167 0.85714,1.1875 0,-0.33333 0,-0.66667 0,-1 -0.50001,-0.66667 -1,-1.33333 -1.5,-2 -0.50001,0.66667 -1,1.33333 -1.5,2 0,0.33333 0,0.66667 0,1 z"
         id="path10705"
         inkscape:connector-curvature="0" />
      <path
         sodipodi:nodetypes="cccc"
         inkscape:connector-curvature="0"
         id="path4145"
         d="m 363.13096,775.99247 2.21009,-3.42038 2.55212,2.23639 1.99961,-4.28862"
         style="fill:none;fill-rule:evenodd;stroke:#282828;stroke-width:1px;stroke-linecap:butt;stroke-linejoin:miter;stroke-opacity:1" />
    </g>
  </g>
</svg>
