<?xml version="1.0" encoding="UTF-8" standalone="no"?>
<!-- Created with Inkscape (http://www.inkscape.org/) -->

<svg
   xmlns:dc="http://purl.org/dc/elements/1.1/"
   xmlns:cc="http://creativecommons.org/ns#"
   xmlns:rdf="http://www.w3.org/1999/02/22-rdf-syntax-ns#"
   xmlns:svg="http://www.w3.org/2000/svg"
   xmlns="http://www.w3.org/2000/svg"
   xmlns:sodipodi="http://sodipodi.sourceforge.net/DTD/sodipodi-0.dtd"
   xmlns:inkscape="http://www.inkscape.org/namespaces/inkscape"
   width="64"
   height="64"
   id="svg6461"
   version="1.1"
   inkscape:version="0.48.4 r9939"
   sodipodi:docname="scatter3d.svg">
  <defs
     id="defs6463" />
  <sodipodi:namedview
     id="base"
     pagecolor="#ffffff"
     bordercolor="#666666"
     borderopacity="1.0"
     inkscape:pageopacity="0.0"
     inkscape:pageshadow="2"
     inkscape:zoom="3.8504174"
     inkscape:cx="48.519828"
     inkscape:cy="21.611516"
     inkscape:document-units="px"
     inkscape:current-layer="layer1"
     showgrid="true"
     guidetolerance="10000"
     objecttolerance="10000"
     inkscape:window-width="1725"
     inkscape:window-height="964"
     inkscape:window-x="32"
     inkscape:window-y="94"
     inkscape:window-maximized="0">
    <inkscape:grid
       type="xygrid"
       id="grid6469"
       empspacing="5"
       visible="true"
       enabled="true"
       snapvisiblegridlinesonly="true" />
  </sodipodi:namedview>
  <metadata
     id="metadata6466">
    <rdf:RDF>
      <cc:Work
         rdf:about="">
        <dc:format>image/svg+xml</dc:format>
        <dc:type
           rdf:resource="http://purl.org/dc/dcmitype/StillImage" />
        <dc:title></dc:title>
      </cc:Work>
    </rdf:RDF>
  </metadata>
  <g
     inkscape:label="Layer 1"
     inkscape:groupmode="layer"
     id="layer1"
     transform="translate(0,-988.36218)">
    <path
       sodipodi:type="star"
       style="fill:none;fill-opacity:1;stroke:#000000;stroke-opacity:1;stroke-width:0;stroke-miterlimit:4;stroke-dasharray:none"
       id="path6471"
       sodipodi:sides="3"
       sodipodi:cx="5"
       sodipodi:cy="4"
       sodipodi:r1="77.781746"
       sodipodi:r2="38.890873"
       sodipodi:arg1="0.78539816"
       sodipodi:arg2="1.8325957"
       inkscape:flatsided="false"
       inkscape:rounded="1.21"
       inkscape:randomized="9.1680136e-16"
       d="M 60,59 C 2.3660108,116.63399 73.663797,62.661203 -5.0656981,41.565699 -83.795194,20.470194 -49.035891,102.86089 -70.131397,24.131397 -91.226903,-54.598097 -80.13399,34.133991 -22.5,-23.5 35.13399,-81.133991 -53.598099,-92.226901 25.131397,-71.131397 103.86089,-50.035894 21.470194,-84.795194 42.565698,-6.0656991 63.661204,72.663797 117.63399,1.366008 60,59 z"
       transform="translate(0,988.36218)"
       inkscape:transform-center-x="-17.462515"
       inkscape:transform-center-y="17.462515" />
    <path
       style="fill:none;stroke:#000000;stroke-width:2;stroke-linecap:square;stroke-linejoin:miter;stroke-miterlimit:4;stroke-opacity:1;stroke-dasharray:none"
       d="m 16,1003.3622 0,33 33,0"
       id="path5648"
       inkscape:connector-curvature="0" />
    <path
       sodipodi:type="arc"
       style="fill:#000000;fill-opacity:1;stroke:none"
       id="path6158"
       sodipodi:cx="21.5"
       sodipodi:cy="25.5"
       sodipodi:rx="1.5"
       sodipodi:ry="1.5"
       d="m 23,25.5 a 1.5,1.5 0 1 1 -3,0 1.5,1.5 0 1 1 3,0 z"
       transform="matrix(1.6666667,0,0,1.6666667,-19.878141,978.20554)" />
    <path
       sodipodi:type="arc"
       style="fill:#000000;fill-opacity:1;stroke:none"
       id="path6158-6"
       sodipodi:cx="21.5"
       sodipodi:cy="25.5"
       sodipodi:rx="1.5"
       sodipodi:ry="1.5"
       d="m 23,25.5 a 1.5,1.5 0 1 1 -3,0 1.5,1.5 0 1 1 3,0 z"
       transform="translate(5.4551928,992.20554)" />
    <path
       sodipodi:type="arc"
       style="fill:#000000;fill-opacity:1;stroke:none"
       id="path6158-9"
       sodipodi:cx="21.5"
       sodipodi:cy="25.5"
       sodipodi:rx="1.5"
       sodipodi:ry="1.5"
       d="m 23,25.5 a 1.5,1.5 0 1 1 -3,0 1.5,1.5 0 1 1 3,0 z"
       transform="matrix(1.6666667,0,0,1.6666667,-13.878141,988.20556)" />
    <path
       sodipodi:type="arc"
       style="fill:#000000;fill-opacity:1;stroke:none"
       id="path6158-3"
       sodipodi:cx="21.5"
       sodipodi:cy="25.5"
       sodipodi:rx="1.5"
       sodipodi:ry="1.5"
       d="m 23,25.5 a 1.5,1.5 0 1 1 -3,0 1.5,1.5 0 1 1 3,0 z"
       transform="matrix(2.3333333,0,0,2.3333333,-32.133777,983.72502)" />
    <path
       sodipodi:type="arc"
       style="fill:#000000;fill-opacity:1;stroke:none"
       id="path6158-2"
       sodipodi:cx="21.5"
       sodipodi:cy="25.5"
       sodipodi:rx="1.5"
       sodipodi:ry="1.5"
       d="m 23,25.5 a 1.5,1.5 0 1 1 -3,0 1.5,1.5 0 1 1 3,0 z"
       transform="matrix(1.3333333,0,0,1.3333333,-18.211474,999.20556)" />
    <path
       sodipodi:type="arc"
       style="fill:#000000;fill-opacity:1;stroke:none"
       id="path6158-8"
       sodipodi:cx="21.5"
       sodipodi:cy="25.5"
       sodipodi:rx="1.5"
       sodipodi:ry="1.5"
       d="m 23,25.5 a 1.5,1.5 0 1 1 -3,0 1.5,1.5 0 1 1 3,0 z"
       transform="matrix(1.6666667,0,0,1.6666667,2.1218588,963.20554)" />
    <path
       sodipodi:type="arc"
       style="fill:#000000;fill-opacity:1;stroke:none"
       id="path6158-0"
       sodipodi:cx="21.5"
       sodipodi:cy="25.5"
       sodipodi:rx="1.5"
       sodipodi:ry="1.5"
       d="m 23,25.5 a 1.5,1.5 0 1 1 -3,0 1.5,1.5 0 1 1 3,0 z"
       transform="matrix(2.6666667,0,0,2.6666667,-11.878141,950.20554)" />
    <path
       sodipodi:type="arc"
       style="fill:#000000;fill-opacity:1;stroke:none"
       id="path6158-60"
       sodipodi:cx="21.5"
       sodipodi:cy="25.5"
       sodipodi:rx="1.5"
       sodipodi:ry="1.5"
       d="m 23,25.5 a 1.5,1.5 0 1 1 -3,0 1.5,1.5 0 1 1 3,0 z"
       transform="matrix(1.6666667,0,0,1.6666667,-1.8781412,985.20554)" />
    <path
       style="fill:none;stroke:#000000;stroke-width:2;stroke-linecap:butt;stroke-linejoin:miter;stroke-miterlimit:4;stroke-opacity:1;stroke-dasharray:none"
       d="m 4,1048.3622 12.208637,-12.2087"
       id="path6239"
       inkscape:connector-curvature="0" />
  </g>
</svg>
