<?xml version="1.0" encoding="UTF-8" standalone="no"?>
<!-- Created with Inkscape (http://www.inkscape.org/) -->

<svg
   xmlns:dc="http://purl.org/dc/elements/1.1/"
   xmlns:cc="http://creativecommons.org/ns#"
   xmlns:rdf="http://www.w3.org/1999/02/22-rdf-syntax-ns#"
   xmlns:svg="http://www.w3.org/2000/svg"
   xmlns="http://www.w3.org/2000/svg"
   xmlns:sodipodi="http://sodipodi.sourceforge.net/DTD/sodipodi-0.dtd"
   xmlns:inkscape="http://www.inkscape.org/namespaces/inkscape"
   width="64"
   height="64"
   id="svg6461"
   version="1.1"
   inkscape:version="0.91 r13725"
   sodipodi:docname="fx.svg">
  <defs
     id="defs6463" />
  <sodipodi:namedview
     id="base"
     pagecolor="#ffffff"
     bordercolor="#666666"
     borderopacity="1.0"
     inkscape:pageopacity="0.0"
     inkscape:pageshadow="2"
     inkscape:zoom="10.890625"
     inkscape:cx="15.7934"
     inkscape:cy="32"
     inkscape:document-units="px"
     inkscape:current-layer="text6186"
     showgrid="true"
     guidetolerance="10000"
     objecttolerance="10000"
     inkscape:window-width="1419"
     inkscape:window-height="799"
     inkscape:window-x="278"
     inkscape:window-y="127"
     inkscape:window-maximized="0">
    <inkscape:grid
       type="xygrid"
       id="grid6469"
       empspacing="5"
       visible="true"
       enabled="true"
       snapvisiblegridlinesonly="true" />
  </sodipodi:namedview>
  <metadata
     id="metadata6466">
    <rdf:RDF>
      <cc:Work
         rdf:about="">
        <dc:format>image/svg+xml</dc:format>
        <dc:type
           rdf:resource="http://purl.org/dc/dcmitype/StillImage" />
        <dc:title></dc:title>
      </cc:Work>
    </rdf:RDF>
  </metadata>
  <g
     inkscape:label="Layer 1"
     inkscape:groupmode="layer"
     id="layer1"
     transform="translate(0,-988.36218)">
    <path
       sodipodi:type="star"
       style="fill:none;fill-opacity:1;stroke:#000000;stroke-opacity:1;stroke-width:0;stroke-miterlimit:4;stroke-dasharray:none"
       id="path6471"
       sodipodi:sides="3"
       sodipodi:cx="5"
       sodipodi:cy="4"
       sodipodi:r1="77.781746"
       sodipodi:r2="38.890873"
       sodipodi:arg1="0.78539816"
       sodipodi:arg2="1.8325957"
       inkscape:flatsided="false"
       inkscape:rounded="1.21"
       inkscape:randomized="9.1680136e-16"
       d="M 60,59 C 2.3660108,116.63399 73.663797,62.661203 -5.0656981,41.565699 -83.795194,20.470194 -49.035891,102.86089 -70.131397,24.131397 -91.226903,-54.598097 -80.13399,34.133991 -22.5,-23.5 35.13399,-81.133991 -53.598099,-92.226901 25.131397,-71.131397 103.86089,-50.035894 21.470194,-84.795194 42.565698,-6.0656991 63.661204,72.663797 117.63399,1.366008 60,59 Z"
       transform="translate(0,988.36218)"
       inkscape:transform-center-x="-17.462515"
       inkscape:transform-center-y="17.462515" />
    <g
       style="font-style:italic;font-variant:normal;font-weight:bold;font-stretch:normal;font-size:30.69442177px;line-height:125%;font-family:Times;-inkscape-font-specification:'Times Bold Italic';text-align:start;letter-spacing:0px;word-spacing:0px;writing-mode:lr-tb;text-anchor:start;fill:#000000;fill-opacity:1;stroke:none"
       id="text6186">
      <path
         d="m 20.242298,1016.1957 -1.753539,6.9242 q -1.228976,4.9009 -2.398002,7.1041 -1.169026,2.2031 -2.742714,3.2523 -1.558701,1.0641 -3.5820152,1.0641 -1.2739384,0 -1.8734389,-0.4946 -0.5995004,-0.4796 -0.5995004,-1.1391 0,-0.6145 0.4945879,-1.0641 0.4945878,-0.4496 1.3039134,-0.4496 0.674438,0 1.0341382,0.3447 0.3597,0.3447 0.3597,0.8693 0,0.4796 -0.224812,0.7044 -0.224813,0.2398 -0.224813,0.3147 l 0.07494,0.1049 q 0.08992,0.075 0.209825,0.075 0.449625,0 0.764363,-0.2848 0.794338,-0.7044 1.184013,-1.7086 0.269775,-0.6894 1.034138,-3.6419 l 3.057452,-11.975 -2.083264,0 0.494588,-1.7536 q 1.124064,0.015 1.633639,-0.2847 0.509575,-0.2998 1.079101,-1.3489 1.648626,-3.0425 3.477102,-4.3614 1.828477,-1.3189 4.076603,-1.3189 1.438801,0 2.083264,0.5546 0.659451,0.5545 0.659451,1.4388 0,0.7793 -0.434638,1.2439 -0.434638,0.4496 -1.079101,0.4496 -0.5995,0 -0.989176,-0.3746 -0.389675,-0.3747 -0.389675,-0.8993 0,-0.3747 0.2398,-0.7943 0.254788,-0.4197 0.254788,-0.5696 0,-0.1648 -0.1199,-0.2697 -0.104913,-0.1049 -0.284763,-0.1049 -0.884263,0 -1.813489,1.094 -1.528726,1.7536 -2.457951,5.5454 l 2.173189,0 -0.524563,1.7536 -2.113239,0 z"
         style=""
         id="path4146" />
      <path
         d="m 35.799334,1007.1282 -0.269776,0.8243 q -2.143214,1.5288 -3.55204,3.5521 -2.158201,3.1174 -3.522065,7.5986 -1.348875,4.4663 -1.348875,8.393 0,2.503 1.184013,5.3955 l -0.254788,0.8693 q -4.03164,-5.3955 -4.03164,-10.761 0,-3.0874 1.348876,-6.1149 1.588676,-3.5371 4.706078,-6.2798 2.383014,-2.0982 5.740217,-3.4771 z"
         style=""
         id="path4148" />
      <path
         d="m 34.105745,1014.9217 5.230641,-0.8992 q 1.423814,2.2331 2.008327,4.9159 1.468776,-2.1732 2.218151,-3.0425 1.004163,-1.169 1.648626,-1.5137 0.659451,-0.3597 1.393839,-0.3597 0.824313,0 1.258951,0.4496 0.449625,0.4496 0.449625,1.214 0,0.7194 -0.449625,1.184 -0.434638,0.4496 -1.094089,0.4496 -0.4796,0 -1.109075,-0.1648 -0.614488,-0.1799 -0.854288,-0.1799 -0.629476,0 -1.199001,0.4496 -0.779351,0.6145 -1.918402,2.6229 1.273939,4.4962 2.038302,5.4854 0.449625,0.5845 0.914238,0.5845 0.389675,0 0.674438,-0.1948 0.434638,-0.3148 1.333888,-1.5737 l 0.539551,0.3147 q -1.318901,2.1282 -2.577852,2.9975 -0.959201,0.6744 -1.888426,0.6744 -0.959201,0 -1.603664,-0.4196 -0.629476,-0.4346 -1.124063,-1.3938 -0.494588,-0.9742 -1.169026,-3.1025 -1.753539,2.2332 -2.757702,3.2673 -0.989176,1.0192 -1.648626,1.3339 -0.659451,0.3147 -1.408826,0.3147 -0.779351,0 -1.228976,-0.4496 -0.464613,-0.4496 -0.464613,-1.169 0,-0.7644 0.494588,-1.259 0.494588,-0.4945 1.258951,-0.4945 0.404662,0 0.914238,0.2398 0.749375,0.3597 1.079101,0.3597 0.434637,0 0.77935,-0.1799 0.449625,-0.2248 1.139051,-0.9742 0.41965,-0.4646 1.543714,-1.9783 -1.438801,-5.3356 -2.248127,-6.3847 -0.509575,-0.6745 -1.288926,-0.6745 -0.404663,0 -0.989176,0.1199 l 0.104913,-0.5695 z"
         style=""
         id="path4150" />
      <path
         d="m 44.597001,1033.761 0.269776,-0.8243 q 1.723563,-1.229 2.922564,-2.6977 1.184014,-1.4688 2.442964,-4.0617 1.258951,-2.6078 2.053289,-5.5753 1.019151,-3.8518 1.019151,-7.209 0,-2.5029 -1.184013,-5.4105 l 0.2398,-0.8543 q 4.03164,5.3955 4.03164,10.7461 0,3.1024 -1.348876,6.1299 -1.573688,3.522 -4.706078,6.2647 -2.383014,2.0983 -5.740217,3.4921 z"
         style=""
         id="path4152" />
    </g>
  </g>
</svg>
