<?xml version="1.0" encoding="UTF-8" standalone="no"?>
<svg
   xmlns:dc="http://purl.org/dc/elements/1.1/"
   xmlns:cc="http://creativecommons.org/ns#"
   xmlns:rdf="http://www.w3.org/1999/02/22-rdf-syntax-ns#"
   xmlns:svg="http://www.w3.org/2000/svg"
   xmlns="http://www.w3.org/2000/svg"
   id="SVGRoot"
   version="1.1"
   viewBox="0 0 64 64"
   height="64px"
   width="64px">
  <defs
     id="defs3758" />
  <metadata
     id="metadata3761">
    <rdf:RDF>
      <cc:Work
         rdf:about="">
        <dc:format>image/svg+xml</dc:format>
        <dc:type
           rdf:resource="http://purl.org/dc/dcmitype/StillImage" />
        <dc:title></dc:title>
      </cc:Work>
    </rdf:RDF>
  </metadata>
  <g
     id="layer1">
    <path
       style="fill:#808080;fill-opacity:1;stroke-width:0.12531319"
       d="M 43.46364,20.605052 C 41.646599,9.4145811 37.360888,1.5574423 32.373422,1.5574423 c -4.987466,0 -9.273179,7.8571388 -11.09022,19.0476097 z M 20.343353,32.635115 c 0,2.781954 0.150375,5.451131 0.413536,8.020049 h 23.220537 c 0.263156,-2.568918 0.413532,-5.238095 0.413532,-8.020049 0,-2.781947 -0.150375,-5.451123 -0.413532,-8.020042 H 20.756889 c -0.26316,2.568919 -0.413536,5.238095 -0.413536,8.020042 z M 61.032548,20.605052 C 57.448591,12.096286 50.192962,5.5173383 41.233065,2.8606993 44.290708,7.0962857 46.39597,13.474734 47.498727,20.605052 Z M 23.501248,2.8606993 C 14.553885,5.5173383 7.2857174,12.096286 3.71429,20.605052 H 17.248117 C 18.338342,13.474734 20.443604,7.0962857 23.501248,2.8606993 Z M 62.373409,24.615073 h -14.37343 c 0.263157,2.631581 0.413533,5.325815 0.413533,8.020042 0,2.694234 -0.150375,5.388468 -0.413533,8.020049 h 14.360893 c 0.689223,-2.568918 1.077692,-5.238095 1.077692,-8.020049 0,-2.781947 -0.388469,-5.451123 -1.065155,-8.020042 z M 16.33333,32.635115 c 0,-2.694227 0.150375,-5.388461 0.413534,-8.020042 H 2.3734392 c -0.6766917,2.568919 -1.0776961,5.238095 -1.0776961,8.020042 0,2.781954 0.4010044,5.451131 1.0776961,8.020049 H 16.734333 C 16.483708,38.023583 16.33333,35.329349 16.33333,32.635115 Z m 4.949872,12.03007 c 1.817041,11.190472 6.102754,19.04761 11.09022,19.04761 4.987466,0 9.273177,-7.857138 11.090218,-19.04761 z M 41.245596,62.409538 C 50.192962,59.752899 57.461128,53.173952 61.045085,44.665185 H 47.511258 C 46.408502,51.795512 44.30324,58.173952 41.245596,62.409538 Z M 3.71429,44.665185 c 3.5839616,8.508767 10.839595,15.087714 19.799486,17.744353 -3.05764,-4.235586 -5.162903,-10.614026 -6.265659,-17.744353 z"
       id="path10" />
  </g>
</svg>
