<?xml version="1.0" encoding="UTF-8" standalone="no"?>
<svg
   xmlns:dc="http://purl.org/dc/elements/1.1/"
   xmlns:cc="http://creativecommons.org/ns#"
   xmlns:rdf="http://www.w3.org/1999/02/22-rdf-syntax-ns#"
   xmlns:svg="http://www.w3.org/2000/svg"
   xmlns="http://www.w3.org/2000/svg"
   id="SVGRoot"
   version="1.1"
   viewBox="0 0 64 64"
   height="64px"
   width="64px">
  <defs
     id="defs3758" />
  <metadata
     id="metadata3761">
    <rdf:RDF>
      <cc:Work
         rdf:about="">
        <dc:format>image/svg+xml</dc:format>
        <dc:type
           rdf:resource="http://purl.org/dc/dcmitype/StillImage" />
        <dc:title></dc:title>
      </cc:Work>
    </rdf:RDF>
  </metadata>
  <g
     id="layer1">
    <path
       style="fill:#808080;fill-opacity:1;stroke-width:0.04983055"
       d="m 41.76561,23.153004 v -1.993226 c 0,-0.440365 0.356936,-0.797294 0.797288,-0.797294 H 63.29241 c 0.44035,0 0.797288,0.356929 0.797288,0.797294 v 1.993226 c 0,0.440344 -0.356938,0.797273 -0.797288,0.797273 H 42.562898 c -0.440352,0 -0.797288,-0.356929 -0.797288,-0.797273 z m 0.797288,7.175586 H 63.29241 c 0.44035,0 0.797288,-0.356929 0.797288,-0.797273 v -1.993225 c 0,-0.440365 -0.356938,-0.797295 -0.797288,-0.797295 H 42.562898 c -0.440352,0 -0.797288,0.35693 -0.797288,0.797295 v 1.993225 c 0,0.440344 0.356936,0.797273 0.797288,0.797273 z m 0,12.756627 H 63.29241 c 0.44035,0 0.797288,-0.35693 0.797288,-0.797295 v -1.993225 c 0,-0.440344 -0.356938,-0.797273 -0.797288,-0.797273 H 42.562898 c -0.440352,0 -0.797288,0.356929 -0.797288,0.797273 v 1.993225 c 0,0.440365 0.356936,0.797295 0.797288,0.797295 z m 0,-6.378313 H 63.29241 c 0.44035,0 0.797288,-0.35693 0.797288,-0.797295 v -1.993225 c 0,-0.440344 -0.356938,-0.797274 -0.797288,-0.797274 H 42.562898 c -0.440352,0 -0.797288,0.35693 -0.797288,0.797274 v 1.993225 c 0,0.440365 0.356936,0.797295 0.797288,0.797295 z"
       id="path4656" />
    <path
       style="stroke-width:0.03673296;fill:#808080;fill-opacity:1"
       d="M 10.530153,40.748055 8.289442,40.097885 C 8.054351,40.031787 7.9221125,39.785656 7.9882306,39.55056 L 13.002282,22.278726 c 0.06612,-0.235096 0.31223,-0.36733 0.547323,-0.301214 l 2.240708,0.650171 c 0.235093,0.0661 0.367332,0.312229 0.301211,0.547325 l -5.01405,17.271834 c -0.06979,0.235096 -0.312231,0.371008 -0.547321,0.301213 z M 6.3425947,36.626617 7.9404783,34.92222 C 8.10945,34.742225 8.098431,34.455706 7.9110904,34.290405 L 4.5830847,31.362784 7.9110923,28.435163 C 8.098431,28.269917 8.113124,27.983362 7.9404803,27.803366 L 6.3425947,26.098951 C 6.1772948,25.922689 5.898125,25.911617 5.7181337,26.08028 l -5.29322153,4.958958 c -0.1873381,0.172714 -0.1873381,0.470174 0,0.642813 l 5.29322153,4.96262 c 0.1799926,0.16898 0.4591617,0.161698 0.624461,-0.01867 z m 12.0190283,0.02203 5.29322,-4.962639 c 0.187338,-0.172713 0.187338,-0.470174 0,-0.642813 l -5.29322,-4.966299 c -0.176317,-0.165245 -0.45549,-0.157963 -0.624462,0.01868 l -1.597884,1.704396 c -0.168979,0.179996 -0.157944,0.466514 0.02939,0.631816 l 3.328006,2.93128 -3.328006,2.927622 c -0.187337,0.165245 -0.202032,0.451819 -0.02939,0.631815 l 1.597884,1.704397 c 0.165301,0.179995 0.44447,0.187352 0.624462,0.02203 z"
       id="path4723" />
    <path
       style="stroke-width:0.02751137;fill:#4d4d4d;fill-opacity:1"
       d="m 31.631533,26.113038 0.610752,-0.610752 c 0.258604,-0.258609 0.676777,-0.258609 0.932633,0 l 5.34821,5.345458 c 0.258609,0.258608 0.258609,0.676781 0,0.932637 l -5.34821,5.348211 c -0.258604,0.258604 -0.676777,0.258604 -0.932633,0 l -0.610752,-0.610754 c -0.261361,-0.26136 -0.255856,-0.687786 0.011,-0.943642 l 3.315119,-3.158304 h -7.906765 c -0.365902,0 -0.660275,-0.294373 -0.660275,-0.660274 v -0.880363 c 0,-0.365902 0.294373,-0.660275 0.660275,-0.660275 h 7.906767 l -3.31512,-3.158304 c -0.269614,-0.255856 -0.275114,-0.682281 -0.011,-0.943638 z"
       id="path4758" />
  </g>
</svg>
