<?xml version="1.0" encoding="UTF-8" standalone="no"?>
<!-- Created with Inkscape (http://www.inkscape.org/) -->

<svg
   xmlns:dc="http://purl.org/dc/elements/1.1/"
   xmlns:cc="http://creativecommons.org/ns#"
   xmlns:rdf="http://www.w3.org/1999/02/22-rdf-syntax-ns#"
   xmlns:svg="http://www.w3.org/2000/svg"
   xmlns="http://www.w3.org/2000/svg"
   xmlns:sodipodi="http://sodipodi.sourceforge.net/DTD/sodipodi-0.dtd"
   xmlns:inkscape="http://www.inkscape.org/namespaces/inkscape"
   width="64px"
   height="64px"
   viewBox="0 0 64 64"
   version="1.1"
   id="SVGRoot"
   inkscape:version="0.92.4 (5da689c313, 2019-01-14)"
   sodipodi:docname="html_report.svg">
  <defs
     id="defs3979" />
  <sodipodi:namedview
     id="base"
     pagecolor="#ffffff"
     bordercolor="#666666"
     borderopacity="1.0"
     inkscape:pageopacity="0.0"
     inkscape:pageshadow="2"
     inkscape:zoom="11.313708"
     inkscape:cx="31.620426"
     inkscape:cy="33.435513"
     inkscape:document-units="px"
     inkscape:current-layer="layer1"
     showgrid="false"
     inkscape:window-width="1725"
     inkscape:window-height="938"
     inkscape:window-x="-8"
     inkscape:window-y="-8"
     inkscape:window-maximized="1"
     inkscape:grid-bbox="true" />
  <metadata
     id="metadata3982">
    <rdf:RDF>
      <cc:Work
         rdf:about="">
        <dc:format>image/svg+xml</dc:format>
        <dc:type
           rdf:resource="http://purl.org/dc/dcmitype/StillImage" />
        <dc:title></dc:title>
      </cc:Work>
    </rdf:RDF>
  </metadata>
  <g
     inkscape:label="Layer 1"
     inkscape:groupmode="layer"
     id="layer1">
    <path
       style="fill:#808080;fill-opacity:1;stroke-width:0.27214137"
       d="M 9.8308482,63.256172 C 8.0108067,62.464403 8.1122827,64.316961 8.1134178,31.895539 8.1144505,3.3191117 8.1237933,2.5362191 8.6429866,1.6909752 8.9980941,1.1077278 9.5111472,0.72887541 10.20681,0.53593986 10.861285,0.35425487 15.711424,0.24792926 23.419784,0.2468966 l 12.178307,-0.001709 v 8.7220758 c 0,7.2058376 0.07227,8.8587506 0.406723,9.5083736 0.851644,1.647959 0.774223,1.635881 10.539535,1.635881 h 8.920069 l -9.93e-4,20.61474 c -0.0011,19.93766 -0.02076,20.643132 -0.530601,21.482389 -0.355108,0.583247 -0.86816,0.9621 -1.563719,1.155138 -0.686478,0.190972 -8.047884,0.283881 -21.853499,0.277686 -17.126305,-0.0081 -20.972538,-0.07227 -21.6856448,-0.386077 z M 21.039105,51.650379 c 1.621425,-0.44492 3.127441,-2.162143 3.917356,-4.4653 0.358205,-1.045095 0.730863,-1.990783 0.827901,-2.10165 0.09292,-0.110455 0.581182,1.052633 1.07751,2.585385 1.098364,3.394499 1.408154,3.91261 2.479781,4.147972 1.144198,0.250841 1.956511,-0.33653 2.902199,-2.101756 0.829966,-1.54865 1.661892,-1.960123 2.309349,-1.141924 1.327427,1.677376 2.658367,2.804025 3.632133,3.074281 0.597697,0.166199 2.642161,0.302461 4.542306,0.303494 3.231397,0.0017 3.502477,-0.04129 4.195458,-0.635895 0.937324,-0.806222 1.001327,-2.125806 0.144513,-2.983644 -0.54402,-0.545053 -0.915647,-0.604925 -4.222916,-0.685447 l -3.626551,-0.09292 -1.032502,-1.235348 c -1.728167,-2.067482 -4.314687,-2.797937 -6.570254,-1.85545 -0.53473,0.222982 -1.056347,0.35511 -1.158547,0.291108 -0.103241,-0.06195 -0.546085,-1.243608 -0.987906,-2.623064 -1.040863,-3.257099 -1.754387,-4.06198 -3.600854,-4.06198 -2.014217,0 -2.486801,0.584279 -3.868942,4.78149 -1.53771,4.670005 -1.58891,4.743399 -3.30056,4.743399 -1.157305,0 -1.501475,0.12594 -2.170813,0.795903 -0.437693,0.437693 -0.795902,0.982745 -0.795902,1.211809 0,0.732933 0.588409,1.738696 1.187658,2.028669 0.77835,0.376788 2.778321,0.385048 4.119067,0.02076 z m 6.612991,-31.865114 c 0.423239,-0.423242 0.423239,-3.00522 0,-3.428978 -0.461437,-0.461436 -11.131661,-0.461436 -11.593202,0 -0.424271,0.423242 -0.424271,3.005323 0,3.428978 0.232269,0.232268 1.904999,0.326206 5.796651,0.326206 3.891551,0 5.564182,-0.09292 5.796551,-0.326206 z m 0,-7.892111 c 0.423239,-0.42324 0.423239,-3.0052195 0,-3.4289753 -0.461437,-0.4614355 -11.131661,-0.4614355 -11.593202,0 -0.424271,0.4232395 -0.424271,3.0053243 0,3.4289753 0.232269,0.232269 1.904999,0.326206 5.796651,0.326206 3.891551,0 5.564182,-0.09292 5.796551,-0.326206 z"
       id="path4034"
       inkscape:connector-curvature="0" />
    <path
       style="fill:#808080;fill-opacity:1;stroke-width:0.27417329"
       d="m 39.916421,8.1965907 c 0,-4.373108 0.09361,-7.95030605 0.205936,-7.94947228 1.417303,0.0102069 2.41841,0.83096148 8.781151,7.20056568 5.76734,5.7731639 6.678488,6.7992319 6.821695,7.6815699 l 0.16535,1.018165 h -7.986916 -7.986912 z"
       id="path4036"
       inkscape:connector-curvature="0" />
  </g>
</svg>
