<?xml version="1.0" encoding="UTF-8" standalone="no"?>
<svg
   xmlns:dc="http://purl.org/dc/elements/1.1/"
   xmlns:cc="http://creativecommons.org/ns#"
   xmlns:rdf="http://www.w3.org/1999/02/22-rdf-syntax-ns#"
   xmlns:svg="http://www.w3.org/2000/svg"
   xmlns="http://www.w3.org/2000/svg"
   xmlns:xlink="http://www.w3.org/1999/xlink"
   xmlns:sodipodi="http://sodipodi.sourceforge.net/DTD/sodipodi-0.dtd"
   xmlns:inkscape="http://www.inkscape.org/namespaces/inkscape"
   sodipodi:docname="parabolic_taper.svg"
   inkscape:version="1.0 (4035a4fb49, 2020-05-01)"
   version="1.1"
   id="svg2"
   height="24.606319mm"
   width="55.5625mm">
  <defs
     id="defs4">
    <marker
       inkscape:isstock="true"
       style="overflow:visible"
       id="Arrow2Lend"
       refX="0"
       refY="0"
       orient="auto"
       inkscape:stockid="Arrow2Lend">
      <path
         transform="matrix(-1.1,0,0,-1.1,-1.1,0)"
         d="M 8.7185878,4.0337352 -2.2072895,0.01601326 8.7185884,-4.0017078 c -1.7454984,2.3720609 -1.7354408,5.6174519 -6e-7,8.035443 z"
         style="fill:#000000;fill-opacity:1;fill-rule:evenodd;stroke:#000000;stroke-width:0.625;stroke-linejoin:round;stroke-opacity:1"
         id="path1088" />
    </marker>
    <marker
       inkscape:isstock="true"
       style="overflow:visible"
       id="Arrow2Lstart"
       refX="0"
       refY="0"
       orient="auto"
       inkscape:stockid="Arrow2Lstart">
      <path
         transform="matrix(1.1,0,0,1.1,1.1,0)"
         d="M 8.7185878,4.0337352 -2.2072895,0.01601326 8.7185884,-4.0017078 c -1.7454984,2.3720609 -1.7354408,5.6174519 -6e-7,8.035443 z"
         style="fill:#000000;fill-opacity:1;fill-rule:evenodd;stroke:#000000;stroke-width:0.625;stroke-linejoin:round;stroke-opacity:1"
         id="path1085" />
    </marker>
    <g
       id="g9049">
      <symbol
         id="symbol713"
         overflow="visible">
        <path
           id="path3582"
           d=""
           style="stroke:none" />
      </symbol>
      <symbol
         id="symbol2"
         overflow="visible">
        <path
           id="path6351"
           d="M 1.171875,-4.34375 1.125,-4.125 1.671875,-4.078125 C 1.875,-4.0625 1.890625,-3.96875 1.8125,-3.640625 l -0.578125,2.5 c -0.203125,0.875 0.140625,1.25 0.65625,1.25 0.765625,0 1.578125,-0.78125 2.125,-1.890625 L 4.03125,-1.765625 C 3.96875,-1.4375 3.890625,-1.03125 3.890625,-0.78125 c 0,0.5 0.21875,0.890625 0.765625,0.890625 0.765625,0 1.453125,-0.703125 2.046875,-1.578125 0.609375,-0.875 1.015625,-1.875 1.03125,-2.421875 0,-0.375 -0.21875,-0.71875 -0.28125,-0.71875 -0.21875,0 -0.46875,0.078125 -0.671875,0.203125 0.09375,0.3125 0.109375,0.671875 0.109375,1.046875 0,1.265625 -1.109375,3 -1.84375,3 C 4.640625,-0.359375 4.5625,-0.78125 4.75,-1.625 L 5.390625,-4.515625 4.609375,-4.46875 C 4.296875,-3.3125 4.03125,-2.203125 3.5,-1.390625 c -0.375,0.5625 -0.796875,1.03125 -1.171875,1.03125 -0.234375,0 -0.40625,-0.21875 -0.28125,-0.75 L 2.859375,-4.5625 2.8125,-4.609375 Z m 0,0"
           style="stroke:none" />
      </symbol>
      <symbol
         id="symbol3233"
         overflow="visible">
        <path
           id="path81"
           d=""
           style="stroke:none" />
      </symbol>
      <symbol
         id="symbol9040"
         overflow="visible">
        <path
           id="path7997"
           d="M 3.046875,0 V -0.203125 L 2.453125,-0.25 C 2.3125,-0.265625 2.234375,-0.328125 2.234375,-0.59375 V -4.703125 L 2.1875,-4.734375 0.765625,-4.5 v 0.171875 L 1.40625,-4.25 c 0.125,0.015625 0.171875,0.078125 0.171875,0.28125 v 3.375 c 0,0.140625 -0.03125,0.21875 -0.0625,0.265625 C 1.484375,-0.28125 1.421875,-0.265625 1.34375,-0.25 L 0.765625,-0.203125 V 0 Z m 0,0"
           style="stroke:none" />
      </symbol>
    </g>
    <g
       id="g7815">
      <symbol
         id="symbol2730"
         overflow="visible">
        <path
           id="path6950"
           d=""
           style="stroke:none" />
      </symbol>
      <symbol
         id="symbol3864"
         overflow="visible">
        <path
           id="path586"
           d="M 1.171875,-4.34375 1.125,-4.125 1.671875,-4.078125 C 1.875,-4.0625 1.890625,-3.96875 1.8125,-3.640625 l -0.578125,2.5 c -0.203125,0.875 0.140625,1.25 0.65625,1.25 0.765625,0 1.578125,-0.78125 2.125,-1.890625 L 4.03125,-1.765625 C 3.96875,-1.4375 3.890625,-1.03125 3.890625,-0.78125 c 0,0.5 0.21875,0.890625 0.765625,0.890625 0.765625,0 1.453125,-0.703125 2.046875,-1.578125 0.609375,-0.875 1.015625,-1.875 1.03125,-2.421875 0,-0.375 -0.21875,-0.71875 -0.28125,-0.71875 -0.21875,0 -0.46875,0.078125 -0.671875,0.203125 0.09375,0.3125 0.109375,0.671875 0.109375,1.046875 0,1.265625 -1.109375,3 -1.84375,3 C 4.640625,-0.359375 4.5625,-0.78125 4.75,-1.625 L 5.390625,-4.515625 4.609375,-4.46875 C 4.296875,-3.3125 4.03125,-2.203125 3.5,-1.390625 c -0.375,0.5625 -0.796875,1.03125 -1.171875,1.03125 -0.234375,0 -0.40625,-0.21875 -0.28125,-0.75 L 2.859375,-4.5625 2.8125,-4.609375 Z m 0,0"
           style="stroke:none" />
      </symbol>
      <symbol
         id="symbol8258"
         overflow="visible">
        <path
           id="path3842"
           d=""
           style="stroke:none" />
      </symbol>
      <symbol
         id="symbol2022"
         overflow="visible">
        <path
           id="path1396"
           d="M 3.375,-0.921875 3.1875,-0.953125 C 3.03125,-0.578125 2.90625,-0.53125 2.625,-0.53125 H 0.84375 C 0.953125,-0.890625 1.359375,-1.390625 2,-1.859375 2.671875,-2.34375 3.1875,-2.65625 3.1875,-3.4375 c 0,-0.96875 -0.640625,-1.296875 -1.375,-1.296875 -0.953125,0 -1.4375,0.578125 -1.4375,0.9375 0,0.234375 0.265625,0.34375 0.375,0.34375 0.125,0 0.171875,-0.0625 0.203125,-0.1875 C 1.0625,-4.109375 1.34375,-4.5 1.765625,-4.5 c 0.546875,0 0.6875,0.453125 0.6875,0.96875 0,0.75 -0.375,1.15625 -0.96875,1.703125 C 0.625,-1.09375 0.328125,-0.609375 0.1875,-0.0625 L 0.265625,0 h 2.875 z m 0,0"
           style="stroke:none" />
      </symbol>
    </g>
    <g
       id="g5738">
      <symbol
         id="symbol8844"
         overflow="visible">
        <path
           id="path8264"
           d=""
           style="stroke:none" />
      </symbol>
      <symbol
         id="symbol5398"
         overflow="visible">
        <path
           id="path8929"
           d="M 0.484375,-1.265625 0.375,-0.9375 1.078125,-1.3125 c 0.03125,0.796875 0.359375,1.421875 1.015625,1.421875 0.359375,0 0.6875,-0.125 0.875,-0.25 0.15625,-0.09375 0.46875,-0.453125 0.484375,-0.5625 L 3.390625,-0.875 C 2.75,-0.296875 2.4375,-0.28125 2.171875,-0.28125 c -0.28125,0 -0.4375,-0.171875 -0.4375,-0.546875 0,-0.1875 0.171875,-0.96875 0.171875,-0.984375 0.015625,-0.015625 0.03125,-0.046875 0.234375,-0.21875 0.875,-0.796875 2.703125,-2.578125 2.703125,-4.140625 0,-0.34375 -0.125,-0.640625 -0.546875,-0.640625 -1.6875,0 -3,3.21875 -3.203125,5.109375 z m 1.546875,-1.03125 c 0.265625,-0.765625 0.640625,-2.125 1.25,-3.125 0.3125,-0.5 0.6875,-1 0.96875,-1 0.171875,0 0.21875,0.171875 0.21875,0.375 0,1.46875 -1.703125,3.078125 -2.3125,3.640625 -0.046875,0.046875 -0.09375,0.078125 -0.125,0.109375 z m 0,0"
           style="stroke:none" />
      </symbol>
    </g>
  </defs>
  <sodipodi:namedview
     fit-margin-bottom="0"
     fit-margin-right="0"
     fit-margin-left="0"
     fit-margin-top="0"
     inkscape:document-rotation="0"
     inkscape:window-maximized="1"
     inkscape:window-y="0"
     inkscape:window-x="2560"
     inkscape:window-height="1375"
     inkscape:window-width="2560"
     inkscape:object-nodes="true"
     inkscape:object-paths="true"
     showgrid="true"
     inkscape:current-layer="layer1"
     inkscape:document-units="px"
     inkscape:cy="225.60985"
     inkscape:cx="177.12471"
     inkscape:zoom="2.1201923"
     inkscape:pageshadow="2"
     inkscape:pageopacity="0.0"
     borderopacity="1.0"
     bordercolor="#666666"
     pagecolor="#ffffff"
     id="base">
    <inkscape:grid
       spacingy="1"
       spacingx="1"
       originy="-474.39015"
       originx="-40"
       snapvisiblegridlinesonly="true"
       enabled="true"
       visible="true"
       empspacing="5"
       id="grid2987"
       type="xygrid" />
  </sodipodi:namedview>
  <metadata
     id="metadata7">
    <rdf:RDF>
      <cc:Work
         rdf:about="">
        <dc:format>image/svg+xml</dc:format>
        <dc:type
           rdf:resource="http://purl.org/dc/dcmitype/StillImage" />
        <dc:title></dc:title>
      </cc:Work>
    </rdf:RDF>
  </metadata>
  <g
     transform="translate(-40,-474.39015)"
     id="layer1"
     inkscape:groupmode="layer"
     inkscape:label="Laag 1">
    <path
       sodipodi:nodetypes="csccsccccccsccscc"
       d="m 185,555 c -4.762,-0.952 -9.524,-1.935 -14.286,-2.954 -4.762,-1.019 -9.524,-2.075 -14.285,-3.178 -4.762,-1.103 -9.524,-2.252 -14.286,-3.462 -4.762,-1.211 -9.524,-2.482 -14.286,-3.84 -4.762,-1.358 -9.524,-2.8 -14.286,-4.376 -4.761,-1.577 -9.523,-3.28 -14.2853,-5.232 C 94.5238,530.006 89.7619,527.856 85,525 v -20 c 4.7619,-2.856 9.5238,-5.006 14.2857,-6.958 4.7623,-1.952 9.5243,-3.655 14.2853,-5.232 4.762,-1.576 9.524,-3.018 14.286,-4.376 4.762,-1.358 9.524,-2.629 14.286,-3.84 4.762,-1.21 9.524,-2.359 14.286,-3.462 4.761,-1.103 9.523,-2.159 14.285,-3.178 4.762,-1.019 9.524,-2.002 14.286,-2.954 z"
       style="fill:none;stroke:#000000;stroke-width:1;stroke-miterlimit:4;stroke-dasharray:none;stroke-dashoffset:0;paint-order:markers stroke fill"
       id="path930-3" />
    <path
       id="path952"
       d="m 40,505 h 45 v 20 H 40"
       style="fill:none;stroke:#000000;stroke-width:1;stroke-miterlimit:4;stroke-dasharray:6, 6;stroke-dashoffset:0;paint-order:markers stroke fill" />
    <path
       id="path954"
       d="m 250,475 h -65 v 80 h 65"
       style="fill:none;stroke:#000000;stroke-width:1;stroke-miterlimit:4;stroke-dasharray:6, 6;stroke-dashoffset:0;paint-order:markers stroke fill" />
    <g
       inkscape:label=""
       transform="translate(-3.046875,435)"
       id="g983">
      <g
         id="g789">
        <g
           id="g6708"
           style="fill:#000000;fill-opacity:1">
          <use
             height="100%"
             width="100%"
             id="use9910"
             y="81.962997"
             x="92.125"
             xlink:href="#symbol2" />
        </g>
        <g
           id="g3578"
           style="fill:#000000;fill-opacity:1">
          <use
             height="100%"
             width="100%"
             id="use7953"
             y="83.457001"
             x="99.816002"
             xlink:href="#symbol9040" />
        </g>
      </g>
    </g>
    <g
       inkscape:label=""
       transform="translate(78.21875,434.40625)"
       id="g1045">
      <g
         id="g3659">
        <g
           id="g2651"
           style="fill:#000000;fill-opacity:1">
          <use
             height="100%"
             width="100%"
             id="use9560"
             y="81.962997"
             x="92.125"
             xlink:href="#symbol3864" />
        </g>
        <g
           id="g5875"
           style="fill:#000000;fill-opacity:1">
          <use
             height="100%"
             width="100%"
             id="use2985"
             y="83.457001"
             x="99.816002"
             xlink:href="#symbol2022" />
        </g>
      </g>
    </g>
    <path
       id="path1065"
       d="M 85,565 H 185"
       style="fill:none;stroke:#000000;stroke-width:0.5;stroke-miterlimit:4;stroke-dasharray:none;stroke-dashoffset:0;marker-start:url(#Arrow2Lstart);marker-end:url(#Arrow2Lend);paint-order:markers stroke fill" />
    <g
       inkscape:label=""
       transform="translate(38.09375,476.8125)"
       id="g1425">
      <g
         id="g4465">
        <g
           id="g2614"
           style="fill:#000000;fill-opacity:1">
          <use
             height="100%"
             width="100%"
             id="use557"
             y="81.962997"
             x="91.925003"
             xlink:href="#symbol5398" />
        </g>
      </g>
    </g>
  </g>
</svg>
