<?xml version="1.0" encoding="UTF-8" standalone="no"?>
<svg
   xmlns:dc="http://purl.org/dc/elements/1.1/"
   xmlns:cc="http://creativecommons.org/ns#"
   xmlns:rdf="http://www.w3.org/1999/02/22-rdf-syntax-ns#"
   xmlns:svg="http://www.w3.org/2000/svg"
   xmlns="http://www.w3.org/2000/svg"
   xmlns:xlink="http://www.w3.org/1999/xlink"
   xmlns:sodipodi="http://sodipodi.sourceforge.net/DTD/sodipodi-0.dtd"
   xmlns:inkscape="http://www.inkscape.org/namespaces/inkscape"
   sodipodi:docname="sine_bend.svg"
   inkscape:version="1.0 (4035a4fb49, 2020-05-01)"
   version="1.1"
   id="svg2"
   height="17.084898mm"
   width="64.803589mm">
  <defs
     id="defs4">
    <marker
       inkscape:isstock="true"
       style="overflow:visible"
       id="marker1273"
       refX="0"
       refY="0"
       orient="auto"
       inkscape:stockid="Arrow1Lend">
      <path
         transform="matrix(-0.8,0,0,-0.8,-10,0)"
         style="fill:#000000;fill-opacity:1;fill-rule:evenodd;stroke:#000000;stroke-width:1pt;stroke-opacity:1"
         d="M 0,0 5,-5 -12.5,0 5,5 Z"
         id="path1271" />
    </marker>
    <marker
       inkscape:isstock="true"
       style="overflow:visible"
       id="marker1233"
       refX="0"
       refY="0"
       orient="auto"
       inkscape:stockid="Arrow1Lstart">
      <path
         transform="matrix(0.8,0,0,0.8,10,0)"
         style="fill:#000000;fill-opacity:1;fill-rule:evenodd;stroke:#000000;stroke-width:1pt;stroke-opacity:1"
         d="M 0,0 5,-5 -12.5,0 5,5 Z"
         id="path1231" />
    </marker>
    <marker
       inkscape:stockid="Arrow1Lend"
       orient="auto"
       refY="0"
       refX="0"
       id="Arrow1Lend"
       style="overflow:visible"
       inkscape:isstock="true"
       inkscape:collect="always">
      <path
         id="path918"
         d="M 0,0 5,-5 -12.5,0 5,5 Z"
         style="fill:#000000;fill-opacity:1;fill-rule:evenodd;stroke:#000000;stroke-width:1pt;stroke-opacity:1"
         transform="matrix(-0.8,0,0,-0.8,-10,0)" />
    </marker>
    <marker
       inkscape:stockid="Arrow1Lstart"
       orient="auto"
       refY="0"
       refX="0"
       id="Arrow1Lstart"
       style="overflow:visible"
       inkscape:isstock="true"
       inkscape:collect="always">
      <path
         id="path915"
         d="M 0,0 5,-5 -12.5,0 5,5 Z"
         style="fill:#000000;fill-opacity:1;fill-rule:evenodd;stroke:#000000;stroke-width:1pt;stroke-opacity:1"
         transform="matrix(0.8,0,0,0.8,10,0)" />
    </marker>
    <g
       id="g6381">
      <symbol
         overflow="visible"
         id="symbol3738">
        <path
           style="stroke:none"
           d=""
           id="path4199" />
      </symbol>
      <symbol
         overflow="visible"
         id="symbol1052">
        <path
           style="stroke:none"
           d="M 5.34375,0 V -0.265625 C 4.703125,-0.3125 4.65625,-0.328125 4.65625,-0.796875 V -6.75 l -0.0625,-0.0625 -1.4375,0.234375 V -6.34375 L 3.5,-6.3125 c 0.234375,0.03125 0.296875,0.078125 0.296875,0.421875 v 1.5 c -0.25,-0.125 -0.59375,-0.21875 -1.015625,-0.21875 -0.75,0 -1.3125,0.25 -1.703125,0.640625 -0.390625,0.40625 -0.625,1.015625 -0.625,1.8125 0,1.359375 0.703125,2.265625 1.90625,2.265625 0.5,0 0.9375,-0.21875 1.421875,-0.625 V -0.0625 L 3.859375,0 Z M 3.796875,-1.5625 c 0,0.203125 -0.015625,0.359375 -0.0625,0.515625 -0.1875,0.484375 -0.59375,0.65625 -1.0625,0.65625 -0.84375,0 -1.265625,-0.8125 -1.265625,-1.875 0,-1.1875 0.421875,-2.015625 1.359375,-2.015625 0.4375,0 0.78125,0.203125 0.953125,0.578125 0.0625,0.15625 0.078125,0.28125 0.078125,0.53125 z m 0,0"
           id="path9169" />
      </symbol>
      <symbol
         overflow="visible"
         id="symbol1163">
        <path
           style="stroke:none"
           d="m 0.34375,-4.375 v 0.234375 L 0.6875,-4.09375 c 0.234375,0.03125 0.296875,0.078125 0.296875,0.40625 v 2.890625 c 0,0.46875 -0.03125,0.484375 -0.6875,0.53125 V 0 H 2.53125 V -0.265625 C 1.875,-0.3125 1.84375,-0.328125 1.84375,-0.796875 v -3.75 l -0.0625,-0.0625 z m 1.0625,-2.1875 c -0.328125,0 -0.5625,0.25 -0.5625,0.578125 0,0.3125 0.234375,0.546875 0.5625,0.546875 0.34375,0 0.546875,-0.234375 0.5625,-0.546875 C 1.96875,-6.3125 1.75,-6.5625 1.40625,-6.5625 Z m 0,0"
           id="path3905" />
      </symbol>
      <symbol
         overflow="visible"
         id="symbol6386">
        <path
           style="stroke:none"
           d="M 3.359375,-3.21875 V -4.296875 C 3.0625,-4.515625 2.59375,-4.609375 2.1875,-4.609375 c -1,0 -1.671875,0.46875 -1.671875,1.34375 0,0.765625 0.625,1.09375 1.390625,1.328125 0.40625,0.125 0.984375,0.34375 0.984375,0.96875 0,0.46875 -0.375,0.75 -0.859375,0.75 -0.734375,0 -1.15625,-0.53125 -1.328125,-1.3125 H 0.4375 l 0.078125,1.203125 c 0.34375,0.296875 0.890625,0.4375 1.4375,0.4375 1.09375,0 1.71875,-0.578125 1.71875,-1.359375 0,-0.796875 -0.5,-1.171875 -1.4375,-1.46875 C 1.859375,-2.828125 1.25,-3.03125 1.25,-3.546875 c 0,-0.46875 0.359375,-0.734375 0.828125,-0.734375 0.640625,0 0.953125,0.5 1.015625,1.0625 z m 0,0"
           id="path5428" />
      </symbol>
      <symbol
         overflow="visible"
         id="symbol9887">
        <path
           style="stroke:none"
           d="M 2.984375,-4.125 V -4.5 H 1.8125 V -5.65625 H 1.546875 L 0.984375,-4.5 H 0.28125 v 0.375 H 0.9375 v 3.1875 c 0,0.9375 0.703125,1.046875 1.03125,1.046875 0.46875,0 0.90625,-0.234375 1.171875,-0.40625 L 3.0625,-0.484375 c -0.21875,0.09375 -0.421875,0.125 -0.65625,0.125 -0.3125,0 -0.59375,-0.234375 -0.59375,-0.921875 V -4.125 Z m 0,0"
           id="path8859" />
      </symbol>
      <symbol
         overflow="visible"
         id="symbol6063">
        <path
           style="stroke:none"
           d="m 3.140625,-1.3125 c 0,0.75 -0.5625,0.9375 -0.921875,0.9375 -0.5625,0 -0.84375,-0.40625 -0.84375,-0.953125 0,-0.421875 0.203125,-0.640625 0.71875,-0.84375 0.359375,-0.125 0.84375,-0.296875 1.046875,-0.4375 z M 3.96875,-3.390625 c 0,-0.53125 -0.109375,-1.21875 -1.5,-1.21875 -1.03125,0 -1.859375,0.546875 -1.859375,1.046875 0,0.296875 0.34375,0.4375 0.515625,0.4375 0.203125,0 0.25,-0.109375 0.296875,-0.265625 C 1.625,-4.0625 2,-4.28125 2.359375,-4.28125 c 0.359375,0 0.78125,0.1875 0.78125,0.921875 v 0.375 C 2.921875,-2.75 2.03125,-2.515625 1.296875,-2.28125 c -0.65625,0.203125 -0.84375,0.65625 -0.84375,1.09375 0,0.6875 0.453125,1.296875 1.3125,1.296875 C 2.34375,0.09375 2.84375,-0.25 3.140625,-0.4375 c 0.125,0.34375 0.265625,0.546875 0.59375,0.546875 0.34375,0 0.734375,-0.09375 1.078125,-0.28125 L 4.765625,-0.390625 C 4.625,-0.359375 4.4375,-0.34375 4.296875,-0.375 4.125,-0.40625 3.96875,-0.59375 3.96875,-1.171875 Z m 0,0"
           id="path2530" />
      </symbol>
      <symbol
         overflow="visible"
         id="symbol5900">
        <path
           style="stroke:none"
           d="m 4.859375,-3.140625 c 0,-0.9375 -0.515625,-1.46875 -1.359375,-1.46875 -0.671875,0 -1.09375,0.328125 -1.671875,0.703125 L 1.703125,-4.609375 0.34375,-4.375 v 0.234375 L 0.6875,-4.09375 c 0.234375,0.03125 0.296875,0.078125 0.296875,0.40625 v 2.890625 c 0,0.46875 -0.03125,0.484375 -0.6875,0.53125 V 0 H 2.53125 V -0.265625 C 1.875,-0.3125 1.84375,-0.328125 1.84375,-0.796875 V -2.9375 c 0,-0.234375 0.015625,-0.359375 0.09375,-0.515625 0.1875,-0.359375 0.609375,-0.65625 1.09375,-0.65625 0.625,0 0.953125,0.34375 0.953125,1.140625 v 2.171875 c 0,0.46875 -0.015625,0.484375 -0.6875,0.53125 V 0 h 2.25 v -0.265625 c -0.65625,-0.046875 -0.6875,-0.0625 -0.6875,-0.53125 z m 0,0"
           id="path891" />
      </symbol>
      <symbol
         overflow="visible"
         id="symbol8127">
        <path
           style="stroke:none"
           d="m 2.75,-0.359375 c -1.09375,0 -1.34375,-1.140625 -1.34375,-2 0,-1.375 0.53125,-1.921875 1.171875,-1.921875 0.421875,0 0.6875,0.296875 0.875,0.796875 C 3.5,-3.34375 3.5625,-3.25 3.734375,-3.25 c 0.1875,0 0.546875,-0.109375 0.546875,-0.46875 0,-0.421875 -0.609375,-0.890625 -1.609375,-0.890625 -1.65625,0 -2.21875,1.1875 -2.21875,2.40625 0,1.53125 0.75,2.3125 2.125,2.3125 0.640625,0 1.5,-0.34375 1.765625,-1.3125 L 4.078125,-1.34375 C 3.78125,-0.703125 3.421875,-0.359375 2.75,-0.359375 Z m 0,0"
           id="path9774" />
      </symbol>
      <symbol
         overflow="visible"
         id="symbol5453">
        <path
           style="stroke:none"
           d="m 4.046875,-2.40625 c 0.1875,0 0.359375,-0.046875 0.359375,-0.359375 0,-0.53125 -0.171875,-1.84375 -1.84375,-1.84375 -1.4375,0 -2.109375,1.015625 -2.109375,2.40625 0,1.4375 0.625,2.328125 2.109375,2.3125 1.03125,-0.015625 1.546875,-0.5625 1.796875,-1.296875 l -0.28125,-0.140625 c -0.25,0.53125 -0.609375,0.96875 -1.328125,0.96875 -1.140625,0 -1.359375,-1.09375 -1.34375,-2.046875 z M 1.40625,-2.765625 c 0,-0.375 0.140625,-1.515625 1.09375,-1.515625 0.859375,0 0.953125,0.875 0.953125,1.234375 0,0.171875 -0.046875,0.28125 -0.3125,0.28125 z m 0,0"
           id="path6048" />
      </symbol>
    </g>
    <g
       id="g7330">
      <symbol
         overflow="visible"
         id="symbol2038">
        <path
           style="stroke:none"
           d=""
           id="path7297" />
      </symbol>
      <symbol
         overflow="visible"
         id="symbol1067">
        <path
           style="stroke:none"
           d="M 3.359375,-3.21875 V -4.296875 C 3.0625,-4.515625 2.59375,-4.609375 2.1875,-4.609375 c -1,0 -1.671875,0.46875 -1.671875,1.34375 0,0.765625 0.625,1.09375 1.390625,1.328125 0.40625,0.125 0.984375,0.34375 0.984375,0.96875 0,0.46875 -0.375,0.75 -0.859375,0.75 -0.734375,0 -1.15625,-0.53125 -1.328125,-1.3125 H 0.4375 l 0.078125,1.203125 c 0.34375,0.296875 0.890625,0.4375 1.4375,0.4375 1.09375,0 1.71875,-0.578125 1.71875,-1.359375 0,-0.796875 -0.5,-1.171875 -1.4375,-1.46875 C 1.859375,-2.828125 1.25,-3.03125 1.25,-3.546875 c 0,-0.46875 0.359375,-0.734375 0.828125,-0.734375 0.640625,0 0.953125,0.5 1.015625,1.0625 z m 0,0"
           id="path6705" />
      </symbol>
      <symbol
         overflow="visible"
         id="symbol9260">
        <path
           style="stroke:none"
           d="m 4.734375,-3.140625 c 0,-0.9375 -0.5,-1.46875 -1.34375,-1.46875 -0.671875,0 -1.09375,0.3125 -1.671875,0.703125 V -6.75 l -0.0625,-0.0625 -1.421875,0.234375 v 0.234375 l 0.34375,0.046875 C 0.8125,-6.265625 0.875,-6.21875 0.875,-5.890625 v 5.09375 c 0,0.453125 -0.046875,0.484375 -0.6875,0.53125 V 0 H 2.421875 V -0.265625 C 1.78125,-0.3125 1.734375,-0.34375 1.734375,-0.796875 V -2.9375 c 0,-0.234375 0.015625,-0.359375 0.078125,-0.5 0.203125,-0.375 0.625,-0.671875 1.109375,-0.671875 0.625,0 0.953125,0.34375 0.953125,1.140625 v 2.171875 c 0,0.453125 -0.046875,0.484375 -0.6875,0.53125 V 0 h 2.25 V -0.265625 C 4.796875,-0.3125 4.734375,-0.34375 4.734375,-0.796875 Z m 0,0"
           id="path6886" />
      </symbol>
      <symbol
         overflow="visible"
         id="symbol5220">
        <path
           style="stroke:none"
           d="m 0.34375,-4.375 v 0.234375 L 0.6875,-4.09375 c 0.234375,0.03125 0.296875,0.078125 0.296875,0.40625 v 2.890625 c 0,0.46875 -0.03125,0.484375 -0.6875,0.53125 V 0 H 2.53125 V -0.265625 C 1.875,-0.3125 1.84375,-0.328125 1.84375,-0.796875 v -3.75 l -0.0625,-0.0625 z m 1.0625,-2.1875 c -0.328125,0 -0.5625,0.25 -0.5625,0.578125 0,0.3125 0.234375,0.546875 0.5625,0.546875 0.34375,0 0.546875,-0.234375 0.5625,-0.546875 C 1.96875,-6.3125 1.75,-6.5625 1.40625,-6.5625 Z m 0,0"
           id="path6618" />
      </symbol>
      <symbol
         overflow="visible"
         id="symbol2826">
        <path
           style="stroke:none"
           d="m 1.84375,-4.125 h 1.125 V -4.5 h -1.125 L 1.8125,-5.515625 c -0.03125,-0.875 0.28125,-0.96875 0.4375,-0.96875 0.1875,0 0.390625,0.09375 0.625,0.625 0.046875,0.09375 0.109375,0.15625 0.25,0.15625 0.171875,0 0.4375,-0.15625 0.4375,-0.4375 0,-0.296875 -0.375,-0.671875 -1.109375,-0.671875 -0.515625,0 -0.9375,0.234375 -1.171875,0.578125 -0.203125,0.328125 -0.296875,0.8125 -0.296875,1.421875 V -4.5 H 0.28125 v 0.375 h 0.703125 v 3.328125 c 0,0.46875 -0.03125,0.484375 -0.6875,0.53125 V 0 H 2.71875 v -0.265625 c -0.84375,-0.03125 -0.875,-0.0625 -0.875,-0.515625 z m 0,0"
           id="path1117" />
      </symbol>
      <symbol
         overflow="visible"
         id="symbol4171">
        <path
           style="stroke:none"
           d="M 2.984375,-4.125 V -4.5 H 1.8125 V -5.65625 H 1.546875 L 0.984375,-4.5 H 0.28125 v 0.375 H 0.9375 v 3.1875 c 0,0.9375 0.703125,1.046875 1.03125,1.046875 0.46875,0 0.90625,-0.234375 1.171875,-0.40625 L 3.0625,-0.484375 c -0.21875,0.09375 -0.421875,0.125 -0.65625,0.125 -0.3125,0 -0.59375,-0.234375 -0.59375,-0.921875 V -4.125 Z m 0,0"
           id="path9294" />
      </symbol>
    </g>
    <g
       id="g7650">
      <symbol
         id="symbol5649"
         overflow="visible">
        <path
           id="path2759"
           d=""
           style="stroke:none" />
      </symbol>
      <symbol
         id="symbol7245"
         overflow="visible">
        <path
           id="path901"
           d="M 2.796875,-4.609375 C 1.859375,-4.609375 1.3125,-4 1.3125,-3.25 c 0,0.46875 0.328125,0.890625 0.8125,1.28125 0.390625,0.3125 0.625,0.71875 0.625,1.0625 0,0.4375 -0.28125,0.6875 -0.65625,0.6875 C 1.75,-0.21875 1.40625,-0.5 1.265625,-0.984375 1.203125,-1.15625 1.125,-1.25 0.96875,-1.25 0.703125,-1.25 0.5,-1.015625 0.5,-0.765625 c 0,0.40625 0.5,0.875 1.375,0.875 0.984375,0 1.578125,-0.625 1.578125,-1.390625 0,-0.5 -0.21875,-0.890625 -0.84375,-1.390625 C 2.0625,-3.125 1.96875,-3.4375 1.96875,-3.6875 c 0,-0.296875 0.21875,-0.59375 0.5625,-0.59375 0.296875,0 0.546875,0.203125 0.734375,0.625 0.046875,0.109375 0.125,0.1875 0.25,0.1875 0.1875,0 0.453125,-0.140625 0.453125,-0.421875 0,-0.28125 -0.359375,-0.71875 -1.171875,-0.71875 z m 0,0"
           style="stroke:none" />
      </symbol>
    </g>
    <g
       id="g1130">
      <symbol
         id="symbol1766"
         overflow="visible">
        <path
           id="path8816"
           d=""
           style="stroke:none" />
      </symbol>
      <symbol
         id="symbol1722"
         overflow="visible">
        <path
           id="path8198"
           d="M 2.796875,-4.609375 C 1.859375,-4.609375 1.3125,-4 1.3125,-3.25 c 0,0.46875 0.328125,0.890625 0.8125,1.28125 0.390625,0.3125 0.625,0.71875 0.625,1.0625 0,0.4375 -0.28125,0.6875 -0.65625,0.6875 C 1.75,-0.21875 1.40625,-0.5 1.265625,-0.984375 1.203125,-1.15625 1.125,-1.25 0.96875,-1.25 0.703125,-1.25 0.5,-1.015625 0.5,-0.765625 c 0,0.40625 0.5,0.875 1.375,0.875 0.984375,0 1.578125,-0.625 1.578125,-1.390625 0,-0.5 -0.21875,-0.890625 -0.84375,-1.390625 C 2.0625,-3.125 1.96875,-3.4375 1.96875,-3.6875 c 0,-0.296875 0.21875,-0.59375 0.5625,-0.59375 0.296875,0 0.546875,0.203125 0.734375,0.625 0.046875,0.109375 0.125,0.1875 0.25,0.1875 0.1875,0 0.453125,-0.140625 0.453125,-0.421875 0,-0.28125 -0.359375,-0.71875 -1.171875,-0.71875 z m 0,0"
           style="stroke:none" />
      </symbol>
    </g>
    <g
       id="g2124">
      <symbol
         id="symbol9360"
         overflow="visible">
        <path
           id="path2449"
           d=""
           style="stroke:none" />
      </symbol>
      <symbol
         id="symbol292"
         overflow="visible">
        <path
           id="path5032"
           d="M 1.171875,-4.34375 1.125,-4.125 1.671875,-4.078125 C 1.875,-4.0625 1.890625,-3.96875 1.8125,-3.640625 l -0.578125,2.5 c -0.203125,0.875 0.140625,1.25 0.65625,1.25 0.765625,0 1.578125,-0.78125 2.125,-1.890625 L 4.03125,-1.765625 C 3.96875,-1.4375 3.890625,-1.03125 3.890625,-0.78125 c 0,0.5 0.21875,0.890625 0.765625,0.890625 0.765625,0 1.453125,-0.703125 2.046875,-1.578125 0.609375,-0.875 1.015625,-1.875 1.03125,-2.421875 0,-0.375 -0.21875,-0.71875 -0.28125,-0.71875 -0.21875,0 -0.46875,0.078125 -0.671875,0.203125 0.09375,0.3125 0.109375,0.671875 0.109375,1.046875 0,1.265625 -1.109375,3 -1.84375,3 C 4.640625,-0.359375 4.5625,-0.78125 4.75,-1.625 L 5.390625,-4.515625 4.609375,-4.46875 C 4.296875,-3.3125 4.03125,-2.203125 3.5,-1.390625 c -0.375,0.5625 -0.796875,1.03125 -1.171875,1.03125 -0.234375,0 -0.40625,-0.21875 -0.28125,-0.75 L 2.859375,-4.5625 2.8125,-4.609375 Z m 0,0"
           style="stroke:none" />
      </symbol>
    </g>
    <g
       id="g7624">
      <symbol
         id="symbol7745"
         overflow="visible">
        <path
           id="path3423"
           d=""
           style="stroke:none" />
      </symbol>
      <symbol
         id="symbol312"
         overflow="visible">
        <path
           id="path1446"
           d="m 1.5625,-1.03125 c 0,-0.984375 0.796875,-3.25 2.265625,-3.25 0.296875,0 0.53125,0.078125 0.640625,0.1875 -0.140625,0.703125 -0.4375,1.5625 -0.90625,2.328125 -0.4375,0.703125 -1.046875,1.40625 -1.53125,1.40625 -0.296875,0 -0.46875,-0.25 -0.46875,-0.671875 z M 4.25,-6.578125 4.203125,-6.375 4.75,-6.3125 c 0.21875,0.015625 0.234375,0.078125 0.171875,0.375 L 4.5625,-4.46875 4.546875,-4.453125 C 4.375,-4.546875 4.09375,-4.609375 3.78125,-4.609375 c -2.140625,0 -3.125,2.40625 -3.125,3.515625 0,0.59375 0.171875,1.203125 0.921875,1.203125 1.046875,0 1.875,-1.125 2.40625,-2.109375 h 0.03125 l -0.3125,1.09375 C 3.515625,-0.25 3.65625,0.125 4.125,0.109375 c 0.671875,0 1.1875,-0.625 1.5,-1.3125 L 5.40625,-1.34375 c -0.171875,0.328125 -0.578125,0.984375 -0.828125,0.984375 -0.1875,0 -0.171875,-0.21875 -0.09375,-0.515625 L 5.9375,-6.765625 5.890625,-6.8125 Z m 0,0"
           style="stroke:none" />
      </symbol>
    </g>
  </defs>
  <sodipodi:namedview
     id="base"
     pagecolor="#ffffff"
     bordercolor="#666666"
     borderopacity="1.0"
     inkscape:pageopacity="0.0"
     inkscape:pageshadow="2"
     inkscape:zoom="4.2403846"
     inkscape:cx="135.77432"
     inkscape:cy="98.943972"
     inkscape:document-units="px"
     inkscape:current-layer="layer1"
     showgrid="true"
     inkscape:object-paths="true"
     inkscape:object-nodes="true"
     inkscape:window-width="2560"
     inkscape:window-height="1375"
     inkscape:window-x="2560"
     inkscape:window-y="0"
     inkscape:window-maximized="1"
     inkscape:document-rotation="0"
     fit-margin-top="0"
     fit-margin-left="0"
     fit-margin-right="0"
     fit-margin-bottom="0">
    <inkscape:grid
       type="xygrid"
       id="grid2987"
       empspacing="5"
       visible="true"
       enabled="true"
       snapvisiblegridlinesonly="true"
       originx="-183.52249"
       originy="-604.5"
       spacingx="1"
       spacingy="1" />
  </sodipodi:namedview>
  <metadata
     id="metadata7">
    <rdf:RDF>
      <cc:Work
         rdf:about="">
        <dc:format>image/svg+xml</dc:format>
        <dc:type
           rdf:resource="http://purl.org/dc/dcmitype/StillImage" />
        <dc:title></dc:title>
      </cc:Work>
    </rdf:RDF>
  </metadata>
  <g
     inkscape:label="Laag 1"
     inkscape:groupmode="layer"
     id="layer1"
     transform="translate(-183.52249,-604.5)">
    <path
       id="path838"
       title="x-1/(2*3.14156)*sin(2*3.14156*x)"
       d=""
       style="fill:none;stroke:#000000;stroke-width:0.5;paint-order:markers stroke fill" />
    <path
       id="path863-3"
       style="fill:none;stroke:#000000;stroke-width:1;stroke-miterlimit:4;stroke-dasharray:none;paint-order:markers stroke fill"
       d="m 410,625 c -10.238,0 -20.476,0.012 -30.714,0.46 -10.238,0.449 -20.476,1.348 -30.715,2.804 -10.238,1.456 -20.476,3.461 -30.714,5.724 -10.238,2.263 -20.476,4.761 -30.714,7.024 -10.238,2.263 -20.476,4.269 -30.714,5.724 -10.239,1.455 -20.477,2.356 -30.715,2.803 C 215.476,649.987 205.238,650 195,650 v -20 c 10.238,0 20.476,-0.013 30.714,-0.461 10.238,-0.447 20.476,-1.348 30.715,-2.803 10.238,-1.455 20.476,-3.461 30.714,-5.724 10.238,-2.263 20.476,-4.761 30.714,-7.024 10.238,-2.263 20.476,-4.268 30.714,-5.724 10.239,-1.456 20.477,-2.355 30.715,-2.804 C 389.524,605.012 399.762,605 410,605 Z"
       sodipodi:nodetypes="ccsssccccccsscccc" />
    <path
       style="fill:none;stroke:#000000;stroke-width:0.5;stroke-miterlimit:4;stroke-dasharray:3, 3;stroke-dashoffset:0;paint-order:markers stroke fill"
       d="m 195,640 c 10.238,0 20.476,-0.013 30.714,-0.461 10.238,-0.447 20.476,-1.348 30.715,-2.803 10.238,-1.455 20.476,-3.461 30.714,-5.724 10.238,-2.263 20.476,-4.761 30.714,-7.024 10.238,-2.263 20.476,-4.268 30.714,-5.724 10.239,-1.456 20.477,-2.355 30.715,-2.804 C 389.524,615.012 399.762,615 410,615"
       title="x-1/(2*3.14156)*sin(2*3.14156*x)"
       id="path863-6" />
    <path
       style="fill:none;stroke:#000000;stroke-width:0.5;stroke-miterlimit:4;stroke-dasharray:3, 3;stroke-dashoffset:0;paint-order:markers stroke fill"
       d="M 195,640 H 410"
       id="path905"
       sodipodi:nodetypes="cc" />
    <path
       style="fill:none;stroke:#000000;stroke-width:0.5;stroke-miterlimit:4;stroke-dasharray:none;stroke-dashoffset:0;marker-start:url(#Arrow1Lstart);marker-end:url(#Arrow1Lend);paint-order:markers stroke fill"
       d="m 420,615 v 25"
       id="path913" />
    <path
       style="fill:none;stroke:#000000;stroke-width:0.5;stroke-miterlimit:4;stroke-dasharray:none;stroke-dashoffset:0;marker-start:url(#marker1233);marker-end:url(#marker1273);paint-order:markers stroke fill"
       d="M 195,660 H 410"
       id="path1229" />
    <g
       inkscape:label=""
       transform="translate(332.35569,547.20049)"
       id="g1120">
      <g
         id="g6838">
        <g
           id="g5001"
           style="fill:#000000;fill-opacity:1">
          <use
             height="100%"
             width="100%"
             id="use4309"
             y="81.962997"
             x="92.125"
             xlink:href="#symbol1722" />
        </g>
      </g>
    </g>
    <g
       inkscape:label=""
       transform="translate(90.272489,560.56148)"
       id="g1236">
      <g
         id="g7685">
        <g
           id="g971"
           style="fill:#000000;fill-opacity:1">
          <use
             height="100%"
             width="100%"
             id="use9143"
             y="81.962997"
             x="92.125"
             xlink:href="#symbol292" />
        </g>
      </g>
    </g>
    <g
       inkscape:label=""
       transform="translate(205.98438,587)"
       id="g1361">
      <g
         id="g1132">
        <g
           id="g2900"
           style="fill:#000000;fill-opacity:1">
          <use
             height="100%"
             width="100%"
             id="use8558"
             y="81.962997"
             x="91.925003"
             xlink:href="#symbol312" />
        </g>
      </g>
    </g>
  </g>
</svg>
