<?xml version="1.0" encoding="UTF-8" standalone="no"?>
<svg
   xmlns:dc="http://purl.org/dc/elements/1.1/"
   xmlns:cc="http://creativecommons.org/ns#"
   xmlns:rdf="http://www.w3.org/1999/02/22-rdf-syntax-ns#"
   xmlns:svg="http://www.w3.org/2000/svg"
   xmlns="http://www.w3.org/2000/svg"
   xmlns:sodipodi="http://sodipodi.sourceforge.net/DTD/sodipodi-0.dtd"
   xmlns:inkscape="http://www.inkscape.org/namespaces/inkscape"
   width="12"
   height="16"
   id="svg2"
   version="1.1"
   inkscape:version="0.91 r13725"
   sodipodi:docname="port_image.svg">
  <metadata
     id="metadata16">
    <rdf:RDF>
      <cc:Work
         rdf:about="">
        <dc:format>image/svg+xml</dc:format>
        <dc:type
           rdf:resource="http://purl.org/dc/dcmitype/StillImage" />
        <dc:title />
      </cc:Work>
    </rdf:RDF>
  </metadata>
  <defs
     id="defs14">
    <inkscape:perspective
       sodipodi:type="inkscape:persp3d"
       inkscape:vp_x="-5.8874774 : 7.4999821 : 1"
       inkscape:vp_y="0 : 1097.7052 : 0"
       inkscape:vp_z="8.6386185 : 7.4999821 : 1"
       inkscape:persp3d-origin="1.3755705 : 4.5727681 : 1"
       id="perspective3179" />
  </defs>
  <sodipodi:namedview
     pagecolor="#ffffff"
     bordercolor="#666666"
     borderopacity="1"
     objecttolerance="10"
     gridtolerance="10"
     guidetolerance="10"
     inkscape:pageopacity="0"
     inkscape:pageshadow="2"
     inkscape:window-width="1920"
     inkscape:window-height="1051"
     id="namedview12"
     showgrid="false"
     inkscape:zoom="29.5"
     inkscape:cx="1.1525424"
     inkscape:cy="8"
     inkscape:window-x="0"
     inkscape:window-y="0"
     inkscape:window-maximized="1"
     inkscape:current-layer="svg2" />
  <path
     style="opacity:0;fill:#000000;stroke:#a50000;stroke-opacity:1"
     id="path3202"
     d="m 2.3703751,1.9590642 c 0.2097431,0.2525597 0.4986821,0.4050093 0.7840658,0.5550427 0.5454314,0.2378525 1.0697196,0.516811 1.5948034,0.7956265 0.5605243,0.309625 1.1248949,0.6118254 1.6966373,0.9002074 0.3766758,0.1970589 0.7708944,0.3601593 1.1403956,0.5709005 0.1327158,0.063634 0.2549986,0.1411208 0.3759055,0.2236805 0.045596,0.028468 0.080216,0.069398 0.1156704,0.1089122 0,0 -0.8655255,0.5221498 -0.8655255,0.5221498 l 0,0 C 7.1831449,5.6006599 7.1506029,5.5699943 7.1113558,5.5461704 6.9966085,5.4627697 6.8726005,5.3952886 6.7506897,5.3230507 6.3904325,5.1087836 6.0086338,4.9340925 5.6367046,4.7415857 5.0672162,4.449903 4.5045723,4.145474 3.9443219,3.8364203 3.9097606,3.8179884 3.3794861,3.5349228 3.3452844,3.5177458 3.0133259,3.351028 2.6663722,3.2171805 2.3337644,3.0519874 2.0337363,2.8961635 1.7373596,2.7309507 1.5073315,2.4772346 c 0,0 0.8630436,-0.5181704 0.8630436,-0.5181704 z"
     inkscape:connector-curvature="0" />
  <path
     style="opacity:0;fill:#000000;stroke:#a50000;stroke-opacity:1"
     id="path3204"
     d="M 7.4421832,6.7234863 C 7.0651788,6.6682841 6.7029734,6.5521202 6.3501552,6.4115604 5.8141756,6.1878828 5.2470983,6.05325 4.6804486,5.9338688 3.7365374,5.8088903 2.7775732,5.8607586 1.8396391,6.0074012 1.4895739,6.0684887 1.1312559,6.1261595 0.81420746,6.2962031 0.75822303,6.3262294 0.5959135,6.4261302 0.65185465,6.3960233 0.88456724,6.2707802 1.1137733,6.1391283 1.3447327,6.0106808 1.0587342,6.2131876 0.83332151,6.4737424 0.64793444,6.76834 0.48592848,7.0971291 0.32585366,7.426758 0.15562647,7.7514827 0.00386929,8.0470676 -0.19582041,8.3127528 -0.38990565,8.5809844 c -0.18182687,0.2223183 -0.31651564,0.468606 -0.41852199,0.7356783 -0.0771412,0.2325558 -0.004411,0.4568067 0.0735633,0.6778955 0.10319968,0.2215838 0.27735626,0.3944258 0.45709216,0.5548898 0.19883288,0.147287 0.4219428,0.218446 0.66335515,0.253601 0.24792947,0.03071 0.49802425,0.01734 0.74653913,0.03686 0.33312,0.03762 0.664805,0.08023 0.9996973,0.101606 0.3559565,0.01935 0.712506,0.02141 1.0688872,0.02193 0.3351952,0.01047 0.6690667,-0.02291 1.0033029,-0.04269 0.3243574,-0.03524 0.6502045,-0.07189 0.970072,-0.137241 0.1730827,-0.04609 0.3435952,-0.06388 0.5076515,0.01476 0.1634901,0.114376 0.2002844,0.312585 0.2185379,0.498622 -0.030657,0.435749 -0.3698308,0.756823 -0.6673113,1.039988 -0.7396935,0.594774 -1.5857178,1.06121 -2.4335127,1.47972 -0.2928862,0.144582 -0.9428046,0.336204 -1.2414662,0.430654 -1.45301737,0.442508 -2.9653674,0.608813 -4.4783272,0.6612 -0.3817352,0.01322 -0.7638354,0.01189 -1.1457531,0.01784 -2.2686045,-0.04004 -4.5235239,-0.315185 -6.7499914,-0.742805 -0.460443,-0.08843 -0.918114,-0.190739 -1.377172,-0.286109 -0.428013,-0.10287 -0.856647,-0.203193 -1.28404,-0.308611 -1.344878,-0.33172 -0.936136,-0.248731 -2.212074,-0.55246 -0.706072,-0.168076 -1.416112,-0.316015 -2.126004,-0.466608 -0.442634,-0.0927 -0.917243,-0.159511 -1.288495,-0.437021 -0.119031,-0.105305 -0.229847,-0.205122 -0.380306,-0.261582 -0.16,-0.06161 -0.3206,-0.107621 -0.470086,-0.193606 -0.204965,-0.156254 -0.369121,-0.3574 -0.562579,-0.527523 -0.02938,-0.02723 -0.05877,-0.05446 -0.08815,-0.08169 0,0 0.848958,-0.523975 0.848958,-0.523975 l 0,0 c 0.02836,0.02694 0.05673,0.05389 0.08509,0.08084 0.184642,0.168077 0.346965,0.363638 0.553697,0.504516 0.151745,0.07344 0.313869,0.116883 0.468234,0.18433 0.14979,0.06997 0.268191,0.173506 0.389335,0.284246 0.350322,0.258779 0.79552,0.334588 1.207623,0.442941 0.686007,0.17201 1.373342,0.338524 2.057987,0.515963 0.726766,0.188356 1.450273,0.389199 2.177635,0.575238 0.422815,0.108145 0.847287,0.209709 1.27093,0.314564 0.455712,0.09664 0.909662,0.201996 1.367136,0.289919 2.2359394,0.42973 4.5053826,0.675883 6.7828841,0.700223 0.3840756,-0.0089 0.7684038,-0.0102 1.152227,-0.02673 1.52821628,-0.06582 3.05230249,-0.258246 4.5160497,-0.717366 0.2200674,-0.0726 0.4423828,-0.138719 0.6602024,-0.217812 0.1983314,-0.07202 0.3780483,-0.211017 0.5876483,-0.235297 0.1141825,-0.01323 -0.3881154,0.241662 -0.28107,0.199783 0.1583728,-0.06196 0.2945881,-0.170198 0.4382136,-0.261262 0.3066412,-0.194423 0.3853805,-0.263489 0.6620149,-0.475153 0.2850713,-0.26071 0.5992268,-0.548349 0.6742654,-0.946006 -0.00816,-0.144179 -0.025474,-0.32372 -0.168953,-0.397778 -0.154238,-0.04484 -0.309974,-0.0091 -0.4641628,0.02283 -0.3226844,0.05386 -0.6473666,0.09901 -0.9735964,0.124592 -0.3360411,0.02044 -0.6719702,0.04967 -1.009013,0.03879 -0.3560668,-0.0037 -0.7123295,-0.0081 -1.0678357,-0.03002 -0.33656907,-0.023 -0.67029724,-0.06765 -1.00621964,-0.09622 -0.25157827,-0.01051 -0.50479188,-0.0035 -0.75422147,-0.04427 C -0.68454022,11.327363 -0.9198258,11.237308 -1.1252046,11.074625 -1.3148254,10.900993 -1.4966039,10.712829 -1.6075313,10.477389 -1.6929538,10.238365 -1.7757405,9.9930638 -1.7114605,9.7378313 -1.6156895,9.4605399 -1.4870643,9.200644 -1.297436,8.9741763 -1.1059303,8.706822 -0.90349929,8.4468602 -0.74615853,8.1569182 -0.57232031,7.8322818 -0.40456356,7.5045337 -0.25448036,7.1681339 -0.07744869,6.8608752 0.14056662,6.5874133 0.42649221,6.3730432 0.81121436,6.1413016 1.1781799,5.8751251 1.5855395,5.6859863 1.9046312,5.5378307 2.2572189,5.4925084 2.6008817,5.4374033 3.5478855,5.3110386 4.5126639,5.2652722 5.4626375,5.3894564 6.041106,5.5054939 6.618598,5.6358271 7.1647736,5.864647 c 0.3532336,0.1337712 0.7165903,0.2465656 1.0952571,0.2770034 0,0 -0.8178475,0.5818359 -0.8178475,0.5818359 z"
     inkscape:connector-curvature="0" />
  <rect
     style="opacity:1;fill:#000000;stroke:#000000;stroke-width:0.66611797;stroke-opacity:1"
     id="rect3206-3"
     width="4.1982889"
     height="3.9271026"
     x="2.3415329"
     y="4.1381435" />
  <rect
     style="opacity:1;fill:#ffffff;fill-opacity:1;stroke:#000000;stroke-width:1;stroke-miterlimit:4;stroke-dasharray:none;stroke-opacity:1"
     id="rect3206-6"
     width="11.152259"
     height="10.203108"
     x="0.5594632"
     y="2.4916663" />
  <rect
     style="opacity:0.5;fill:#000000;stroke:#000000;stroke-width:0.67696428;stroke-opacity:1"
     id="rect3206-7-5"
     width="4.4247308"
     height="3.8484595"
     x="6.4486513"
     y="7.9740753" />
  <rect
     style="opacity:0.5;fill:#000000;stroke:#000000;stroke-width:0.70435387;stroke-opacity:1"
     id="rect3206-7-5-5"
     width="4.4312396"
     height="4.1600528"
     x="1.2928549"
     y="3.1064143" />
</svg>
