<?xml version="1.0" encoding="UTF-8" standalone="no"?>
<!-- Created with Inkscape (http://www.inkscape.org/) -->

<svg
   xmlns:dc="http://purl.org/dc/elements/1.1/"
   xmlns:cc="http://creativecommons.org/ns#"
   xmlns:rdf="http://www.w3.org/1999/02/22-rdf-syntax-ns#"
   xmlns:svg="http://www.w3.org/2000/svg"
   xmlns="http://www.w3.org/2000/svg"
   xmlns:sodipodi="http://sodipodi.sourceforge.net/DTD/sodipodi-0.dtd"
   xmlns:inkscape="http://www.inkscape.org/namespaces/inkscape"
   width="12"
   height="12"
   viewBox="0 0 12 12"
   version="1.1"
   id="SVGRoot"
   sodipodi:docname="geojson.svg"
   inkscape:version="0.92.4 (5da689c313, 2019-01-14)">
  <defs
     id="defs3785" />
  <sodipodi:namedview
     id="base"
     pagecolor="#ffffff"
     bordercolor="#666666"
     borderopacity="1.0"
     inkscape:pageopacity="0.0"
     inkscape:pageshadow="2"
     inkscape:zoom="21.333333"
     inkscape:cx="6"
     inkscape:cy="6"
     inkscape:document-units="px"
     inkscape:current-layer="layer1"
     showgrid="false"
     inkscape:window-width="1725"
     inkscape:window-height="938"
     inkscape:window-x="-8"
     inkscape:window-y="-8"
     inkscape:window-maximized="1"
     inkscape:grid-bbox="true" />
  <metadata
     id="metadata3788">
    <rdf:RDF>
      <cc:Work
         rdf:about="">
        <dc:format>image/svg+xml</dc:format>
        <dc:type
           rdf:resource="http://purl.org/dc/dcmitype/StillImage" />
      </cc:Work>
    </rdf:RDF>
  </metadata>
  <g
     inkscape:label="Layer 1"
     inkscape:groupmode="layer"
     id="layer1">
    <path
       style="fill:#3f3f3f;fill-opacity:1;stroke-width:0.06313454"
       d="m 0.52032,3.5329592 c 0.2534,-0.72051 1.3581899,-2.00438 2.1788199,-2.5319902 0.40719,-0.2618 1.37959,-0.72214 1.42645,-0.67528 0.0126,0.0126 -0.0485,0.13575 -0.13558,0.27376 -0.31614,0.50081 -0.69691,1.5610802 -0.85627,2.3843702 -0.04,0.20654 -0.0863,0.43944 -0.10298,0.51757 -0.0302,0.14156 -0.0347,0.14206 -1.28979,0.14206 -1.1722399,0 -1.2568099,-0.008 -1.2206499,-0.11049 z"
       id="path3757"
       inkscape:connector-curvature="0" />
    <path
       style="fill:#3f3f3f;fill-opacity:1;stroke-width:0.06313454"
       d="m 8.930405,3.1212142 c -0.14436,-0.7531 -0.426,-1.60129 -0.73548,-2.2150602 -0.16397,-0.32517 -0.22275,-0.49883 -0.16886,-0.49883 0.0455,0 0.3363,0.1241 0.6463,0.27578 1.11004,0.54314 1.96782,1.3331802 2.57815,2.3745402 0.40287,0.68739 0.48557,0.63268 -0.95631,0.63268 h -1.2547 z"
       id="path3759"
       inkscape:connector-curvature="0" />
    <path
       style="fill:#3f3f3f;fill-opacity:1;stroke-width:0.06313454"
       d="m 7.955355,11.661054 c 0.57338,-1.12452 0.83105,-1.8415998 0.99818,-2.7779198 l 0.0817,-0.45772 h 1.25258 c 0.68892,0 1.25258,0.0189 1.25258,0.0421 0,0.0969 -0.4722,0.8906 -0.7235,1.21616 -0.60001,0.7772998 -1.47977,1.4607498 -2.36552,1.8376698 -0.46155,0.1964 -0.53557,0.21725 -0.49603,0.13971 z"
       id="path3763"
       inkscape:connector-curvature="0" />
    <path
       style="fill:#3f3f3f;fill-opacity:1;stroke-width:0.05479946"
       d="m 4.6372097,3.1378942 c 0.2285251,-1.4065 0.6279259,-2.4487602 1.1008197,-2.8726202 0.6097918,-0.54657 1.2993523,0.23249 1.7183563,1.9413802 0.098965,0.40364 0.2684922,1.32309 0.2684922,1.45623 0,0.0151 -0.7149195,0.0274 -1.5887134,0.0274 H 4.5474512 Z"
       id="path3751"
       inkscape:connector-curvature="0" />
    <g
       id="g3902"
       transform="matrix(1,0,0,0.78362293,0,1.2573408)">
      <path
         inkscape:connector-curvature="0"
         id="path3755"
         d="m 0.231435,7.1785042 c -0.10672,-0.48438 -0.10695,-1.71186 -4.3e-4,-2.24128 l 0.0858,-0.42616 h 1.3360099 1.336 v 1.51523 1.51523 H 1.6501349 0.311455 Z"
         style="fill:#3f3f3f;fill-opacity:1;stroke-width:0.06313454" />
      <path
         inkscape:connector-curvature="0"
         id="path3761"
         d="m 9.172855,6.0274842 v -1.51642 h 1.33864 1.33864 l 0.0717,0.23676 c 0.1146,0.37855 0.14431,1.81254 0.0481,2.32019 l -0.0838,0.44195 -1.35662,0.017 -1.35663,0.017 z"
         style="fill:#3f3f3f;fill-opacity:1;stroke-width:0.06313454" />
      <path
         inkscape:connector-curvature="0"
         id="path3753"
         d="m 4.4625896,7.4695842 c -0.044299,-0.0951 -0.04445,-2.6338 -1.507e-4,-2.81646 l 0.03443,-0.14206 h 1.65468 1.6546875 l 0.030286,0.42616 c 0.039252,0.55127 0.039478,1.72076 4.445e-4,2.21623 l -0.030588,0.38807 H 6.1511946 c -1.187188,0 -1.6646548,-0.0203 -1.6886804,-0.0719 z"
         style="fill:#3f3f3f;fill-opacity:1;stroke-width:0.05479946" />
    </g>
    <path
       style="fill:#3f3f3f;fill-opacity:1;stroke-width:0.05479946"
       d="M 5.8442269,11.908824 C 5.4029076,11.635064 4.9795415,10.694974 4.7297559,9.4341342 4.6508084,9.0355942 4.5860698,8.6455942 4.585904,8.5674642 l -3.013e-4,-0.14205 h 1.5696376 c 0.8897431,0 1.5696376,0.0244 1.5696376,0.0564 0,0.031 -0.061401,0.37925 -0.1365138,0.77385 C 7.196693,11.314164 6.5272555,12.332514 5.8442269,11.908824 Z"
       id="path3765"
       inkscape:connector-curvature="0" />
    <path
       style="fill:#3f3f3f;fill-opacity:1;stroke-width:0.06313454"
       d="M 3.4903049,11.395984 C 2.3450149,10.828844 1.3972449,9.9211642 0.836885,8.8548042 l -0.22564,-0.42939 h 1.2649299 c 1.26122,0 1.26501,4.1e-4 1.29351,0.14205 0.2422,1.20372 0.52759,2.0852698 0.8864,2.7380598 0.13362,0.24309 0.19045,0.40288 0.14329,0.40288 -0.043,0 -0.36207,-0.14059 -0.70907,-0.31242 z"
       id="path3767"
       inkscape:connector-curvature="0" />
  </g>
</svg>
