<?xml version="1.0" encoding="UTF-8" standalone="no"?>
<!-- Created with Inkscape (http://www.inkscape.org/) -->

<svg
   xmlns:dc="http://purl.org/dc/elements/1.1/"
   xmlns:cc="http://creativecommons.org/ns#"
   xmlns:rdf="http://www.w3.org/1999/02/22-rdf-syntax-ns#"
   xmlns:svg="http://www.w3.org/2000/svg"
   xmlns="http://www.w3.org/2000/svg"
   xmlns:sodipodi="http://sodipodi.sourceforge.net/DTD/sodipodi-0.dtd"
   xmlns:inkscape="http://www.inkscape.org/namespaces/inkscape"
   width="12"
   height="12"
   viewBox="0 0 12 12"
   version="1.1"
   id="SVGRoot"
   sodipodi:docname="html.svg"
   inkscape:version="0.92.4 (5da689c313, 2019-01-14)">
  <defs
     id="defs3785" />
  <sodipodi:namedview
     id="base"
     pagecolor="#ffffff"
     bordercolor="#666666"
     borderopacity="1.0"
     inkscape:pageopacity="0.0"
     inkscape:pageshadow="2"
     inkscape:zoom="21.333333"
     inkscape:cx="6"
     inkscape:cy="6"
     inkscape:document-units="px"
     inkscape:current-layer="layer1"
     showgrid="false"
     inkscape:window-width="1725"
     inkscape:window-height="938"
     inkscape:window-x="-8"
     inkscape:window-y="-8"
     inkscape:window-maximized="1"
     inkscape:grid-bbox="true" />
  <metadata
     id="metadata3788">
    <rdf:RDF>
      <cc:Work
         rdf:about="">
        <dc:format>image/svg+xml</dc:format>
        <dc:type
           rdf:resource="http://purl.org/dc/dcmitype/StillImage" />
        <dc:title></dc:title>
      </cc:Work>
    </rdf:RDF>
  </metadata>
  <g
     inkscape:label="Layer 1"
     inkscape:groupmode="layer"
     id="layer1">
    <path
       id="path3904"
       d="M 5.2648246,11.920622 4.1273062,11.509984 C 4.007954,11.468309 3.9408369,11.312668 3.9743954,11.164405 L 6.5198218,0.25595185 C 6.5533805,0.10731979 6.6783354,0.02396765 6.7976875,0.0656436 L 7.935206,0.47628121 C 8.0545583,0.5179583 8.121675,0.67359687 8.0881166,0.82186023 L 5.5426904,11.730241 c -0.035426,0.148262 -0.1585136,0.234196 -0.2778658,0.190307 z M 3.1389719,9.3176419 3.9501544,8.2411846 C 4.0359481,8.1275896 4.0303451,7.9465019 3.9353318,7.8421275 L 2.2458407,5.9931514 3.9353318,4.1441383 C 4.0304338,4.0397644 4.0379047,3.8586762 3.9501538,3.7451184 L 3.1389719,2.6686603 C 3.055076,2.5572786 2.9133411,2.5502713 2.8219594,2.657601 L 0.13481054,5.7895709 c -0.09510199,0.1091677 -0.09510199,0.2968955 0,0.4059539 L 2.8219594,9.3297812 c 0.091367,0.1069555 0.2331014,0.1021618 0.3170125,-0.011067 z m 6.1015664,0.014755 2.6871507,-3.1342562 c 0.0951,-0.1091676 0.0951,-0.2968955 0,-0.4059907 L 9.2405383,2.6555675 C 9.1510393,2.551193 9.009304,2.5559873 8.9235257,2.666627 L 8.1123458,3.7430849 c -0.085794,0.1139643 -0.080191,0.2946825 0.014824,0.3990568 l 1.689491,1.8513048 -1.6894905,1.849013 C 8.0320683,7.9468338 8.024597,8.1279217 8.112346,8.2414794 l 0.8111799,1.0764583 c 0.083926,0.1135951 0.2256308,0.1183888 0.3170126,0.011067 z"
       inkscape:connector-curvature="0"
       style="fill:#3f3f3f;fill-opacity:1;stroke-width:0.02079953" />
  </g>
</svg>
