<?xml version="1.0" encoding="UTF-8" standalone="no"?>
<!-- Created with Inkscape (http://www.inkscape.org/) -->

<svg
   xmlns:dc="http://purl.org/dc/elements/1.1/"
   xmlns:cc="http://creativecommons.org/ns#"
   xmlns:rdf="http://www.w3.org/1999/02/22-rdf-syntax-ns#"
   xmlns:svg="http://www.w3.org/2000/svg"
   xmlns="http://www.w3.org/2000/svg"
   xmlns:sodipodi="http://sodipodi.sourceforge.net/DTD/sodipodi-0.dtd"
   xmlns:inkscape="http://www.inkscape.org/namespaces/inkscape"
   width="64"
   height="64"
   id="svg2"
   version="1.1"
   inkscape:version="0.91 r13725"
   sodipodi:docname="drop_nan.svg">
  <defs
     id="defs4" />
  <sodipodi:namedview
     id="base"
     pagecolor="#ffffff"
     bordercolor="#666666"
     borderopacity="1.0"
     inkscape:pageopacity="0.0"
     inkscape:pageshadow="2"
     inkscape:zoom="5.9855016"
     inkscape:cx="37.735265"
     inkscape:cy="-1.4527869"
     inkscape:document-units="px"
     inkscape:current-layer="layer1"
     showgrid="true"
     inkscape:window-width="2560"
     inkscape:window-height="1387"
     inkscape:window-x="0"
     inkscape:window-y="27"
     inkscape:window-maximized="1"
     objecttolerance="10000"
     guidetolerance="10000"
     showguides="false">
    <inkscape:grid
       type="xygrid"
       id="grid3004"
       empspacing="5"
       visible="true"
       enabled="true"
       snapvisiblegridlinesonly="true" />
  </sodipodi:namedview>
  <metadata
     id="metadata7">
    <rdf:RDF>
      <cc:Work
         rdf:about="">
        <dc:format>image/svg+xml</dc:format>
        <dc:type
           rdf:resource="http://purl.org/dc/dcmitype/StillImage" />
        <dc:title></dc:title>
      </cc:Work>
    </rdf:RDF>
  </metadata>
  <g
     inkscape:label="Layer 1"
     inkscape:groupmode="layer"
     id="layer1"
     transform="translate(0,-988.36218)">
    <text
       xml:space="preserve"
       style="font-style:normal;font-variant:normal;font-weight:bold;font-stretch:normal;font-size:47.08962631px;line-height:125%;font-family:Arial;-inkscape-font-specification:'Arial Bold';letter-spacing:0px;word-spacing:0px;fill:#000000;fill-opacity:1;stroke:none;stroke-width:1px;stroke-linecap:butt;stroke-linejoin:miter;stroke-opacity:1"
       x="2.3482513"
       y="-1112.2635"
       id="text3493"
       sodipodi:linespacing="125%"
       transform="scale(1.0968958,-0.91166362)"><tspan
         sodipodi:role="line"
         id="tspan3495"
         x="2.3482513"
         y="-1112.2635" /></text>
    <text
       xml:space="preserve"
       style="font-style:normal;font-weight:normal;font-size:40px;line-height:125%;font-family:sans-serif;letter-spacing:0px;word-spacing:0px;fill:#000000;fill-opacity:1;stroke:none;stroke-width:1px;stroke-linecap:butt;stroke-linejoin:miter;stroke-opacity:1"
       x="35.886383"
       y="-1020.9738"
       id="text3747"
       sodipodi:linespacing="125%"
       transform="scale(1,-1)"><tspan
         sodipodi:role="line"
         id="tspan3749"
         x="35.886383"
         y="-1020.9738" /></text>
    <g
       style="font-style:normal;font-weight:normal;font-size:17.52701378px;line-height:125%;font-family:sans-serif;letter-spacing:0px;word-spacing:0px;fill:#000000;fill-opacity:1;stroke:none;stroke-width:1px;stroke-linecap:butt;stroke-linejoin:miter;stroke-opacity:1"
       id="text7004">
      <path
         d="m 26.591488,1019.3608 0,5.7853 -1.574693,0 0,-5.7339 q 0,-1.3608 -0.530603,-2.0368 -0.530603,-0.6761 -1.591808,-0.6761 -1.275159,0 -2.011157,0.813 -0.735997,0.813 -0.735997,2.2165 l 0,5.4173 -1.583251,0 0,-9.5851 1.583251,0 0,1.4891 q 0.564835,-0.8643 1.326507,-1.2922 0.77023,-0.4279 1.771529,-0.4279 1.651716,0 2.498969,1.0269 0.847253,1.0185 0.847253,3.0039 z"
         style=""
         id="path7051" />
      <path
         d="m 32.57551,1020.3279 q -1.908459,0 -2.644456,0.4365 -0.735998,0.4364 -0.735998,1.4891 0,0.8387 0.547719,1.335 0.556278,0.4879 1.506228,0.4879 1.309391,0 2.096738,-0.9243 0.795904,-0.9329 0.795904,-2.4733 l 0,-0.3509 -1.566135,0 z m 3.140828,-0.6504 0,5.4686 -1.574693,0 0,-1.4549 q -0.539161,0.873 -1.343624,1.2923 -0.804462,0.4108 -1.968365,0.4108 -1.471996,0 -2.344923,-0.8216 -0.86437,-0.8301 -0.86437,-2.2165 0,-1.6175 1.078323,-2.4391 1.08688,-0.8216 3.234966,-0.8216 l 2.207993,0 0,-0.154 q 0,-1.0869 -0.718881,-1.6774 -0.710324,-0.5991 -2.002599,-0.5991 -0.821579,0 -1.600367,0.1969 -0.778788,0.1968 -1.497669,0.5905 l 0,-1.4549 q 0.864369,-0.3338 1.67739,-0.4964 0.81302,-0.1711 1.58325,-0.1711 2.079622,0 3.106595,1.0783 1.026974,1.0783 1.026974,3.2692 z"
         style=""
         id="path7053" />
      <path
         d="m 45.436022,1019.3608 0,5.7853 -1.574693,0 0,-5.7339 q 0,-1.3608 -0.530603,-2.0368 -0.530603,-0.6761 -1.591809,-0.6761 -1.275158,0 -2.011156,0.813 -0.735998,0.813 -0.735998,2.2165 l 0,5.4173 -1.58325,0 0,-9.5851 1.58325,0 0,1.4891 q 0.564836,-0.8643 1.326508,-1.2922 0.77023,-0.4279 1.771529,-0.4279 1.651716,0 2.498969,1.0269 0.847253,1.0185 0.847253,3.0039 z"
         style=""
         id="path7055" />
    </g>
    <circle
       style="opacity:1;fill:none;fill-opacity:1;stroke:#000000;stroke-width:2.07999992;stroke-linecap:round;stroke-linejoin:round;stroke-miterlimit:4;stroke-dasharray:none;stroke-dashoffset:0;stroke-opacity:1"
       id="path7008"
       cx="32"
       cy="1020.3622"
       r="25" />
    <path
       style="fill:none;fill-rule:evenodd;stroke:#000000;stroke-width:2;stroke-linecap:butt;stroke-linejoin:miter;stroke-opacity:1;stroke-miterlimit:4;stroke-dasharray:none"
       d="m 46.66381,1000.1618 -6.507383,9.0713 -3.253692,4.5357"
       id="path7032"
       inkscape:connector-curvature="0" />
    <path
       style="fill:none;fill-rule:evenodd;stroke:#000000;stroke-width:1.99999988;stroke-linecap:butt;stroke-linejoin:miter;stroke-miterlimit:4;stroke-dasharray:none;stroke-opacity:1"
       d="M 27.652675,1026.7876 17.490472,1040.808"
       id="path7010"
       inkscape:connector-curvature="0" />
  </g>
</svg>
