<?xml version="1.0" encoding="UTF-8" standalone="no"?>
<!-- Created with Inkscape (http://www.inkscape.org/) -->

<svg
   xmlns:dc="http://purl.org/dc/elements/1.1/"
   xmlns:cc="http://creativecommons.org/ns#"
   xmlns:rdf="http://www.w3.org/1999/02/22-rdf-syntax-ns#"
   xmlns:svg="http://www.w3.org/2000/svg"
   xmlns="http://www.w3.org/2000/svg"
   xmlns:sodipodi="http://sodipodi.sourceforge.net/DTD/sodipodi-0.dtd"
   xmlns:inkscape="http://www.inkscape.org/namespaces/inkscape"
   width="64"
   height="64"
   id="svg6461"
   version="1.1"
   inkscape:version="0.91 r13725"
   sodipodi:docname="fx.svg">
  <defs
     id="defs6463" />
  <sodipodi:namedview
     id="base"
     pagecolor="#ffffff"
     bordercolor="#666666"
     borderopacity="1.0"
     inkscape:pageopacity="0.0"
     inkscape:pageshadow="2"
     inkscape:zoom="10.890625"
     inkscape:cx="15.7934"
     inkscape:cy="32"
     inkscape:document-units="px"
     inkscape:current-layer="layer1"
     showgrid="true"
     guidetolerance="10000"
     objecttolerance="10000"
     inkscape:window-width="1631"
     inkscape:window-height="896"
     inkscape:window-x="247"
     inkscape:window-y="76"
     inkscape:window-maximized="0">
    <inkscape:grid
       type="xygrid"
       id="grid6469"
       empspacing="5"
       visible="true"
       enabled="true"
       snapvisiblegridlinesonly="true" />
  </sodipodi:namedview>
  <metadata
     id="metadata6466">
    <rdf:RDF>
      <cc:Work
         rdf:about="">
        <dc:format>image/svg+xml</dc:format>
        <dc:type
           rdf:resource="http://purl.org/dc/dcmitype/StillImage" />
        <dc:title></dc:title>
      </cc:Work>
    </rdf:RDF>
  </metadata>
  <g
     inkscape:label="Layer 1"
     inkscape:groupmode="layer"
     id="layer1"
     transform="translate(0,-988.36218)">
    <path
       sodipodi:type="star"
       style="fill:none;fill-opacity:1;stroke:#000000;stroke-opacity:1;stroke-width:0;stroke-miterlimit:4;stroke-dasharray:none"
       id="path6471"
       sodipodi:sides="3"
       sodipodi:cx="5"
       sodipodi:cy="4"
       sodipodi:r1="77.781746"
       sodipodi:r2="38.890873"
       sodipodi:arg1="0.78539816"
       sodipodi:arg2="1.8325957"
       inkscape:flatsided="false"
       inkscape:rounded="1.21"
       inkscape:randomized="9.1680136e-16"
       d="M 60,59 C 2.3660108,116.63399 73.663797,62.661203 -5.0656981,41.565699 -83.795194,20.470194 -49.035891,102.86089 -70.131397,24.131397 -91.226903,-54.598097 -80.13399,34.133991 -22.5,-23.5 35.13399,-81.133991 -53.598099,-92.226901 25.131397,-71.131397 103.86089,-50.035894 21.470194,-84.795194 42.565698,-6.0656991 63.661204,72.663797 117.63399,1.366008 60,59 Z"
       transform="translate(0,988.36218)"
       inkscape:transform-center-x="-17.462515"
       inkscape:transform-center-y="17.462515" />
    <text
       xml:space="preserve"
       style="font-size:30.69442177px;font-style:italic;font-variant:normal;font-weight:bold;font-stretch:normal;text-align:start;line-height:125%;letter-spacing:0px;word-spacing:0px;writing-mode:lr-tb;text-anchor:start;fill:#000000;fill-opacity:1;stroke:none;font-family:Times;-inkscape-font-specification:Times Bold Italic"
       x="12.208992"
       y="1027.9159"
       id="text6186"
       sodipodi:linespacing="125%"><tspan
         sodipodi:role="line"
         id="tspan6190"
         x="12.208992"
         y="1027.9159">f(x)</tspan></text>
    <g
       transform="translate(1.6427547,33.428981)"
       style="font-style:normal;font-weight:normal;font-size:40px;line-height:125%;font-family:sans-serif;letter-spacing:0px;word-spacing:0px;fill:#000000;fill-opacity:1;stroke:none;stroke-width:1px;stroke-linecap:butt;stroke-linejoin:miter;stroke-opacity:1"
       id="text3360">
      <path
         inkscape:connector-curvature="0"
         d="m 19.08718,1008.9077 -0.966797,0 0,-6.2646 -2.021484,4.2627 -0.576172,0 -2.006836,-4.2627 0,6.2646 -0.90332,0 0,-7.2705 1.318359,0 1.938477,4.0479 1.875,-4.0479 1.342773,0 0,7.2705 z"
         style="font-size:10px"
         id="path3365" />
      <path
         inkscape:connector-curvature="0"
         d="m 26.782493,1008.9077 -1.030274,0 -0.71289,-2.0264 -3.144532,0 -0.71289,2.0264 -0.981446,0 2.646485,-7.2705 1.289062,0 2.646485,7.2705 z m -2.041016,-2.8564 -1.274414,-3.5694 -1.279297,3.5694 2.553711,0 z"
         style="font-size:10px"
         id="path3367" />
      <path
         inkscape:connector-curvature="0"
         d="m 32.485618,1002.4966 -2.597657,0 0,6.4111 -0.966796,0 0,-6.4111 -2.597657,0 0,-0.8594 6.16211,0 0,0.8594 z"
         style="font-size:10px"
         id="path3369" />
      <path
         inkscape:connector-curvature="0"
         d="m 38.071555,1008.9077 -4.599609,0 0,-7.2705 0.966797,0 0,6.4111 3.632812,0 0,0.8594 z"
         style="font-size:10px"
         id="path3371" />
      <path
         inkscape:connector-curvature="0"
         d="m 44.770774,1008.9077 -1.030274,0 -0.71289,-2.0264 -3.144531,0 -0.712891,2.0264 -0.981445,0 2.646484,-7.2705 1.289063,0 2.646484,7.2705 z m -2.041016,-2.8564 -1.274414,-3.5694 -1.279297,3.5694 2.553711,0 z"
         style="font-size:10px"
         id="path3373" />
      <path
         inkscape:connector-curvature="0"
         d="m 51.357688,1006.6714 q 0,0.542 -0.205078,0.957 -0.205078,0.4151 -0.551758,0.6836 -0.410156,0.3223 -0.90332,0.459 -0.488282,0.1367 -1.245117,0.1367 l -2.578125,0 0,-7.2705 2.15332,0 q 0.795898,0 1.191406,0.059 0.395508,0.059 0.756836,0.2441 0.400391,0.21 0.581055,0.542 0.180664,0.3272 0.180664,0.7862 0,0.5175 -0.263672,0.8838 -0.263672,0.3613 -0.703125,0.581 l 0,0.039 q 0.737305,0.1513 1.162109,0.6494 0.424805,0.4932 0.424805,1.25 z m -1.625977,-3.2764 q 0,-0.2637 -0.08789,-0.4443 -0.08789,-0.1807 -0.283203,-0.293 -0.229493,-0.1318 -0.556641,-0.1611 -0.327148,-0.034 -0.810547,-0.034 l -1.152344,0 0,2.0996 1.25,0 q 0.454102,0 0.722657,-0.044 0.268554,-0.049 0.498047,-0.1953 0.229492,-0.1465 0.322265,-0.376 0.09766,-0.2344 0.09766,-0.5518 z m 0.620118,3.3154 q 0,-0.4394 -0.131836,-0.6982 -0.131836,-0.2588 -0.478516,-0.4394 -0.234375,-0.1221 -0.571289,-0.1563 -0.332031,-0.039 -0.810547,-0.039 l -1.518555,0 0,2.7051 1.279297,0 q 0.634766,0 1.040039,-0.063 0.405274,-0.068 0.664063,-0.2441 0.273437,-0.1904 0.40039,-0.4346 0.126954,-0.2441 0.126954,-0.6299 z"
         style="font-size:10px"
         id="path3375" />
    </g>
  </g>
</svg>
