<?xml version="1.0" encoding="UTF-8" standalone="no"?>
<!-- Created with Inkscape (http://www.inkscape.org/) -->

<svg
   xmlns:dc="http://purl.org/dc/elements/1.1/"
   xmlns:cc="http://creativecommons.org/ns#"
   xmlns:rdf="http://www.w3.org/1999/02/22-rdf-syntax-ns#"
   xmlns:svg="http://www.w3.org/2000/svg"
   xmlns="http://www.w3.org/2000/svg"
   xmlns:sodipodi="http://sodipodi.sourceforge.net/DTD/sodipodi-0.dtd"
   xmlns:inkscape="http://www.inkscape.org/namespaces/inkscape"
   width="64"
   height="64"
   id="svg2"
   version="1.1"
   inkscape:version="0.91 r13725"
   sodipodi:docname="calculator.svg">
  <defs
     id="defs4" />
  <sodipodi:namedview
     id="base"
     pagecolor="#ffffff"
     bordercolor="#666666"
     borderopacity="1.0"
     inkscape:pageopacity="0.0"
     inkscape:pageshadow="2"
     inkscape:zoom="10.153611"
     inkscape:cx="56.143093"
     inkscape:cy="33.391625"
     inkscape:document-units="px"
     inkscape:current-layer="layer1"
     showgrid="true"
     inkscape:window-width="2278"
     inkscape:window-height="1222"
     inkscape:window-x="146"
     inkscape:window-y="125"
     inkscape:window-maximized="0"
     objecttolerance="10000"
     guidetolerance="10000">
    <inkscape:grid
       type="xygrid"
       id="grid3004"
       empspacing="5"
       visible="true"
       enabled="true"
       snapvisiblegridlinesonly="true" />
  </sodipodi:namedview>
  <metadata
     id="metadata7">
    <rdf:RDF>
      <cc:Work
         rdf:about="">
        <dc:format>image/svg+xml</dc:format>
        <dc:type
           rdf:resource="http://purl.org/dc/dcmitype/StillImage" />
        <dc:title />
      </cc:Work>
    </rdf:RDF>
  </metadata>
  <g
     inkscape:label="Layer 1"
     inkscape:groupmode="layer"
     id="layer1"
     transform="translate(0,-988.36218)">
    <g
       id="g4046"
       transform="translate(0,-3.0000113)">
      <rect
         y="999.36218"
         x="6.5"
         height="48"
         width="51"
         id="rect3890"
         style="fill:#ffffff;fill-opacity:1;stroke:#000000;stroke-width:2;stroke-linecap:square;stroke-linejoin:round;stroke-miterlimit:4;stroke-opacity:1;stroke-dasharray:none;stroke-dashoffset:0" />
      <g
         transform="translate(-1,0)"
         id="g4039">
        <rect
           style="fill:#ffffff;fill-opacity:1;stroke:#000000;stroke-width:2;stroke-linecap:square;stroke-linejoin:miter;stroke-miterlimit:4;stroke-opacity:1;stroke-dasharray:none;stroke-dashoffset:0"
           id="rect4037"
           width="30"
           height="30.000002"
           x="18"
           y="1017.3622" />
        <path
           style="fill:none;stroke:#000000;stroke-width:2;stroke-linecap:butt;stroke-linejoin:miter;stroke-miterlimit:4;stroke-opacity:1;stroke-dasharray:none"
           d="m 18.907865,1037.3622 28.18427,0"
           id="path3974"
           inkscape:connector-curvature="0" />
        <path
           style="fill:none;stroke:#000000;stroke-width:1.99999952;stroke-linecap:butt;stroke-linejoin:miter;stroke-miterlimit:4;stroke-opacity:1;stroke-dasharray:none"
           d="m 18.965678,1027.3622 28.068644,0"
           id="path3974-8"
           inkscape:connector-curvature="0" />
        <path
           style="fill:none;stroke:#000000;stroke-width:2;stroke-linecap:butt;stroke-linejoin:miter;stroke-miterlimit:4;stroke-opacity:1;stroke-dasharray:none"
           d="m 28,1017.3622 0,30"
           id="path4001-7"
           inkscape:connector-curvature="0" />
        <path
           style="fill:none;stroke:#000000;stroke-width:2;stroke-linecap:butt;stroke-linejoin:miter;stroke-miterlimit:4;stroke-opacity:1;stroke-dasharray:none"
           d="m 38,1017.3622 0,30"
           id="path4001-2"
           inkscape:connector-curvature="0" />
      </g>
      <rect
         y="1003.3622"
         x="10.5"
         height="10"
         width="43"
         id="rect4035"
         style="fill:#ffffff;fill-opacity:1;stroke:#000000;stroke-width:2;stroke-linecap:square;stroke-linejoin:round;stroke-miterlimit:4;stroke-opacity:1;stroke-dasharray:none;stroke-dashoffset:0" />
    </g>
    <g
       style="font-style:normal;font-weight:normal;font-size:40px;line-height:125%;font-family:sans-serif;letter-spacing:0px;word-spacing:0px;fill:#000000;fill-opacity:1;stroke:none;stroke-width:1px;stroke-linecap:butt;stroke-linejoin:miter;stroke-opacity:1"
       id="text3360">
      <path
         d="m 19.08718,1008.9077 -0.966797,0 0,-6.2646 -2.021484,4.2627 -0.576172,0 -2.006836,-4.2627 0,6.2646 -0.90332,0 0,-7.2705 1.318359,0 1.938477,4.0479 1.875,-4.0479 1.342773,0 0,7.2705 z"
         style="font-size:10px"
         id="path3365" />
      <path
         d="m 26.782493,1008.9077 -1.030274,0 -0.71289,-2.0264 -3.144532,0 -0.71289,2.0264 -0.981446,0 2.646485,-7.2705 1.289062,0 2.646485,7.2705 z m -2.041016,-2.8564 -1.274414,-3.5694 -1.279297,3.5694 2.553711,0 z"
         style="font-size:10px"
         id="path3367" />
      <path
         d="m 32.485618,1002.4966 -2.597657,0 0,6.4111 -0.966796,0 0,-6.4111 -2.597657,0 0,-0.8594 6.16211,0 0,0.8594 z"
         style="font-size:10px"
         id="path3369" />
      <path
         d="m 38.071555,1008.9077 -4.599609,0 0,-7.2705 0.966797,0 0,6.4111 3.632812,0 0,0.8594 z"
         style="font-size:10px"
         id="path3371" />
      <path
         d="m 44.770774,1008.9077 -1.030274,0 -0.71289,-2.0264 -3.144531,0 -0.712891,2.0264 -0.981445,0 2.646484,-7.2705 1.289063,0 2.646484,7.2705 z m -2.041016,-2.8564 -1.274414,-3.5694 -1.279297,3.5694 2.553711,0 z"
         style="font-size:10px"
         id="path3373" />
      <path
         d="m 51.357688,1006.6714 q 0,0.542 -0.205078,0.957 -0.205078,0.4151 -0.551758,0.6836 -0.410156,0.3223 -0.90332,0.459 -0.488282,0.1367 -1.245117,0.1367 l -2.578125,0 0,-7.2705 2.15332,0 q 0.795898,0 1.191406,0.059 0.395508,0.059 0.756836,0.2441 0.400391,0.21 0.581055,0.542 0.180664,0.3272 0.180664,0.7862 0,0.5175 -0.263672,0.8838 -0.263672,0.3613 -0.703125,0.581 l 0,0.039 q 0.737305,0.1513 1.162109,0.6494 0.424805,0.4932 0.424805,1.25 z m -1.625977,-3.2764 q 0,-0.2637 -0.08789,-0.4443 -0.08789,-0.1807 -0.283203,-0.293 -0.229493,-0.1318 -0.556641,-0.1611 -0.327148,-0.034 -0.810547,-0.034 l -1.152344,0 0,2.0996 1.25,0 q 0.454102,0 0.722657,-0.044 0.268554,-0.049 0.498047,-0.1953 0.229492,-0.1465 0.322265,-0.376 0.09766,-0.2344 0.09766,-0.5518 z m 0.620118,3.3154 q 0,-0.4394 -0.131836,-0.6982 -0.131836,-0.2588 -0.478516,-0.4394 -0.234375,-0.1221 -0.571289,-0.1563 -0.332031,-0.039 -0.810547,-0.039 l -1.518555,0 0,2.7051 1.279297,0 q 0.634766,0 1.040039,-0.063 0.405274,-0.068 0.664063,-0.2441 0.273437,-0.1904 0.40039,-0.4346 0.126954,-0.2441 0.126954,-0.6299 z"
         style="font-size:10px"
         id="path3375" />
    </g>
  </g>
</svg>
