<?xml version="1.0" encoding="UTF-8" standalone="no"?>
<!-- Created with Inkscape (http://www.inkscape.org/) -->

<svg
   xmlns:dc="http://purl.org/dc/elements/1.1/"
   xmlns:cc="http://creativecommons.org/ns#"
   xmlns:rdf="http://www.w3.org/1999/02/22-rdf-syntax-ns#"
   xmlns:svg="http://www.w3.org/2000/svg"
   xmlns="http://www.w3.org/2000/svg"
   xmlns:sodipodi="http://sodipodi.sourceforge.net/DTD/sodipodi-0.dtd"
   xmlns:inkscape="http://www.inkscape.org/namespaces/inkscape"
   width="64"
   height="64"
   id="svg6461"
   version="1.1"
   inkscape:version="0.48.2 r9819"
   sodipodi:docname="table2dsrc.svg">
  <defs
     id="defs6463" />
  <sodipodi:namedview
     id="base"
     pagecolor="#ffffff"
     bordercolor="#666666"
     borderopacity="1.0"
     inkscape:pageopacity="0.0"
     inkscape:pageshadow="2"
     inkscape:zoom="14.173438"
     inkscape:cx="21.52787"
     inkscape:cy="34.047409"
     inkscape:document-units="px"
     inkscape:current-layer="layer1"
     showgrid="true"
     guidetolerance="10000"
     objecttolerance="10000"
     inkscape:window-width="1916"
     inkscape:window-height="1156"
     inkscape:window-x="4"
     inkscape:window-y="0"
     inkscape:window-maximized="1"
     showguides="false">
    <inkscape:grid
       type="xygrid"
       id="grid3252" />
  </sodipodi:namedview>
  <metadata
     id="metadata6466">
    <rdf:RDF>
      <cc:Work
         rdf:about="">
        <dc:format>image/svg+xml</dc:format>
        <dc:type
           rdf:resource="http://purl.org/dc/dcmitype/StillImage" />
        <dc:title></dc:title>
      </cc:Work>
    </rdf:RDF>
  </metadata>
  <g
     inkscape:label="Layer 1"
     inkscape:groupmode="layer"
     id="layer1"
     transform="translate(0,-988.36218)">
    <path
       sodipodi:type="star"
       style="fill:none;fill-opacity:1;stroke:#000000;stroke-opacity:1;stroke-width:0;stroke-miterlimit:4;stroke-dasharray:none"
       id="path6471"
       sodipodi:sides="3"
       sodipodi:cx="5"
       sodipodi:cy="4"
       sodipodi:r1="77.781746"
       sodipodi:r2="38.890873"
       sodipodi:arg1="0.78539816"
       sodipodi:arg2="1.8325957"
       inkscape:flatsided="false"
       inkscape:rounded="1.21"
       inkscape:randomized="9.1680136e-16"
       d="M 60,59 C 2.3660108,116.63399 73.663797,62.661203 -5.0656981,41.565699 -83.795194,20.470194 -49.035891,102.86089 -70.131397,24.131397 -91.226903,-54.598097 -80.13399,34.133991 -22.5,-23.5 35.13399,-81.133991 -53.598099,-92.226901 25.131397,-71.131397 103.86089,-50.035894 21.470194,-84.795194 42.565698,-6.0656991 63.661204,72.663797 117.63399,1.366008 60,59 z"
       transform="translate(0,988.36218)"
       inkscape:transform-center-x="-17.462515"
       inkscape:transform-center-y="17.462515" />
    <g
       id="g6312"
       transform="matrix(0.31787698,0,0,0.31643552,-96.449406,683.46353)"
       style="stroke-width:1.99546015;stroke-miterlimit:2.66666675;stroke-dasharray:none">
      <g
         id="g6309"
         style="stroke-width:1.99546015;stroke-miterlimit:2.66666675;stroke-dasharray:none">
        <g
           id="g6316"
           style="stroke-width:1.99546015;stroke-miterlimit:2.66666675;stroke-dasharray:none" />
      </g>
    </g>
    <g
       transform="matrix(-1,0,0,1,71.266009,-2e-5)"
       id="g3819">
      <path
         sodipodi:nodetypes="ccc"
         inkscape:connector-curvature="0"
         id="path4124"
         d="m 39,1018.3622 -3,2 3,2"
         style="fill:none;stroke:#000000;stroke-width:2;stroke-linecap:square;stroke-linejoin:miter;stroke-miterlimit:4;stroke-opacity:1;stroke-dasharray:none" />
      <path
         inkscape:connector-curvature="0"
         id="path4126"
         d="m 36,1020.3622 12,0"
         style="fill:none;stroke:#000000;stroke-width:2;stroke-linecap:butt;stroke-linejoin:miter;stroke-miterlimit:4;stroke-opacity:1;stroke-dasharray:none" />
    </g>
    <g
       id="g5294"
       transform="translate(35.469739,-15.438304)">
      <g
         id="g3254"
         transform="translate(-37.20373,-0.06169862)">
        <rect
           style="fill:#ffffff;fill-opacity:1;stroke:none"
           id="rect5044-2"
           width="14.376812"
           height="20.962318"
           x="6.3999996"
           y="1027.3593" />
        <path
           style="fill:none;stroke:#808080;stroke-width:1px;stroke-linecap:butt;stroke-linejoin:miter;stroke-opacity:1"
           d="m 6,1037.3621 15,0"
           id="path3822-2"
           inkscape:connector-curvature="0" />
        <rect
           style="fill:none;stroke:#000000;stroke-width:2;stroke-linejoin:round;stroke-miterlimit:4;stroke-opacity:1;stroke-dasharray:none"
           id="rect3006-3"
           width="15"
           height="25"
           x="6"
           y="1023.3622" />
        <rect
           style="fill:#000000;fill-opacity:1;stroke:none"
           id="rect3802-53"
           width="15"
           height="5"
           x="6"
           y="1023.3622" />
      </g>
    </g>
    <g
       id="g5707"
       transform="translate(36.432717,0.43830187)">
      <path
         inkscape:connector-curvature="0"
         id="path5705"
         d="m 11.349159,1032.18 c -1.9946725,-0.191 -3.4073365,-0.527 -4.8146955,-1.1451 l -1.14746,-0.504 0,-10.6245 0,-10.6246 0.980049,-0.4216 c 2.413762,-1.0383 5.9799295,-1.4965 9.4727325,-1.2169 2.302055,0.1842 4.896775,0.8022 5.880713,1.4006 l 0.628961,0.3825 0,10.5549 0,10.555 -0.947902,0.4056 c -1.589947,0.6803 -3.057433,1.0329 -5.142487,1.2356 -2.203952,0.2143 -2.695178,0.2145 -4.909911,0 l 0,0 z"
         style="fill:#ffffff;fill-opacity:1;fill-rule:evenodd;stroke:#ffffff;stroke-width:1;stroke-linejoin:round;stroke-miterlimit:4;stroke-opacity:1;stroke-dasharray:none" />
      <g
         transform="matrix(1.1662085,0,0,1.1493648,-2.2234903,-152.56459)"
         id="g3016">
        <path
           style="fill:none;stroke:#000000;stroke-width:1.68588555;stroke-linecap:square;stroke-linejoin:miter;stroke-miterlimit:3.61904764;stroke-opacity:1;stroke-dasharray:none"
           d="m 5.6339259,1011.3699 0,17.5952 0,0 0,0 0,0 0,0"
           id="path6326"
           inkscape:connector-curvature="0" />
        <path
           style="fill:none;stroke:#000000;stroke-width:1.68588555;stroke-linecap:square;stroke-linejoin:miter;stroke-miterlimit:3.61904764;stroke-opacity:1;stroke-dasharray:none"
           d="m 21.902797,1011.3699 0,17.5952 0,0 0,0 0,0 0,0"
           id="path6326-7"
           inkscape:connector-curvature="0" />
        <path
           style="fill:none;stroke:#000000;stroke-width:1.68588555;stroke-linecap:round;stroke-linejoin:miter;stroke-miterlimit:3.61904764;stroke-opacity:1;stroke-dasharray:none"
           d="m 5.6291118,1029.8132 c 0,0 2.1101757,2.0339 8.1392512,2.0339 6.029072,0 8.139248,-2.0339 8.139248,-2.0339"
           id="path6401"
           inkscape:connector-curvature="0"
           sodipodi:nodetypes="czc" />
        <path
           style="fill:none;stroke:#000000;stroke-width:1.68588555;stroke-linecap:round;stroke-linejoin:miter;stroke-miterlimit:3.61904764;stroke-opacity:1;stroke-dasharray:none"
           d="m 5.6291117,1023.6867 c 0,0 2.1101757,2.0338 8.1392513,2.0338 6.029072,0 8.139248,-2.0338 8.139248,-2.0338"
           id="path6401-8"
           inkscape:connector-curvature="0"
           sodipodi:nodetypes="czc" />
        <path
           style="fill:none;stroke:#000000;stroke-width:1.68588555;stroke-linecap:round;stroke-linejoin:miter;stroke-miterlimit:3.61904764;stroke-opacity:1;stroke-dasharray:none"
           d="m 5.6291118,1017.5602 c 0,0 2.1101757,2.0339 8.1392512,2.0339 6.029072,0 8.139248,-2.0339 8.139248,-2.0339"
           id="path6401-1"
           inkscape:connector-curvature="0"
           sodipodi:nodetypes="czc" />
        <path
           style="fill:none;stroke:#000000;stroke-width:1.68588555;stroke-linecap:round;stroke-linejoin:miter;stroke-miterlimit:3.61904764;stroke-opacity:1;stroke-dasharray:none"
           d="m 5.6291118,1011.4337 c 0,0 2.1101757,2.034 8.1392512,2.034 6.029072,0 8.139248,-2.034 8.139248,-2.034"
           id="path6401-5"
           inkscape:connector-curvature="0"
           sodipodi:nodetypes="czc" />
        <path
           style="fill:none;stroke:#000000;stroke-width:1.68588555;stroke-linecap:round;stroke-linejoin:miter;stroke-miterlimit:3.61904764;stroke-opacity:1;stroke-dasharray:none"
           d="m 5.6291119,1010.4242 c 0,0 2.1101757,-2.034 8.1392511,-2.034 6.029072,0 8.139248,2.034 8.139248,2.034"
           id="path6401-5-8"
           inkscape:connector-curvature="0"
           sodipodi:nodetypes="czc" />
      </g>
    </g>
  </g>
</svg>
