<?xml version="1.0" encoding="UTF-8" standalone="no"?>
<!-- Created with Inkscape (http://www.inkscape.org/) -->

<svg
   xmlns:dc="http://purl.org/dc/elements/1.1/"
   xmlns:cc="http://creativecommons.org/ns#"
   xmlns:rdf="http://www.w3.org/1999/02/22-rdf-syntax-ns#"
   xmlns:svg="http://www.w3.org/2000/svg"
   xmlns="http://www.w3.org/2000/svg"
   xmlns:sodipodi="http://sodipodi.sourceforge.net/DTD/sodipodi-0.dtd"
   xmlns:inkscape="http://www.inkscape.org/namespaces/inkscape"
   width="64"
   height="64"
   id="svg2"
   version="1.1"
   inkscape:version="0.91 r13725"
   sodipodi:docname="image_filtering.svg">
  <defs
     id="defs4">
    <marker
       inkscape:stockid="Arrow2Mend"
       orient="auto"
       refY="0.0"
       refX="0.0"
       id="Arrow2Mend"
       style="overflow:visible;"
       inkscape:isstock="true">
      <path
         id="path4839"
         style="fill-rule:evenodd;stroke-width:0.625;stroke-linejoin:round;stroke:#000000;stroke-opacity:1;fill:#000000;fill-opacity:1"
         d="M 8.7185878,4.0337352 L -2.2072895,0.016013256 L 8.7185884,-4.0017078 C 6.9730900,-1.6296469 6.9831476,1.6157441 8.7185878,4.0337352 z "
         transform="scale(0.6) rotate(180) translate(0,0)" />
    </marker>
    <marker
       inkscape:stockid="Arrow1Mend"
       orient="auto"
       refY="0.0"
       refX="0.0"
       id="Arrow1Mend"
       style="overflow:visible;"
       inkscape:isstock="true">
      <path
         id="path4821"
         d="M 0.0,0.0 L 5.0,-5.0 L -12.5,0.0 L 5.0,5.0 L 0.0,0.0 z "
         style="fill-rule:evenodd;stroke:#000000;stroke-width:1pt;stroke-opacity:1;fill:#000000;fill-opacity:1"
         transform="scale(0.4) rotate(180) translate(10,0)" />
    </marker>
    <marker
       inkscape:stockid="Arrow1Lend"
       orient="auto"
       refY="0.0"
       refX="0.0"
       id="Arrow1Lend"
       style="overflow:visible;"
       inkscape:isstock="true">
      <path
         id="path4815"
         d="M 0.0,0.0 L 5.0,-5.0 L -12.5,0.0 L 5.0,5.0 L 0.0,0.0 z "
         style="fill-rule:evenodd;stroke:#000000;stroke-width:1pt;stroke-opacity:1;fill:#000000;fill-opacity:1"
         transform="scale(0.8) rotate(180) translate(12.5,0)" />
    </marker>
    <linearGradient
       id="linearGradient3755">
      <stop
         style="stop-color:#ffffff;stop-opacity:1;"
         offset="0"
         id="stop3757" />
      <stop
         style="stop-color:#ffffff;stop-opacity:0;"
         offset="1"
         id="stop3759" />
    </linearGradient>
  </defs>
  <sodipodi:namedview
     id="base"
     pagecolor="#ffffff"
     bordercolor="#666666"
     borderopacity="1.0"
     inkscape:pageopacity="0.0"
     inkscape:pageshadow="2"
     inkscape:zoom="3.8798199"
     inkscape:cx="109.20391"
     inkscape:cy="-21.996559"
     inkscape:document-units="px"
     inkscape:current-layer="layer1"
     showgrid="false"
     inkscape:window-width="1920"
     inkscape:window-height="1015"
     inkscape:window-x="0"
     inkscape:window-y="0"
     inkscape:window-maximized="1"
     fit-margin-top="0"
     fit-margin-left="0"
     fit-margin-right="0"
     fit-margin-bottom="0" />
  <metadata
     id="metadata7">
    <rdf:RDF>
      <cc:Work
         rdf:about="">
        <dc:format>image/svg+xml</dc:format>
        <dc:type
           rdf:resource="http://purl.org/dc/dcmitype/StillImage" />
        <dc:title />
      </cc:Work>
    </rdf:RDF>
  </metadata>
  <g
     inkscape:label="Layer 1"
     inkscape:groupmode="layer"
     id="layer1"
     transform="translate(-89.350236,-333.62091)">
    <path
       style="opacity:0;fill:#000000;stroke:#a50000;stroke-opacity:1"
       id="path3202"
       d="m 96.89617,360.38306 c 0.20974,0.25256 0.49868,0.40501 0.78406,0.55504 0.54544,0.23785 1.06972,0.51681 1.59481,0.79563 0.56052,0.30962 1.12489,0.61182 1.69663,0.9002 0.37668,0.19706 0.7709,0.36016 1.1404,0.5709 0.13272,0.0636 0.255,0.14113 0.37591,0.22368 0.0456,0.0285 0.0802,0.0694 0.11567,0.10892 0,0 -0.86553,0.52215 -0.86553,0.52215 l 0,0 c -0.0292,-0.0349 -0.0617,-0.0656 -0.10097,-0.0894 -0.11475,-0.0834 -0.23876,-0.15088 -0.36067,-0.22312 -0.36025,-0.21426 -0.74205,-0.38895 -1.11398,-0.58146 -0.56949,-0.29168 -1.13213,-0.59611 -1.69238,-0.90517 -0.0346,-0.0184 -0.56484,-0.30149 -0.59904,-0.31867 -0.33196,-0.16672 -0.67891,-0.30057 -1.01152,-0.46576 -0.30003,-0.15582 -0.59641,-0.32104 -0.82644,-0.57475 0,0 0.86305,-0.51817 0.86305,-0.51817 z"
       inkscape:connector-curvature="0" />
    <rect
       style="opacity:1;fill:#000000;stroke:#000000;stroke-width:0.66611797;stroke-opacity:1"
       id="rect3206-3"
       width="4.1982889"
       height="3.9271026"
       x="96.867332"
       y="362.56213" />
    <rect
       style="opacity:1;fill:#ffffff;fill-opacity:1;stroke:#000000;stroke-width:1;stroke-miterlimit:4;stroke-dasharray:none;stroke-opacity:1"
       id="rect3206-6"
       width="11.152259"
       height="10.203108"
       x="95.085258"
       y="360.91565" />
    <rect
       style="opacity:0.5;fill:#000000;stroke:#000000;stroke-width:0.67696428;stroke-opacity:1"
       id="rect3206-7-5"
       width="4.4247308"
       height="3.8484595"
       x="100.97445"
       y="366.39807" />
    <rect
       style="opacity:0.5;fill:#000000;stroke:#000000;stroke-width:0.70435387;stroke-opacity:1"
       id="rect3206-7-5-5"
       width="4.4312396"
       height="4.1600528"
       x="95.818649"
       y="361.5304" />
    <path
       style="opacity:0;fill:#000000;stroke:#a50000;stroke-opacity:1"
       id="path3202-3"
       d="m 139.16097,360.568 c 0.20974,0.25256 0.49868,0.40501 0.78406,0.55504 0.54544,0.23785 1.06972,0.51681 1.59481,0.79563 0.56052,0.30962 1.12489,0.61182 1.69663,0.9002 0.37668,0.19706 0.7709,0.36016 1.1404,0.5709 0.13272,0.0636 0.255,0.14113 0.37591,0.22368 0.0456,0.0285 0.0802,0.0694 0.11567,0.10892 0,0 -0.86553,0.52215 -0.86553,0.52215 l 0,0 c -0.0292,-0.0349 -0.0617,-0.0656 -0.10097,-0.0894 -0.11475,-0.0834 -0.23876,-0.15088 -0.36067,-0.22312 -0.36025,-0.21426 -0.74205,-0.38895 -1.11398,-0.58146 -0.56949,-0.29168 -1.13213,-0.59611 -1.69238,-0.90517 -0.0346,-0.0184 -0.56484,-0.30149 -0.59904,-0.31867 -0.33196,-0.16672 -0.67891,-0.30057 -1.01152,-0.46576 -0.30003,-0.15582 -0.59641,-0.32104 -0.82644,-0.57475 0,0 0.86305,-0.51817 0.86305,-0.51817 z"
       inkscape:connector-curvature="0" />
    <rect
       style="opacity:1;fill:#000000;stroke:#000000;stroke-width:0.66611797;stroke-opacity:1"
       id="rect3206-3-6"
       width="4.1982889"
       height="3.9271026"
       x="139.13214"
       y="362.74707" />
    <rect
       style="opacity:1;fill:#ffffff;fill-opacity:1;stroke:#000000;stroke-width:1;stroke-miterlimit:4;stroke-dasharray:none;stroke-opacity:1"
       id="rect3206-6-7"
       width="11.152259"
       height="10.203108"
       x="137.35007"
       y="361.10059" />
    <rect
       style="opacity:0.5;fill:#000000;stroke:#000000;stroke-width:0.67696428;stroke-opacity:1"
       id="rect3206-7-5-53"
       width="4.4247308"
       height="3.8484595"
       x="143.23926"
       y="366.58301" />
    <rect
       style="opacity:0.5;fill:#000000;stroke:#000000;stroke-width:0.70435387;stroke-opacity:1"
       id="rect3206-7-5-5-5"
       width="4.4312396"
       height="4.1600528"
       x="138.08344"
       y="361.71533" />
    <path
       style="fill:none;fill-rule:evenodd;stroke:#000000;stroke-width:1.29999995;stroke-linecap:butt;stroke-linejoin:miter;stroke-miterlimit:4;stroke-dasharray:none;stroke-opacity:1;marker-mid:url(#Arrow2Mend)"
       d="m 110.22749,365.91841 c 22.42372,0 22.68147,0 22.68147,0 l 0,0"
       id="path4806"
       inkscape:connector-curvature="0" />
  </g>
</svg>
