<?xml version="1.0" encoding="UTF-8" standalone="no"?>
<svg
   xmlns:dc="http://purl.org/dc/elements/1.1/"
   xmlns:cc="http://creativecommons.org/ns#"
   xmlns:rdf="http://www.w3.org/1999/02/22-rdf-syntax-ns#"
   xmlns:svg="http://www.w3.org/2000/svg"
   xmlns="http://www.w3.org/2000/svg"
   xmlns:sodipodi="http://sodipodi.sourceforge.net/DTD/sodipodi-0.dtd"
   xmlns:inkscape="http://www.inkscape.org/namespaces/inkscape"
   width="6"
   height="16"
   id="svg4136"
   version="1.1"
   inkscape:version="0.91 r13725"
   sodipodi:docname="left_brace.svg">
  <metadata
     id="metadata4146">
    <rdf:RDF>
      <cc:Work
         rdf:about="">
        <dc:format>image/svg+xml</dc:format>
        <dc:type
           rdf:resource="http://purl.org/dc/dcmitype/StillImage" />
        <dc:title></dc:title>
      </cc:Work>
    </rdf:RDF>
  </metadata>
  <defs
     id="defs4144" />
  <sodipodi:namedview
     pagecolor="#ffffff"
     bordercolor="#666666"
     borderopacity="1"
     objecttolerance="10"
     gridtolerance="10"
     guidetolerance="10"
     inkscape:pageopacity="0"
     inkscape:pageshadow="2"
     inkscape:window-width="1636"
     inkscape:window-height="1006"
     id="namedview4142"
     showgrid="false"
     inkscape:zoom="39.734323"
     inkscape:cx="2.279233"
     inkscape:cy="7.4135053"
     inkscape:window-x="-8"
     inkscape:window-y="-8"
     inkscape:window-maximized="1"
     inkscape:current-layer="svg4136" />
  <g
     transform="scale(0.76344332,0.98239115)"
     style="font-style:normal;font-variant:normal;font-weight:normal;font-stretch:normal;font-size:17.12286949px;line-height:125%;font-family:sans-serif;-inkscape-font-specification:'sans-serif, Normal';text-align:start;letter-spacing:0px;word-spacing:0px;writing-mode:lr-tb;text-anchor:start;fill:#000000;fill-opacity:1;stroke:none;stroke-width:1px;stroke-linecap:butt;stroke-linejoin:miter;stroke-opacity:1"
     id="text5277">
    <path
       d="m 7.8591296,16.286791 -1.2541164,0 q -1.496579,0 -2.4329859,-0.836077 -0.9280461,-0.827717 -0.9280461,-2.399543 l 0,-1.245756 q 0,-1.412971 -0.6939444,-2.2072447 Q 1.8560923,8.7955358 0.42639962,8.7955358 l -0.42639958367842,0 0,-1.304281 0.42639958367842,0 q 1.42969268,0 2.12363718,-0.7942738 0.6939444,-0.8026345 0.6939444,-2.2156057 l 0,-1.2457556 q 0,-1.5718259 0.9280461,-2.39954274 Q 5.1084342,-6.519258e-7 6.6050132,-6.519258e-7 l 1.2541164,0 0,1.1537871519258 -0.9531285,0 q -1.1370655,0 -1.6554337,0.5267288 -0.5100073,0.5267289 -0.5100073,1.6972376 l 0,1.4631358 q 0,1.1621479 -0.6437798,1.9564216 -0.6437797,0.785913 -1.7892061,1.2457557 l 0,0.2006586 q 1.1454264,0.4598427 1.7892061,1.2541164 0.6437798,0.785913 0.6437798,1.948061 l 0,1.463136 q 0,1.170508 0.5100073,1.697237 0.5183682,0.526729 1.6554337,0.526729 l 0.9531285,0 0,1.153787 z"
       id="path5282"
       inkscape:connector-curvature="0" />
  </g>
</svg>
