<?xml version="1.0" encoding="UTF-8" standalone="no"?>
<svg
   xmlns="http://www.w3.org/2000/svg"
   width="12"
   height="16">
  <g
     transform="matrix(0.66700345,0,0,0.75105729,0.65494969,-774.87723)">
    <g
       transform="scale(1.1616556,0.86084032)"
       style="font-style:normal;font-weight:normal;font-size:25.0240593px;line-height:125%;font-family:sans-serif;letter-spacing:0px;word-spacing:0px;fill:#000000;fill-opacity:1;stroke:none;stroke-width:1px;stroke-linecap:butt;stroke-linejoin:miter;stroke-opacity:1">
      <path
         d="m 12.060802,1206.2343 q 0,1.1974 -0.427658,2.1383 -0.427657,0.9286 -1.124127,1.6495 -0.6842519,0.6965 -1.5762228,1.3074 -0.8919708,0.611 -1.8939107,1.1853 l 0,2.7492 -2.1871614,0 0,-3.7267 q 0.7942206,-0.4521 1.710629,-0.9898 0.9286272,-0.5376 1.5151286,-1.0874 0.7086892,-0.6354 1.0996901,-1.3075 0.3910009,-0.6842 0.3910009,-1.735 0,-1.3807 -0.9408459,-2.0528 -0.9286272,-0.6842 -2.4070995,-0.6842 -1.3196281,0 -2.5048497,0.4154 -1.1730028,0.4155 -1.8572544,0.8431 l -0.1221878,0 0,-2.4926 q 0.8553145,-0.3299 2.1627239,-0.5865 1.3196281,-0.2688 2.4926309,-0.2688 2.6270375,0 4.1421658,1.2829 1.527348,1.2708 1.527348,3.3602 z m -4.826418,13.9172 -2.492631,0 0,-2.5782 2.492631,0 0,2.5782 z"/>
    </g>
  </g>
</svg>
