<?xml version="1.0" encoding="UTF-8" standalone="no"?>
<!-- Created with Inkscape (http://www.inkscape.org/) -->

<svg
   xmlns:dc="http://purl.org/dc/elements/1.1/"
   xmlns:cc="http://creativecommons.org/ns#"
   xmlns:rdf="http://www.w3.org/1999/02/22-rdf-syntax-ns#"
   xmlns:svg="http://www.w3.org/2000/svg"
   xmlns="http://www.w3.org/2000/svg"
   xmlns:sodipodi="http://sodipodi.sourceforge.net/DTD/sodipodi-0.dtd"
   xmlns:inkscape="http://www.inkscape.org/namespaces/inkscape"
   width="64"
   height="64"
   id="svg3019"
   version="1.1"
   inkscape:version="0.48.4 r9939"
   sodipodi:docname="datasource.svg">
  <defs
     id="defs3021" />
  <sodipodi:namedview
     id="base"
     pagecolor="#ffffff"
     bordercolor="#666666"
     borderopacity="1.0"
     inkscape:pageopacity="0.0"
     inkscape:pageshadow="2"
     inkscape:zoom="11.313708"
     inkscape:cx="49.952139"
     inkscape:cy="31.354485"
     inkscape:document-units="px"
     inkscape:current-layer="layer1"
     showgrid="true"
     inkscape:window-width="1704"
     inkscape:window-height="1063"
     inkscape:window-x="119"
     inkscape:window-y="41"
     inkscape:window-maximized="0"
     objecttolerance="10000"
     guidetolerance="10000"
     inkscape:snap-global="true"
     inkscape:snap-to-guides="true"
     inkscape:snap-grids="true">
    <inkscape:grid
       type="xygrid"
       id="grid6241"
       empspacing="5"
       visible="true"
       enabled="true"
       snapvisiblegridlinesonly="false" />
  </sodipodi:namedview>
  <metadata
     id="metadata3024">
    <rdf:RDF>
      <cc:Work
         rdf:about="">
        <dc:format>image/svg+xml</dc:format>
        <dc:type
           rdf:resource="http://purl.org/dc/dcmitype/StillImage" />
        <dc:title></dc:title>
      </cc:Work>
    </rdf:RDF>
  </metadata>
  <g
     inkscape:label="Layer 1"
     inkscape:groupmode="layer"
     id="layer1"
     transform="translate(0,-988.36218)">
    <g
       id="g6312"
       transform="matrix(1.0045553,0,0,1,-63.25598,21.717509)"
       style="stroke-width:1.99546015;stroke-miterlimit:2.66666675;stroke-dasharray:none">
      <g
         id="g6309"
         style="stroke-width:1.99546015;stroke-miterlimit:2.66666675;stroke-dasharray:none">
        <g
           id="g6316"
           style="stroke-width:1.99546015;stroke-miterlimit:2.66666675;stroke-dasharray:none" />
      </g>
    </g>
    <path
       style="fill:none;stroke:#000000;stroke-width:1.98908436;stroke-linecap:square;stroke-linejoin:miter;stroke-miterlimit:2.66666675;stroke-opacity:1;stroke-dasharray:none"
       d="m 6,998.85171 0,43.52179 0,0 0,0 0,0 0,0"
       id="path6326"
       inkscape:connector-curvature="0" />
    <path
       style="fill:none;stroke:#000000;stroke-width:1.98908436;stroke-linecap:square;stroke-linejoin:miter;stroke-miterlimit:2.66666675;stroke-opacity:1;stroke-dasharray:none"
       d="m 58,998.85171 0,43.52179 0,0 0,0 0,0 0,0"
       id="path6326-7"
       inkscape:connector-curvature="0" />
    <path
       style="fill:none;stroke:#000000;stroke-width:1.96922636;stroke-linecap:round;stroke-linejoin:miter;stroke-miterlimit:4;stroke-opacity:1;stroke-dasharray:none"
       d="m 5.9846132,1043.3468 c 0,0 6.7447298,5.0308 26.0153868,5.0308 19.270657,0 26.015387,-5.0308 26.015387,-5.0308"
       id="path6401"
       inkscape:connector-curvature="0"
       sodipodi:nodetypes="czc" />
    <path
       style="fill:none;stroke:#000000;stroke-width:1.96922636;stroke-linecap:round;stroke-linejoin:miter;stroke-miterlimit:4;stroke-opacity:1;stroke-dasharray:none"
       d="m 5.9846132,1028.3468 c 0,0 6.7447298,5.0308 26.0153868,5.0308 19.270657,0 26.015387,-5.0308 26.015387,-5.0308"
       id="path6401-8"
       inkscape:connector-curvature="0"
       sodipodi:nodetypes="czc" />
    <path
       style="fill:none;stroke:#000000;stroke-width:1.96922636;stroke-linecap:round;stroke-linejoin:miter;stroke-miterlimit:4;stroke-opacity:1;stroke-dasharray:none"
       d="m 5.9846132,1013.3468 c 0,0 6.7447298,5.0308 26.0153868,5.0308 19.270657,0 26.015387,-5.0308 26.015387,-5.0308"
       id="path6401-1"
       inkscape:connector-curvature="0"
       sodipodi:nodetypes="czc" />
    <path
       style="fill:none;stroke:#000000;stroke-width:1.96922636;stroke-linecap:round;stroke-linejoin:miter;stroke-miterlimit:4;stroke-opacity:1;stroke-dasharray:none"
       d="m 5.9846132,998.34667 c 0,0 6.7447298,5.03093 26.0153868,5.03093 19.270657,0 26.015387,-5.03093 26.015387,-5.03093"
       id="path6401-5"
       inkscape:connector-curvature="0"
       sodipodi:nodetypes="czc" />
    <path
       style="fill:none;stroke:#000000;stroke-width:1.96922636;stroke-linecap:round;stroke-linejoin:miter;stroke-miterlimit:4;stroke-opacity:1;stroke-dasharray:none"
       d="m 5.9846132,997.87757 c 0,0 6.7447298,-5.0309 26.0153868,-5.0309 19.270657,0 26.015387,5.0309 26.015387,5.0309"
       id="path6401-5-8"
       inkscape:connector-curvature="0"
       sodipodi:nodetypes="czc" />
    <path
       style="fill:#ffffff;fill-opacity:1;stroke:none"
       d="M 27.024201,13.865001 C 19.329803,13.449402 12.707377,12.122115 8.4433778,10.140976 7.5023216,9.7037429 7.4771999,9.7497924 9.0099132,9.1024826 12.78546,7.5079584 17.878981,6.389879 23.709638,5.8757442 28.531222,5.4505874 35.027416,5.4330475 39.840512,5.8321905 46.154738,6.3558199 51.823551,7.631248 55.566872,9.3704693 l 0.817313,0.3797405 -0.338982,0.1739219 c -1.213194,0.6224533 -3.690885,1.4953723 -5.81906,2.0501193 -3.942895,1.027788 -8.036267,1.60407 -13.479223,1.897663 -1.865804,0.100641 -7.809702,0.09642 -9.722719,-0.0069 l 0,0 z"
       id="path6453"
       inkscape:connector-curvature="0"
       transform="translate(0,988.36218)" />
    <path
       style="fill:#ffffff;fill-opacity:1;stroke:none"
       d="M 27.64292,28.88907 C 19.569428,28.540612 12.455375,27.108389 8.0428037,24.943114 l -0.9943689,-0.487943 0,-6.308137 c 0,-3.469475 0.022134,-6.308136 0.049186,-6.308136 0.027052,0 0.5095234,0.200425 1.0721581,0.445389 4.4556341,1.93993 10.9217951,3.19707 18.6334521,3.622685 2.168289,0.11967 8.269887,0.119361 10.429825,-5.3e-4 6.505662,-0.361104 11.681078,-1.228636 16.102698,-2.699225 0.932467,-0.31013 2.135915,-0.760442 2.674329,-1.000692 l 0.978933,-0.43682 -0.02268,6.332266 -0.02268,6.332266 -0.707107,0.373283 c -2.415888,1.275352 -6.574581,2.49196 -10.930058,3.197544 -5.068804,0.821142 -11.575398,1.146777 -17.663572,0.884006 z"
       id="path6455"
       inkscape:connector-curvature="0"
       transform="translate(0,988.36218)" />
    <path
       style="fill:#ffffff;fill-opacity:1;stroke:none"
       d="M 28.64405,43.916314 C 21.847151,43.708426 15.784747,42.762167 11.071755,41.173518 9.7013961,40.711599 8.1664161,40.063791 7.4566169,39.647821 l -0.4081821,-0.239211 0,-6.311012 0,-6.311012 0.6582006,0.299951 c 1.0896423,0.496566 2.9807856,1.177479 4.4060016,1.586396 5.453865,1.5648 12.066536,2.343275 19.905506,2.343371 7.143436,8.7e-5 12.877378,-0.605534 18.384776,-1.941805 1.456249,-0.353332 4.503474,-1.367123 5.656855,-1.881995 l 0.883883,-0.394568 0.02287,6.242772 c 0.01258,3.433524 0.0067,6.28503 -0.01296,6.33668 -0.0508,0.133119 -1.67832,0.918042 -2.899079,1.398171 -1.321267,0.519658 -3.947543,1.277651 -5.823079,1.680651 -3.946135,0.847912 -8.072602,1.30439 -13.252257,1.465989 -3.02232,0.09429 -3.060983,0.09426 -6.335103,-0.0059 l 0,10e-7 z"
       id="path6457"
       inkscape:connector-curvature="0"
       transform="translate(0,988.36218)" />
    <path
       style="fill:#ffffff;fill-opacity:1;stroke:none"
       d="M 26.847425,58.853336 C 18.863429,58.413784 12.010373,56.970191 7.8439299,54.850261 l -0.751301,-0.38227 -0.022682,-6.332722 c -0.012475,-3.482997 -0.00809,-6.332721 0.00974,-6.332721 0.01783,0 0.3693136,0.155646 0.7810745,0.34588 6.0347775,2.788075 16.8597455,4.254734 28.1027965,3.807607 6.602529,-0.262578 12.044883,-1.085964 16.737463,-2.532249 1.247956,-0.384628 3.288623,-1.155291 3.910016,-1.476625 0.153808,-0.07954 0.301514,-0.144613 0.328235,-0.144613 0.02672,0 0.04858,2.839868 0.04858,6.310818 l 0,6.310819 -0.773398,0.397572 c -4.188432,2.153102 -11.01797,3.582691 -19.290757,4.038027 -1.868249,0.102829 -8.164559,0.0988 -10.076271,-0.0065 l 0,4e-6 z"
       id="path6459"
       inkscape:connector-curvature="0"
       transform="translate(0,988.36218)" />
  </g>
</svg>
