<?xml version="1.0" encoding="UTF-8" standalone="no"?>
<svg
   xmlns:dc="http://purl.org/dc/elements/1.1/"
   xmlns:cc="http://creativecommons.org/ns#"
   xmlns:rdf="http://www.w3.org/1999/02/22-rdf-syntax-ns#"
   xmlns:svg="http://www.w3.org/2000/svg"
   xmlns="http://www.w3.org/2000/svg"
   xmlns:sodipodi="http://sodipodi.sourceforge.net/DTD/sodipodi-0.dtd"
   xmlns:inkscape="http://www.inkscape.org/namespaces/inkscape"
   version="1.1"
   id="Capa_1"
   x="0px"
   y="0px"
   width="16"
   height="16"
   viewBox="0 0 16 16"
   xml:space="preserve"
   inkscape:version="0.91 r13725"
   sodipodi:docname="edit-trash-symbolic.svg"><metadata
     id="metadata19"><rdf:RDF><cc:Work
         rdf:about=""><dc:format>image/svg+xml</dc:format><dc:type
           rdf:resource="http://purl.org/dc/dcmitype/StillImage" /><dc:title></dc:title></cc:Work></rdf:RDF></metadata><defs
     id="defs17" /><sodipodi:namedview
     pagecolor="#ffffff"
     bordercolor="#505050ff"
     borderopacity="1"
     objecttolerance="10"
     gridtolerance="10"
     guidetolerance="10"
     inkscape:pageopacity="0"
     inkscape:pageshadow="2"
     inkscape:window-width="1724"
     inkscape:window-height="1254"
     id="namedview15"
     showgrid="false"
     fit-margin-top="0"
     fit-margin-left="0"
     fit-margin-right="0"
     fit-margin-bottom="0"
     inkscape:zoom="36.752734"
     inkscape:cx="7.5363795"
     inkscape:cy="4.8916786"
     inkscape:window-x="2057"
     inkscape:window-y="21"
     inkscape:window-maximized="0"
     inkscape:current-layer="Capa_1" /><g
     id="g5414"><path
       style="fill:#505050;fill-opacity:1;stroke-width:0.2;stroke-miterlimit:4;stroke-dasharray:none"
       inkscape:connector-curvature="0"
       id="path7"
       d="m 14.306679,3.4355579 c -0.05438,-0.054318 -0.123988,-0.08162 -0.208596,-0.08162 l -2.804076,0 -0.635196,-1.5153153 C 10.568101,1.6147389 10.404733,1.4241645 10.168931,1.2668675 9.9329054,1.1096021 9.6938292,1.0310014 9.4519242,1.0310014 l -2.903845,0 c -0.241905,0 -0.4809177,0.078601 -0.7168474,0.2358661 -0.2359614,0.157297 -0.3992973,0.3478396 -0.4900713,0.5717551 l -0.6351952,1.515315 -2.8039492,0 c -0.084767,0 -0.1542458,0.027302 -0.2087229,0.08162 -0.054318,0.054445 -0.08162,0.1240514 -0.08162,0.2087229 l 0,0.5808134 c 0,0.084671 0.027175,0.1542776 0.08162,0.2086275 0.054477,0.054414 0.1240831,0.08162 0.2087229,0.08162 l 0.8710613,0 0,8.6387826 c 0,0.502276 0.1421681,0.930179 0.4264724,1.283994 0.2843678,0.354037 0.6261687,0.530881 1.025466,0.530881 l 7.5499402,0 c 0.399393,0 0.741162,-0.182946 1.025498,-0.548839 0.284304,-0.366147 0.426377,-0.80012 0.426377,-1.302206 l 0,-8.6026125 0.87122,0 c 0.08461,0 0.154246,-0.027207 0.208596,-0.08162 0.05429,-0.054318 0.08168,-0.123956 0.08168,-0.2086275 l 0,-0.5808135 c 6.3e-5,-0.084672 -0.02737,-0.1542776 -0.08165,-0.2087229 z M 6.4120136,2.2921111 c 0.042304,-0.054413 0.093762,-0.087786 0.1542458,-0.0998 l 2.8765429,0 c 0.060484,0.012109 0.1120372,0.04545 0.1542776,0.0998 l 0.4357221,1.0616993 -4.065441,0 L 6.4120136,2.292111 Z M 12.065426,13.118019 c 0,0.133046 -0.0211,0.255603 -0.06353,0.36745 -0.0424,0.111815 -0.08636,0.193498 -0.131616,0.244924 -0.04548,0.05155 -0.07701,0.07714 -0.09529,0.07714 l -7.5499404,0 c -0.018148,0 -0.049741,-0.02559 -0.095224,-0.07714 -0.045419,-0.05143 -0.089312,-0.133109 -0.1316794,-0.244924 -0.042304,-0.111847 -0.063472,-0.234531 -0.063472,-0.36745 l 0,-8.602677 8.1307228,0 0,8.602677 z" /><path
       sodipodi:nodetypes="sscsscsscsscs"
       style="fill:#505050;fill-opacity:1"
       inkscape:connector-curvature="0"
       id="path9"
       d="m 5.3866428,12.065378 0.5807182,0 c 0.084767,0 0.1544047,-0.02717 0.2087229,-0.08159 0.054318,-0.0546 0.08162,-0.123988 0.08162,-0.208818 l 0,-5.2269406 c 0,-0.08464 -0.027302,-0.1542458 -0.08162,-0.2087229 C 6.1216069,6.2849885 6.0521596,6.2577815 5.967361,6.2577815 l -0.5807182,0 c -0.084767,0 -0.1542776,0.027175 -0.2087229,0.081525 -0.054382,0.054477 -0.08162,0.1240831 -0.08162,0.2087229 l 0,5.2269406 c 0,0.08483 0.027143,0.154246 0.08162,0.208818 0.054445,0.05438 0.1239561,0.08159 0.2087229,0.08159 z" /><path
       style="fill:#505050;fill-opacity:1"
       inkscape:connector-curvature="0"
       id="path11"
       d="m 7.7096744,12.065378 0.5807181,0 c 0.084735,0 0.1543412,-0.02717 0.2086276,-0.08159 0.054604,-0.0546 0.081652,-0.123988 0.081652,-0.208818 l 0,-5.2269406 c 0,-0.08464 -0.02708,-0.1542458 -0.081652,-0.2087229 -0.054286,-0.054317 -0.1238925,-0.081524 -0.2086276,-0.081524 l -0.5807181,0 c -0.084671,0 -0.1542776,0.027175 -0.2087229,0.081525 -0.054477,0.054477 -0.08162,0.1240831 -0.08162,0.2087229 l 0,5.2269406 c 0,0.08483 0.027143,0.154246 0.08162,0.208818 0.054413,0.05438 0.1240514,0.08159 0.2087229,0.08159 z" /><path
       style="fill:#505050;fill-opacity:1"
       inkscape:connector-curvature="0"
       id="path13"
       d="m 10.03277,12.065378 0.580623,0 c 0.08483,0 0.154436,-0.02717 0.208818,-0.08159 0.05438,-0.0546 0.08143,-0.123988 0.08143,-0.208818 l 0,-5.2269406 c 0,-0.08464 -0.02708,-0.1542458 -0.08143,-0.2087229 -0.05438,-0.054318 -0.123988,-0.081525 -0.208818,-0.081525 l -0.580623,0 c -0.084862,0 -0.1542463,0.027175 -0.2088505,0.081525 -0.054382,0.054478 -0.081557,0.1240841 -0.081557,0.2087239 l 0,5.2269406 c 0,0.08483 0.027175,0.154246 0.081557,0.208818 0.054604,0.05438 0.1239878,0.08159 0.2088505,0.08159 z" /></g></svg>