<?xml version="1.0" encoding="UTF-8" standalone="no"?>
<!-- Created with Inkscape (http://www.inkscape.org/) -->

<svg
   xmlns:dc="http://purl.org/dc/elements/1.1/"
   xmlns:cc="http://creativecommons.org/ns#"
   xmlns:rdf="http://www.w3.org/1999/02/22-rdf-syntax-ns#"
   xmlns:svg="http://www.w3.org/2000/svg"
   xmlns="http://www.w3.org/2000/svg"
   xmlns:sodipodi="http://sodipodi.sourceforge.net/DTD/sodipodi-0.dtd"
   xmlns:inkscape="http://www.inkscape.org/namespaces/inkscape"
   width="64"
   height="64"
   id="svg6192"
   version="1.1"
   inkscape:version="0.92.4 (5da689c313, 2019-01-14)"
   sodipodi:docname="export-selected-plot-points.svg">
  <defs
     id="defs6194">
    <inkscape:path-effect
       effect="bspline"
       id="path-effect2317"
       is_visible="true"
       weight="33.333333"
       steps="2"
       helper_size="0"
       apply_no_weight="true"
       apply_with_weight="true"
       only_selected="false" />
  </defs>
  <sodipodi:namedview
     id="base"
     pagecolor="#ffffff"
     bordercolor="#666666"
     borderopacity="1.0"
     inkscape:pageopacity="0.0"
     inkscape:pageshadow="2"
     inkscape:zoom="2.1185582"
     inkscape:cx="2.0406029"
     inkscape:cy="14.005314"
     inkscape:document-units="px"
     inkscape:current-layer="layer1"
     showgrid="true"
     inkscape:window-width="2560"
     inkscape:window-height="1387"
     inkscape:window-x="0"
     inkscape:window-y="25"
     inkscape:window-maximized="1">
    <inkscape:grid
       type="xygrid"
       id="grid7402"
       empspacing="5"
       visible="true"
       enabled="true"
       snapvisiblegridlinesonly="true" />
  </sodipodi:namedview>
  <metadata
     id="metadata6197">
    <rdf:RDF>
      <cc:Work
         rdf:about="">
        <dc:format>image/svg+xml</dc:format>
        <dc:type
           rdf:resource="http://purl.org/dc/dcmitype/StillImage" />
        <dc:title></dc:title>
      </cc:Work>
    </rdf:RDF>
  </metadata>
  <g
     inkscape:label="Layer 1"
     inkscape:groupmode="layer"
     id="layer1"
     transform="translate(0,-988.36218)">
    <path
       id="path2304"
       d="m 51.002311,999.5388 -7.59238,-7.5924 a 4.344606,4.344606 0 0 0 -3.072089,-1.27256 H 16.069776 c -2.399489,0 -4.344605,1.94512 -4.344605,4.3447 v 31.86046 c 0,2.3995 1.945116,4.3445 4.344605,4.3445 h 31.860446 c 2.39949,0 4.344606,-1.945 4.344606,-4.3445 v -24.2681 a 4.344606,4.344606 0 0 0 -1.272517,-3.0721 z m -14.657705,-4.52026 v 7.24106 H 24.75899 v -7.24106 z m 11.04254,31.86046 H 16.612853 a 0.54307576,0.54307576 0 0 1 -0.543076,-0.5432 v -30.77424 a 0.54307576,0.54307576 0 0 1 0.543077,-0.54302 h 3.801528 v 9.41326 c 0,1.1998 0.972559,2.1723 2.172304,2.1723 H 38.51691 c 1.199744,0 2.172302,-0.9725 2.172302,-2.1723 v -9.06191 l 7.081978,7.08201 a 0.54307576,0.54307576 0 0 1 0.159032,0.3841 v 23.4998 a 0.54307576,0.54307576 0 0 1 -0.543076,0.5432 z m -15.387147,-18.1025 c -4.391943,0 -7.965111,3.5731 -7.965111,7.965 0,4.392 3.573168,7.9652 7.965111,7.9652 4.391945,0 7.965111,-3.5732 7.965111,-7.9652 0,-4.3919 -3.573166,-7.965 -7.965111,-7.965 z m 0,11.5857 c -1.996344,0 -3.620504,-1.6244 -3.620504,-3.6207 0,-1.9962 1.62416,-3.6204 3.620504,-3.6204 1.996348,0 3.620506,1.6242 3.620506,3.6204 0,1.9963 -1.624158,3.6207 -3.620506,3.6207 z"
       inkscape:connector-curvature="0"
       style="stroke-width:1" />
    <text
       xml:space="preserve"
       style="font-style:normal;font-variant:normal;font-weight:normal;font-stretch:normal;font-size:69.49092865px;line-height:1.25;font-family:'Courier 10 Pitch';-inkscape-font-specification:'Courier 10 Pitch';letter-spacing:0px;word-spacing:0px;fill:#000000;fill-opacity:1;stroke:none;stroke-width:1"
       x="6.5645814"
       y="1048.5006"
       id="text2340"><tspan
         sodipodi:role="line"
         x="6.5645814"
         y="1048.5006"
         id="tspan6046"
         style="font-size:27.79637146px;stroke-width:1">csv</tspan></text>
  </g>
</svg>
