<?xml version="1.0" encoding="UTF-8" standalone="no"?>
<!-- Created with Inkscape (http://www.inkscape.org/) -->

<svg
   xmlns:dc="http://purl.org/dc/elements/1.1/"
   xmlns:cc="http://creativecommons.org/ns#"
   xmlns:rdf="http://www.w3.org/1999/02/22-rdf-syntax-ns#"
   xmlns:svg="http://www.w3.org/2000/svg"
   xmlns="http://www.w3.org/2000/svg"
   xmlns:sodipodi="http://sodipodi.sourceforge.net/DTD/sodipodi-0.dtd"
   xmlns:inkscape="http://www.inkscape.org/namespaces/inkscape"
   id="svg7384"
   sodipodi:docname="view-jump-to-row-symbolic.svg"
   version="1.1"
   inkscape:version="0.91 r13725"
   height="16"
   width="16">
  <metadata
     id="metadata90">
    <rdf:RDF>
      <cc:Work
         rdf:about="">
        <dc:format>image/svg+xml</dc:format>
        <dc:type
           rdf:resource="http://purl.org/dc/dcmitype/StillImage" />
        <dc:title>Gnome Symbolic Icon Theme</dc:title>
      </cc:Work>
    </rdf:RDF>
  </metadata>
  <sodipodi:namedview
     inkscape:cy="8.3903974"
     pagecolor="#dddedc"
     borderopacity="1"
     showborder="false"
     inkscape:bbox-paths="false"
     guidetolerance="10"
     inkscape:object-paths="true"
     inkscape:window-width="2560"
     showguides="true"
     inkscape:object-nodes="true"
     inkscape:snap-bbox="true"
     inkscape:pageshadow="2"
     inkscape:guide-bbox="true"
     inkscape:snap-nodes="false"
     bordercolor="#666666"
     objecttolerance="10"
     id="namedview88"
     showgrid="false"
     inkscape:window-maximized="1"
     inkscape:window-x="0"
     inkscape:snap-global="true"
     inkscape:window-y="27"
     gridtolerance="10"
     inkscape:window-height="1387"
     inkscape:snap-to-guides="true"
     inkscape:current-layer="layer12"
     inkscape:snap-bbox-midpoints="false"
     inkscape:zoom="90.509668"
     inkscape:cx="9.9124041"
     inkscape:snap-grids="true"
     inkscape:pageopacity="1">
    <inkscape:grid
       spacingx="1px"
       spacingy="1px"
       id="grid4866"
       empspacing="2"
       enabled="true"
       type="xygrid"
       snapvisiblegridlinesonly="true"
       visible="true" />
  </sodipodi:namedview>
  <title
     id="title9167">Gnome Symbolic Icon Theme</title>
  <defs
     id="defs7386" />
  <g
     inkscape:label="status"
     transform="translate(-40.0002,-746)"
     inkscape:groupmode="layer"
     id="layer9"
     style="display:inline" />
  <g
     inkscape:label="devices"
     transform="translate(-40.0002,-746)"
     inkscape:groupmode="layer"
     id="layer10" />
  <g
     inkscape:label="apps"
     transform="translate(-40.0002,-746)"
     inkscape:groupmode="layer"
     id="layer11" />
  <g
     inkscape:label="actions"
     transform="translate(-40.0002,-746)"
     inkscape:groupmode="layer"
     id="layer12">
    <path
       style="color:#505050;fill:#b3b3b3;fill-opacity:1;stroke:none;stroke-width:1;marker:none;visibility:visible;display:inline;overflow:visible"
       d="M 3 7 L 3 9 L 7.8046875 9 C 7.8013823 8.9561234 7.7929688 8.9131241 7.7929688 8.8691406 L 7.7929688 7.8691406 A 0.55524173 0.55524173 0 0 1 8.3476562 7.3144531 L 9.3476562 7.3144531 C 9.7916042 7.3144531 10.165319 7.50684 10.451172 7.78125 A 0.55524173 0.55524173 0 0 1 10.458984 7.7890625 L 10.792969 8.1230469 L 10.792969 7 L 3 7 z "
       transform="translate(40.0002,746)"
       id="rect7358" />
    <path
       style="color:#505050;fill:#b3b3b3;fill-opacity:1;stroke:none;stroke-width:1;marker:none;visibility:visible;display:inline;overflow:visible"
       d="M 3 11 L 3 13 L 11.275391 13 L 9.2421875 11 L 3 11 z "
       transform="translate(40.0002,746)"
       id="rect7360" />
    <path
       style="color:#505050;fill:#b3b3b3;fill-opacity:1;stroke:none;stroke-width:1;marker:none;visibility:visible;display:inline;overflow:visible"
       d="M 3 3 L 3 5 L 5.8085938 5 A 0.55524173 0.55524173 0 0 1 5.7929688 4.8710938 L 5.7929688 4.3710938 C 5.7929688 3.8883548 5.8932394 3.4308395 6.0507812 3 L 3 3 z M 9.8476562 3.4257812 C 9.2979863 3.4257812 8.9023438 3.8214238 8.9023438 4.3710938 L 8.9023438 4.8710938 A 0.55524173 0.55524173 0 0 1 8.8867188 5 L 10.792969 5 L 10.792969 4.3710938 C 10.792969 3.8214238 10.397327 3.4257812 9.8476562 3.4257812 z "
       transform="translate(40.0002,746)"
       id="rect7356" />
    <path
       id="path5643"
       style="color:#505050;font-style:normal;font-variant:normal;font-weight:normal;font-stretch:normal;font-size:medium;line-height:normal;font-family:'Bitstream Vera Sans';-inkscape-font-specification:'Bitstream Vera Sans';text-indent:0;text-align:start;text-decoration:none;text-decoration-line:none;letter-spacing:normal;word-spacing:normal;text-transform:none;direction:ltr;block-progression:tb;writing-mode:lr-tb;text-anchor:start;display:inline;overflow:visible;visibility:visible;fill:#505050;fill-opacity:1;stroke:none;stroke-width:2;marker:none;enable-background:accumulate"
       d="m 56.347411,753.87011 -1,0 c -0.25689,0 -0.52846,0.12983 -0.71875,0.3125 l -2.28125,2.28125 -2.28125,-2.28125 c -0.19029,-0.18267 -0.46186,-0.3125 -0.71875,-0.3125 l -1,0 0,1 c 0,0.30945 0.0903,0.55232 0.28125,0.75 l 3.71875,3.65625 3.71875,-3.65625 c 0.19095,-0.19768 0.28125,-0.44055 0.28125,-0.75 z m -6.499274,-6.99953 c -1.92115,0 -3.5,1.57885 -3.5,3.5 l 0,0.5 2,0 0,-0.5 c 0,-0.84027 0.65973,-1.5 1.5,-1.5 0.84027,0 1.5,0.65973 1.5,1.5 l 0,6.5 2,0 0,-6.5 c 0,-1.92115 -1.57885,-3.5 -3.5,-3.5 z"
       inkscape:connector-curvature="0" />
  </g>
  <g
     inkscape:label="places"
     transform="translate(-40.0002,-746)"
     inkscape:groupmode="layer"
     id="layer13" />
  <g
     inkscape:label="mimetypes"
     transform="translate(-40.0002,-746)"
     inkscape:groupmode="layer"
     id="layer14" />
  <g
     inkscape:label="emblems"
     transform="translate(-40.0002,-746)"
     inkscape:groupmode="layer"
     id="layer15"
     style="display:inline" />
  <g
     inkscape:label="categories"
     transform="translate(-40.0002,-746)"
     inkscape:groupmode="layer"
     id="g4953"
     style="display:inline" />
</svg>
