<?xml version="1.0" encoding="UTF-8" standalone="no"?>
<!-- Created with Inkscape (http://www.inkscape.org/) -->

<svg
   xmlns:dc="http://purl.org/dc/elements/1.1/"
   xmlns:cc="http://creativecommons.org/ns#"
   xmlns:rdf="http://www.w3.org/1999/02/22-rdf-syntax-ns#"
   xmlns:svg="http://www.w3.org/2000/svg"
   xmlns="http://www.w3.org/2000/svg"
   xmlns:sodipodi="http://sodipodi.sourceforge.net/DTD/sodipodi-0.dtd"
   xmlns:inkscape="http://www.inkscape.org/namespaces/inkscape"
   width="64"
   height="64"
   id="svg3019"
   version="1.1"
   inkscape:version="0.91 r13725"
   sodipodi:docname="random_light_contour.svg">
  <defs
     id="defs3021" />
  <sodipodi:namedview
     id="base"
     pagecolor="#dfd9b2"
     bordercolor="#666666"
     borderopacity="1.0"
     inkscape:pageopacity="1"
     inkscape:pageshadow="2"
     inkscape:zoom="11.313709"
     inkscape:cx="19.200169"
     inkscape:cy="46.523375"
     inkscape:document-units="px"
     inkscape:current-layer="layer1"
     showgrid="false"
     inkscape:window-width="2560"
     inkscape:window-height="1387"
     inkscape:window-x="0"
     inkscape:window-y="27"
     inkscape:window-maximized="1">
    <inkscape:grid
       type="xygrid"
       id="grid3027"
       empspacing="5"
       visible="true"
       enabled="true"
       snapvisiblegridlinesonly="true"
       dotted="false" />
  </sodipodi:namedview>
  <metadata
     id="metadata3024">
    <rdf:RDF>
      <cc:Work
         rdf:about="">
        <dc:format>image/svg+xml</dc:format>
        <dc:type
           rdf:resource="http://purl.org/dc/dcmitype/StillImage" />
        <dc:title />
      </cc:Work>
    </rdf:RDF>
  </metadata>
  <g
     inkscape:label="Layer 1"
     inkscape:groupmode="layer"
     id="layer1"
     transform="translate(0,-988.36218)">
    <path
       style="opacity:1;fill:#b3b3b3;fill-opacity:1;stroke:#000000;stroke-width:2;stroke-linejoin:round;stroke-miterlimit:4;stroke-dasharray:none;stroke-opacity:1"
       d="M 30.894531,2.1875 C 30.255316,2.2070684 29.6726,2.3407407 29.234375,2.59375 L 7.4726562,15.15625 c -0.3681641,0.18392 -0.5410157,0.430339 -0.6826173,0.762696 l -1.5263673,2.676759 c 0,0 -0.2539063,0.583305 -0.2539063,1.123046 l 0,24.375 c 0,1.558125 1.086171,3.439687 2.4355469,4.21875 L 28.554688,60.5 c 0.412116,0.237935 0.635809,0.362429 1.060996,0.358982 0.425188,-0.0034 2.449343,-0.0039 3.434367,3.76e-4 0.3388,-4.72e-4 0.809055,-0.198177 1.08276,-0.359305 L 55.242188,48.3125 c 1.349375,-0.779063 2.435546,-2.660625 2.435546,-4.21875 l 0,-24.375 c 0,-0.687702 -0.254968,-1.102583 -0.46289,-1.503907 0,0 -1.027613,-1.67414 -1.453084,-2.367186 -0.3146,-0.410156 -0.666841,-0.758951 -1.250025,-1.095653 L 34.15625,2.9980469 C 33.182427,2.4358099 31.95989,2.154886 30.894531,2.1875 Z"
       transform="translate(0,988.36218)"
       id="path4261"
       inkscape:connector-curvature="0"
       sodipodi:nodetypes="sccccsssszccsssccccs" />
    <g
       id="g4247"
       style="stroke:none;stroke-opacity:1">
      <path
         sodipodi:nodetypes="ccsccsccccccssssccccssssccccccc"
         inkscape:connector-curvature="0"
         id="path4576"
         d="m 55.734375,15.849609 c -0.03317,0.0031 -0.05258,0.03886 -0.03711,0.06836 0.169789,0.311967 0.215397,0.619507 0.134765,0.898437 -0.08063,0.27893 -0.288714,0.533153 -0.640625,0.736328 l -21.761718,12.5625 c -0.571753,0.330102 -1.404176,0.455227 -2.28711,0.382813 -0.882934,-0.07241 -1.815909,-0.341406 -2.58789,-0.787109 L 8.1992188,17.957031 C 7.3388594,17.460302 6.8859503,16.85773 6.8339844,16.316406 c -0.0028,-0.04701 0.028303,-0.537495 0.00586,-0.496093 -0.3556544,0.58723 -1.1731459,2.045312 -1.4863282,2.656251 -0.019238,0.03991 0.4132128,-0.301075 0.453125,-0.320313 0.4176866,-0.209359 0.9797302,-0.169642 1.6152344,0.197266 l 21.1093754,12.1875 c 1.33053,0.768183 2.412109,2.641364 2.412109,4.177734 l 0,24.375 c 0,0.731262 -0.245091,1.236213 -0.632812,1.494141 -0.03799,0.02486 -0.685973,0.236154 -0.640623,0.238284 0.347315,0.01863 3.015448,0.01772 3.335986,-0.0039 0.04535,-0.0021 -0.602633,-0.221236 -0.640623,-0.246096 -0.379475,-0.260975 -0.621146,-0.760206 -0.621146,-1.482422 l 0,-24.375 c 0,-1.53637 1.081578,-3.409551 2.412109,-4.177734 l 21.109375,-12.1875 c 0.723264,-0.417578 1.348822,-0.410468 1.777344,-0.0918 0.01926,0.01436 0.04627,0.01181 0.0625,-0.0059 0.0127,-0.01466 0.01505,-0.03563 0.0059,-0.05273 -0.40854,-0.797446 -0.853546,-1.57572 -1.333984,-2.332031 -0.0021,-0.0036 -0.0048,-0.0069 -0.0078,-0.0098 -0.0096,-0.0086 -0.02233,-0.01282 -0.03516,-0.01172 z"
         style="opacity:1;fill:#b3b3b3;fill-opacity:1;stroke:none;stroke-opacity:1"
         transform="translate(0,988.36218)" />
      <rect
         transform="matrix(0.86602541,0.5,0,1,0,0)"
         ry="2.8125"
         y="1002.3761"
         x="5.7845302"
         height="30"
         width="30.000158"
         id="rect4392"
         style="opacity:1;fill:#f9f9f9;fill-opacity:1;stroke:none;stroke-opacity:1"
         rx="2.8125002" />
      <ellipse
         ry="2.5"
         rx="2.5000134"
         transform="matrix(0.86602541,0.5,0,1,0,0)"
         cy="1017.3761"
         cx="20.784609"
         id="path4411"
         style="opacity:1;fill:#4d4d4d;fill-opacity:1;stroke:none;stroke-width:0.5;stroke-linecap:round;stroke-linejoin:round;stroke-miterlimit:4;stroke-dasharray:none;stroke-dashoffset:0;stroke-opacity:1" />
      <rect
         transform="matrix(0.86602541,-0.5,0,-1,0,0)"
         style="opacity:1;fill:#f9f9f9;fill-opacity:1;stroke:none;stroke-opacity:1"
         id="rect4419"
         width="30.000158"
         height="30"
         x="36.600601"
         y="-1068.5687"
         ry="2.8125"
         rx="2.8125002" />
      <ellipse
         ry="2.5"
         rx="2.5000134"
         transform="matrix(0.86602541,-0.5,0,-1,0,0)"
         style="opacity:1;fill:#4d4d4d;fill-opacity:1;stroke:none;stroke-width:0.5;stroke-linecap:round;stroke-linejoin:round;stroke-miterlimit:4;stroke-dasharray:none;stroke-dashoffset:0;stroke-opacity:1"
         id="circle4421"
         cx="47.600658"
         cy="-1049.5687" />
      <ellipse
         ry="2.5"
         rx="2.5000134"
         transform="matrix(0.86602541,-0.5,0,-1,0,0)"
         cy="-1057.5687"
         cx="55.6007"
         id="circle4437"
         style="opacity:1;fill:#4d4d4d;fill-opacity:1;stroke:none;stroke-width:0.5;stroke-linecap:round;stroke-linejoin:round;stroke-miterlimit:4;stroke-dasharray:none;stroke-dashoffset:0;stroke-opacity:1" />
      <rect
         transform="matrix(0.8660254,0.5,0.8660254,-0.5,0,0)"
         style="opacity:1;fill:#f9f9f9;fill-opacity:1;stroke:none;stroke-opacity:1"
         id="rect4425"
         width="30"
         height="30.00016"
         x="1007.8335"
         y="-1001.6409"
         ry="2.4357092"
         rx="3.2475781" />
      <ellipse
         ry="2.5000134"
         rx="2.5"
         transform="matrix(0.8660254,0.5,0.8660254,-0.5,0,0)"
         style="opacity:1;fill:#4d4d4d;fill-opacity:1;stroke:none;stroke-width:0.5;stroke-linecap:round;stroke-linejoin:round;stroke-miterlimit:4;stroke-dasharray:none;stroke-dashoffset:0;stroke-opacity:1"
         id="circle4427"
         cx="1022.8335"
         cy="-986.64087" />
      <ellipse
         ry="2.5000134"
         rx="2.5"
         transform="matrix(0.8660254,0.5,0.8660254,-0.5,0,0)"
         cy="-992.64087"
         cx="1016.8335"
         id="circle4435"
         style="opacity:1;fill:#4d4d4d;fill-opacity:1;stroke:none;stroke-width:0.5;stroke-linecap:round;stroke-linejoin:round;stroke-miterlimit:4;stroke-dasharray:none;stroke-dashoffset:0;stroke-opacity:1" />
      <ellipse
         ry="2.5000134"
         rx="2.5"
         transform="matrix(0.8660254,0.5,0.8660254,-0.5,0,0)"
         style="opacity:1;fill:#4d4d4d;fill-opacity:1;stroke:none;stroke-width:0.5;stroke-linecap:round;stroke-linejoin:round;stroke-miterlimit:4;stroke-dasharray:none;stroke-dashoffset:0;stroke-opacity:1"
         id="circle4439"
         cx="1028.8335"
         cy="-980.64087" />
    </g>
  </g>
</svg>
