<?xml version="1.0" encoding="UTF-8" standalone="no"?>
<!-- Created with Inkscape (http://www.inkscape.org/) -->

<svg
   xmlns:dc="http://purl.org/dc/elements/1.1/"
   xmlns:cc="http://creativecommons.org/ns#"
   xmlns:rdf="http://www.w3.org/1999/02/22-rdf-syntax-ns#"
   xmlns:svg="http://www.w3.org/2000/svg"
   xmlns="http://www.w3.org/2000/svg"
   xmlns:sodipodi="http://sodipodi.sourceforge.net/DTD/sodipodi-0.dtd"
   xmlns:inkscape="http://www.inkscape.org/namespaces/inkscape"
   width="64"
   height="64"
   id="svg3019"
   version="1.1"
   inkscape:version="0.91 r13725"
   sodipodi:docname="concatenate.svg">
  <defs
     id="defs3021" />
  <sodipodi:namedview
     id="base"
     pagecolor="#e0d5a9"
     bordercolor="#666666"
     borderopacity="1.0"
     inkscape:pageopacity="1"
     inkscape:pageshadow="2"
     inkscape:zoom="7.9999996"
     inkscape:cx="45.074397"
     inkscape:cy="31.57352"
     inkscape:document-units="px"
     inkscape:current-layer="layer1"
     showgrid="true"
     inkscape:window-width="1704"
     inkscape:window-height="1063"
     inkscape:window-x="756"
     inkscape:window-y="196"
     inkscape:window-maximized="0">
    <inkscape:grid
       type="xygrid"
       id="grid3027"
       empspacing="5"
       visible="true"
       enabled="true"
       snapvisiblegridlinesonly="true"
       dotted="false" />
  </sodipodi:namedview>
  <metadata
     id="metadata3024">
    <rdf:RDF>
      <cc:Work
         rdf:about="">
        <dc:format>image/svg+xml</dc:format>
        <dc:type
           rdf:resource="http://purl.org/dc/dcmitype/StillImage" />
        <dc:title></dc:title>
      </cc:Work>
    </rdf:RDF>
  </metadata>
  <g
     inkscape:label="Layer 1"
     inkscape:groupmode="layer"
     id="layer1"
     transform="translate(0,-988.36218)">
    <g
       id="g4968"
       transform="translate(-0.12132114,1.6815289)">
      <rect
         ry="0.16618791"
         rx="1.883485"
         y="1030.605"
         x="5.2426424"
         height="13.95609"
         width="54"
         id="rect3029-9-0-1"
         style="fill:#ffffff;fill-opacity:1;stroke:none" />
      <path
         sodipodi:nodetypes="cccccccccccc"
         d="m 5.226603,1034.3267 53.960083,0 0,0 0,0 m -53.823252,3.534 53.960083,0 0,0 0,0 m -53.6553,3.8285 53.960084,0 0,0 0,0"
         style="fill:none;stroke:#7f7f7f;stroke-width:1.04046321px;stroke-linecap:butt;stroke-linejoin:miter;stroke-opacity:1"
         id="path3812-8-3-8-1-9-4-7-7"
         inkscape:connector-curvature="0" />
      <rect
         ry="0.16618791"
         rx="1.883485"
         y="1030.6367"
         x="5.2426424"
         height="13.95609"
         width="54"
         id="rect3029-98-9"
         style="fill:none;stroke:#000000;stroke-width:1.99999976;stroke-linecap:square;stroke-linejoin:round;stroke-miterlimit:0;stroke-dasharray:none;stroke-opacity:1" />
    </g>
    <g
       id="g4963"
       transform="translate(-0.12132114,1.6815289)">
      <rect
         ry="0.1661879"
         rx="1.883485"
         y="992.6969"
         x="5.3535533"
         height="31.499266"
         width="53.646446"
         id="rect3029-9-0"
         style="fill:#ffffff;fill-opacity:1;stroke:none" />
      <path
         d="m 4.9839618,996.64591 53.9600842,0 0,0 0,0 m -53.8232534,3.72279 53.9600834,0 0,0 0,0 m -53.6552999,4.0329 53.9600839,0 0,0 0,0 m -53.8233291,4.033 53.9600841,0 0,0 0,0 m -54.4328993,4.033 53.9600833,0 0,0 0,0 m -53.3262222,8.0659 53.9600842,0 0,0 0,0 m -54.2285456,-4.0329 53.9600836,0 0,0 0,0"
         style="fill:none;stroke:#7f7f7f;stroke-width:1.04046333px;stroke-linecap:butt;stroke-linejoin:miter;stroke-opacity:1"
         id="path3812-8-3-8-1-9-4-7"
         inkscape:connector-curvature="0" />
      <rect
         ry="0.1661879"
         rx="1.883485"
         y="992.76849"
         x="5"
         height="31.499266"
         width="54"
         id="rect3029-98"
         style="fill:none;stroke:#000000;stroke-width:2;stroke-linecap:square;stroke-linejoin:round;stroke-miterlimit:0;stroke-dasharray:none;stroke-opacity:1" />
    </g>
  </g>
</svg>
