<?xml version="1.0" encoding="UTF-8" standalone="no"?>
<!-- Created with Inkscape (http://www.inkscape.org/) -->

<svg
   xmlns:dc="http://purl.org/dc/elements/1.1/"
   xmlns:cc="http://creativecommons.org/ns#"
   xmlns:rdf="http://www.w3.org/1999/02/22-rdf-syntax-ns#"
   xmlns:svg="http://www.w3.org/2000/svg"
   xmlns="http://www.w3.org/2000/svg"
   xmlns:sodipodi="http://sodipodi.sourceforge.net/DTD/sodipodi-0.dtd"
   xmlns:inkscape="http://www.inkscape.org/namespaces/inkscape"
   width="64"
   height="64"
   id="svg3019"
   version="1.1"
   inkscape:version="0.48.4 r9939"
   sodipodi:docname="import_text.svg">
  <defs
     id="defs3021" />
  <sodipodi:namedview
     id="base"
     pagecolor="#ffffff"
     bordercolor="#666666"
     borderopacity="1.0"
     inkscape:pageopacity="0.0"
     inkscape:pageshadow="2"
     inkscape:zoom="11.313708"
     inkscape:cx="35.379154"
     inkscape:cy="24.886189"
     inkscape:document-units="px"
     inkscape:current-layer="layer1"
     showgrid="true"
     inkscape:window-width="1704"
     inkscape:window-height="1063"
     inkscape:window-x="756"
     inkscape:window-y="196"
     inkscape:window-maximized="0">
    <inkscape:grid
       type="xygrid"
       id="grid3027"
       empspacing="5"
       visible="true"
       enabled="true"
       snapvisiblegridlinesonly="true"
       dotted="false" />
  </sodipodi:namedview>
  <metadata
     id="metadata3024">
    <rdf:RDF>
      <cc:Work
         rdf:about="">
        <dc:format>image/svg+xml</dc:format>
        <dc:type
           rdf:resource="http://purl.org/dc/dcmitype/StillImage" />
        <dc:title></dc:title>
      </cc:Work>
    </rdf:RDF>
  </metadata>
  <g
     inkscape:label="Layer 1"
     inkscape:groupmode="layer"
     id="layer1"
     transform="translate(0,-988.36218)">
    <path
       style="fill:none;stroke:#7f7f7f;stroke-width:1px;stroke-linecap:butt;stroke-linejoin:miter;stroke-opacity:1"
       d="m -85.830136,1009.2184 54,0 0,0 0,0"
       id="path3812-8-3-0"
       inkscape:connector-curvature="0"
       transform="translate(90.452349,26.64378)" />
    <rect
       style="fill:#ffffff;fill-opacity:1;stroke:none"
       id="rect3029-9-0"
       width="54"
       height="55"
       x="-86"
       y="984.23718"
       rx="1.883485"
       ry="0.1661879"
       transform="translate(91,8.4999974)" />
    <g
       id="g3495">
      <path
         d="m -85.830136,1009.2184 54,0 0,0 0,0 m -53.863068,6 54,0 0,0 0,0 m -53.694991,6.5 54,0 0,0 0,0 m -53.863144,6.5 54,0 0,0 0,0 m -54.473165,6.5 54,0 0,0 0,0 m -53.36567,13 54,0 0,0 0,0 m -54.26866,-6.5 54,0 0,0 0,0"
         style="fill:none;stroke:#7f7f7f;stroke-width:1px;stroke-linecap:butt;stroke-linejoin:miter;stroke-opacity:1"
         transform="matrix(0.99926081,0,0,1.0833646,90.750653,-93.719077)"
         id="path3812-8-3-8-1-9-4-7"
         inkscape:connector-curvature="0" />
      <rect
         transform="translate(91,8.4999974)"
         ry="0.1661879"
         rx="1.883485"
         y="984.36218"
         x="-86"
         height="55"
         width="54"
         id="rect3029-98"
         style="fill:none;stroke:#000000;stroke-width:2;stroke-linecap:square;stroke-linejoin:round;stroke-miterlimit:0;stroke-opacity:1;stroke-dasharray:none" />
    </g>
  </g>
</svg>
