<?xml version="1.0" encoding="UTF-8" standalone="no"?>
<!-- Created with Inkscape (http://www.inkscape.org/) -->

<svg
   xmlns:dc="http://purl.org/dc/elements/1.1/"
   xmlns:cc="http://creativecommons.org/ns#"
   xmlns:rdf="http://www.w3.org/1999/02/22-rdf-syntax-ns#"
   xmlns:svg="http://www.w3.org/2000/svg"
   xmlns="http://www.w3.org/2000/svg"
   xmlns:sodipodi="http://sodipodi.sourceforge.net/DTD/sodipodi-0.dtd"
   xmlns:inkscape="http://www.inkscape.org/namespaces/inkscape"
   width="64"
   height="64"
   id="svg3019"
   version="1.1"
   inkscape:version="0.91 r13725"
   sodipodi:docname="jinja_template.svg">
  <defs
     id="defs3021" />
  <sodipodi:namedview
     id="base"
     pagecolor="#ffffff"
     bordercolor="#666666"
     borderopacity="1.0"
     inkscape:pageopacity="0.0"
     inkscape:pageshadow="2"
     inkscape:zoom="5.656854"
     inkscape:cx="37.050352"
     inkscape:cy="26.557988"
     inkscape:document-units="px"
     inkscape:current-layer="layer1"
     showgrid="true"
     inkscape:window-width="2560"
     inkscape:window-height="1387"
     inkscape:window-x="0"
     inkscape:window-y="27"
     inkscape:window-maximized="1"
     showguides="false">
    <inkscape:grid
       type="xygrid"
       id="grid3027"
       empspacing="5"
       visible="true"
       enabled="true"
       snapvisiblegridlinesonly="true"
       dotted="false" />
  </sodipodi:namedview>
  <metadata
     id="metadata3024">
    <rdf:RDF>
      <cc:Work
         rdf:about="">
        <dc:format>image/svg+xml</dc:format>
        <dc:type
           rdf:resource="http://purl.org/dc/dcmitype/StillImage" />
        <dc:title></dc:title>
      </cc:Work>
    </rdf:RDF>
  </metadata>
  <g
     inkscape:label="Layer 1"
     inkscape:groupmode="layer"
     id="layer1"
     transform="translate(0,-988.36218)">
    <path
       style="fill:none;stroke:#7f7f7f;stroke-width:1px;stroke-linecap:butt;stroke-linejoin:miter;stroke-opacity:1"
       d="m 4.622213,1035.8622 54,0 0,0 0,0"
       id="path3812-8-3-0"
       inkscape:connector-curvature="0" />
    <rect
       style="fill:#ffffff;fill-opacity:1;stroke:none"
       id="rect3029-9-0"
       width="54"
       height="55"
       x="5"
       y="992.73718"
       rx="1.883485"
       ry="0.1661879" />
    <path
       inkscape:connector-curvature="0"
       id="path3812-8-3-8-1-9-4-7"
       style="fill:none;stroke:#7f7f7f;stroke-width:1.04046321px;stroke-linecap:butt;stroke-linejoin:miter;stroke-opacity:1"
       d="m 4.9839618,996.62721 53.9600842,0 0,0 0,0 m -53.8232534,6.50019 53.9600834,0 0,0 0,0 m -53.6552999,7.0419 53.9600839,0 0,0 0,0 m -54.2961443,19.4754 53.9600833,0 0,0 0,0 m -53.3262222,14.0837 53.9600842,0 0,0 0,0 m -54.2285456,-7.0418 53.9600836,0 0,0 0,0"
       sodipodi:nodetypes="cccccccccccccccccccccccc" />
    <rect
       style="fill:none;stroke:#000000;stroke-width:2;stroke-linecap:square;stroke-linejoin:round;stroke-miterlimit:0;stroke-dasharray:none;stroke-opacity:1"
       id="rect3029-98"
       width="54"
       height="55"
       x="5"
       y="992.86218"
       rx="1.883485"
       ry="0.1661879" />
    <g
       transform="scale(1.0356387,0.96558771)"
       style="font-style:normal;font-weight:normal;font-size:12.19677258px;line-height:125%;font-family:sans-serif;letter-spacing:0px;word-spacing:0px;fill:#000000;fill-opacity:1;stroke:none;stroke-width:1px;stroke-linecap:butt;stroke-linejoin:miter;stroke-opacity:1"
       id="text6097">
      <path
         d="m 13.964873,1061.223 0,0.8576 -0.369238,0 q -1.482909,0 -1.989122,-0.4408 -0.500259,-0.4407 -0.500259,-1.7568 l 0,-1.4234 q 0,-0.8992 -0.321594,-1.2447 -0.321595,-0.3454 -1.1672694,-0.3454 l -0.3632828,0 0,-0.8516 0.3632828,0 q 0.8516304,0 1.1672694,-0.3395 0.321594,-0.3454 0.321594,-1.2327 l 0,-1.4294 q 0,-1.3161 0.500259,-1.7509 0.506213,-0.4407 1.989122,-0.4407 l 0.369238,0 0,0.8517 -0.404971,0 q -0.839719,0 -1.095804,0.262 -0.256084,0.2621 -0.256084,1.1018 l 0,1.4769 q 0,0.935 -0.273951,1.3579 -0.267996,0.4228 -0.923096,0.5717 0.661056,0.1608 0.929051,0.5836 0.267996,0.4229 0.267996,1.3519 l 0,1.477 q 0,0.8397 0.256084,1.1017 0.256085,0.2621 1.095804,0.2621 l 0.404971,0 z"
         style=""
         id="path6180" />
      <path
         d="m 19.135434,1061.223 0,0.8576 -0.369238,0 q -1.482909,0 -1.989122,-0.4408 -0.500259,-0.4407 -0.500259,-1.7568 l 0,-1.4234 q 0,-0.8992 -0.321594,-1.2447 -0.321595,-0.3454 -1.16727,-0.3454 l -0.363282,0 0,-0.8516 0.363282,0 q 0.851631,0 1.16727,-0.3395 0.321594,-0.3454 0.321594,-1.2327 l 0,-1.4294 q 0,-1.3161 0.500259,-1.7509 0.506213,-0.4407 1.989122,-0.4407 l 0.369238,0 0,0.8517 -0.404971,0 q -0.839719,0 -1.095804,0.262 -0.256084,0.2621 -0.256084,1.1018 l 0,1.4769 q 0,0.935 -0.273951,1.3579 -0.267996,0.4228 -0.923096,0.5717 0.661056,0.1608 0.929051,0.5836 0.267996,0.4229 0.267996,1.3519 l 0,1.477 q 0,0.8397 0.256084,1.1017 0.256085,0.2621 1.095804,0.2621 l 0.404971,0 z"
         style=""
         id="path6182" />
      <path
         d="m 21.815389,1053.4213 1.095804,0 0,6.7892 q 0,1.2745 -0.488348,1.8462 -0.482391,0.5718 -1.560329,0.5718 l -0.416882,0 0,-0.9291 0.291818,0 q 0.625322,0 0.85163,-0.2918 0.226307,-0.2859 0.226307,-1.1971 l 0,-6.7892 z m 0,-2.5966 1.095804,0 0,1.3877 -1.095804,0 0,-1.3877 z"
         style=""
         id="path6184" />
      <path
         d="m 24.298087,1053.4213 1.095804,0 0,6.6701 -1.095804,0 0,-6.6701 z m 0,-2.5966 1.095804,0 0,1.3877 -1.095804,0 0,-1.3877 z"
         style=""
         id="path6186" />
      <path
         d="m 32.325314,1056.0655 0,4.0259 -1.095804,0 0,-3.9901 q 0,-0.9469 -0.369238,-1.4174 -0.369238,-0.4705 -1.107715,-0.4705 -0.887363,0 -1.399532,0.5658 -0.512169,0.5657 -0.512169,1.5424 l 0,3.7698 -1.101759,0 0,-6.6701 1.101759,0 0,1.0363 q 0.39306,-0.6015 0.923096,-0.8993 0.53599,-0.2978 1.232779,-0.2978 1.149403,0 1.738993,0.7147 0.58959,0.7087 0.58959,2.0903 z"
         style=""
         id="path6188" />
      <path
         d="m 33.622877,1053.4213 1.095804,0 0,6.7892 q 0,1.2745 -0.488347,1.8462 -0.482392,0.5718 -1.560329,0.5718 l -0.416882,0 0,-0.9291 0.291817,0 q 0.625323,0 0.85163,-0.2918 0.226307,-0.2859 0.226307,-1.1971 l 0,-6.7892 z m 0,-2.5966 1.095804,0 0,1.3877 -1.095804,0 0,-1.3877 z"
         style=""
         id="path6190" />
      <path
         d="m 39.136903,1056.7385 q -1.328067,0 -1.840236,0.3037 -0.512169,0.3038 -0.512169,1.0363 0,0.5836 0.381149,0.929 0.387104,0.3395 1.04816,0.3395 0.911185,0 1.459087,-0.6432 0.553857,-0.6491 0.553857,-1.7211 l 0,-0.2442 -1.089848,0 z m 2.185652,-0.4526 0,3.8055 -1.095804,0 0,-1.0124 q -0.375194,0.6075 -0.935007,0.8993 -0.559812,0.2858 -1.369754,0.2858 -1.024339,0 -1.631795,-0.5717 -0.601501,-0.5777 -0.601501,-1.5424 0,-1.1256 0.750387,-1.6974 0.756343,-0.5717 2.251162,-0.5717 l 1.536508,0 0,-0.1072 q 0,-0.7563 -0.500258,-1.1672 -0.494303,-0.4169 -1.393577,-0.4169 -0.571724,0 -1.11367,0.1369 -0.541946,0.137 -1.042205,0.411 l 0,-1.0125 q 0.601501,-0.2322 1.16727,-0.3454 0.565768,-0.1191 1.101759,-0.1191 1.447175,0 2.16183,0.7504 0.714655,0.7504 0.714655,2.275 z"
         style=""
         id="path6192" />
      <path
         d="m 42.770824,1061.223 0.416882,0 q 0.833763,0 1.083893,-0.2561 0.256084,-0.2561 0.256084,-1.1077 l 0,-1.477 q 0,-0.929 0.267996,-1.3519 0.267995,-0.4228 0.929051,-0.5836 -0.661056,-0.1489 -0.929051,-0.5717 -0.267996,-0.4229 -0.267996,-1.3579 l 0,-1.4769 q 0,-0.8457 -0.256084,-1.1018 -0.25013,-0.262 -1.083893,-0.262 l -0.416882,0 0,-0.8517 0.375194,0 q 1.482908,0 1.977211,0.4407 0.500258,0.4348 0.500258,1.7509 l 0,1.4294 q 0,0.8873 0.321595,1.2327 0.321594,0.3395 1.167269,0.3395 l 0.369238,0 0,0.8516 -0.369238,0 q -0.845675,0 -1.167269,0.3454 -0.321595,0.3455 -0.321595,1.2447 l 0,1.4234 q 0,1.3161 -0.500258,1.7568 -0.494303,0.4408 -1.977211,0.4408 l -0.375194,0 0,-0.8576 z"
         style=""
         id="path6194" />
      <path
         d="m 47.83274,1061.223 0.416882,0 q 0.833764,0 1.083893,-0.2561 0.256085,-0.2561 0.256085,-1.1077 l 0,-1.477 q 0,-0.929 0.267995,-1.3519 0.267996,-0.4228 0.929051,-0.5836 -0.661055,-0.1489 -0.929051,-0.5717 -0.267995,-0.4229 -0.267995,-1.3579 l 0,-1.4769 q 0,-0.8457 -0.256085,-1.1018 -0.250129,-0.262 -1.083893,-0.262 l -0.416882,0 0,-0.8517 0.375194,0 q 1.482908,0 1.977211,0.4407 0.500258,0.4348 0.500258,1.7509 l 0,1.4294 q 0,0.8873 0.321595,1.2327 0.321594,0.3395 1.167269,0.3395 l 0.369238,0 0,0.8516 -0.369238,0 q -0.845675,0 -1.167269,0.3454 -0.321595,0.3455 -0.321595,1.2447 l 0,1.4234 q 0,1.3161 -0.500258,1.7568 -0.494303,0.4408 -1.977211,0.4408 l -0.375194,0 0,-0.8576 z"
         style=""
         id="path6196" />
    </g>
  </g>
</svg>
