<?xml version="1.0" encoding="utf-8"?>
<!-- Generator: Adobe Illustrator 16.0.4, SVG Export Plug-In . SVG Version: 6.00 Build 0)  -->
<!DOCTYPE svg PUBLIC "-//W3C//DTD SVG 1.1//EN" "http://www.w3.org/Graphics/SVG/1.1/DTD/svg11.dtd">
<svg version="1.1" id="Layer_1" xmlns="http://www.w3.org/2000/svg" xmlns:xlink="http://www.w3.org/1999/xlink" x="0px" y="0px"
	 width="50px" height="50px" viewBox="0 0 50 50" enable-background="new 0 0 50 50" xml:space="preserve">
<path d="M35.717,31.187c-0.37,0.643-1.042,1-1.734,1c-0.339,0-0.683-0.086-0.998-0.268l-5.983-3.455v6.91c0,1.104-0.896,2-2,2
	s-2-0.896-2-2v-6.911l-5.985,3.456c-0.315,0.182-0.659,0.268-0.998,0.268c-0.691,0-1.364-0.357-1.734-1
	c-0.552-0.957-0.225-2.18,0.732-2.731L21,25l-5.984-3.455c-0.957-0.553-1.284-1.774-0.732-2.731
	c0.552-0.957,1.776-1.285,2.732-0.732L23,21.537v-6.911c0-1.104,0.896-2,2-2s2,0.896,2,2v6.91l5.983-3.455
	c0.956-0.553,2.182-0.225,2.732,0.732c0.552,0.957,0.225,2.18-0.732,2.731L29.001,25l5.983,3.455
	C35.941,29.007,36.269,30.229,35.717,31.187z"/>
</svg>
