<?xml version="1.0" encoding="utf-8"?>
<!-- Generator: Adobe Illustrator 17.0.0, SVG Export Plug-In . SVG Version: 6.00 Build 0)  -->
<!DOCTYPE svg PUBLIC "-//W3C//DTD SVG 1.1//EN" "http://www.w3.org/Graphics/SVG/1.1/DTD/svg11.dtd">
<svg version="1.1" id="Layer_1" xmlns="http://www.w3.org/2000/svg" xmlns:xlink="http://www.w3.org/1999/xlink" x="0px" y="0px"
	 width="26px" height="26px" viewBox="0 0 26 26" enable-background="new 0 0 26 26" xml:space="preserve">
<path d="M19,25v1H7v-1c0-0.551,0.449-1,1-1h2.013c0.053-1.248,0.863-2.29,1.987-2.689V9.587C11.473,9.254,11.12,8.67,11.12,8H12h2
	h0.88c0,0.67-0.353,1.254-0.88,1.587v11.724c1.124,0.399,1.934,1.441,1.987,2.689H18C18.551,24,19,24.449,19,25z M26,16
	c-0.733,2.064-2.685,3.553-5,3.553s-4.267-1.49-5-3.553h1.154l3.378-8.953c0.146-0.39,0.789-0.39,0.936,0L24.846,16H26z M23.777,16
	L21,8.64L18.223,16H23.777z M5,6.01c0.453,0,0.822-0.303,0.95-0.714C6.281,5.17,6.62,5,6.968,4.824C7.733,4.438,8.6,4,9.5,4
	c0.864,0,1.404,0.399,1.713,0.739C11.201,4.825,11.187,4.911,11.187,5c0,1.001,0.812,1.813,1.813,1.813S14.813,6.001,14.813,5
	c0-0.089-0.014-0.174-0.026-0.26C15.095,4.401,15.635,4,16.5,4c0.9,0,1.767,0.438,2.531,0.824C19.38,5,19.719,5.17,20.05,5.296
	C20.178,5.707,20.547,6.01,21,6.01c0.558,0,1.01-0.452,1.01-1.01S21.558,3.99,21,3.99c-0.288,0-0.545,0.124-0.729,0.318
	c-0.247-0.104-0.514-0.237-0.789-0.376C18.618,3.495,17.639,3,16.5,3c-0.996,0-1.69,0.379-2.161,0.787
	c-0.211-0.233-0.481-0.407-0.788-0.506c0.373-0.2,0.635-0.581,0.635-1.032C14.186,1.594,13,0.065,13,0.065s-1.186,1.529-1.186,2.184
	c0,0.452,0.262,0.832,0.635,1.032c-0.307,0.098-0.577,0.273-0.788,0.506C11.19,3.379,10.496,3,9.5,3
	C8.361,3,7.381,3.495,6.517,3.932C6.242,4.071,5.976,4.204,5.729,4.307C5.545,4.114,5.288,3.99,5,3.99C4.442,3.99,3.99,4.442,3.99,5
	S4.442,6.01,5,6.01z M5,19.553c-2.315,0-4.267-1.49-5-3.553h1.154l3.378-8.953c0.146-0.39,0.789-0.39,0.936,0L8.846,16H10
	C9.267,18.063,7.315,19.553,5,19.553z M7.777,16L5,8.64L2.223,16H7.777z"/>
</svg>
