<?xml version="1.0" encoding="UTF-8" standalone="no"?>
<!-- Created with Inkscape (http://www.inkscape.org/) -->

<svg
   xmlns:dc="http://purl.org/dc/elements/1.1/"
   xmlns:cc="http://creativecommons.org/ns#"
   xmlns:rdf="http://www.w3.org/1999/02/22-rdf-syntax-ns#"
   xmlns:svg="http://www.w3.org/2000/svg"
   xmlns="http://www.w3.org/2000/svg"
   xmlns:sodipodi="http://sodipodi.sourceforge.net/DTD/sodipodi-0.dtd"
   xmlns:inkscape="http://www.inkscape.org/namespaces/inkscape"
   width="48"
   height="48"
   id="svg2"
   version="1.1"
   inkscape:version="0.48.5 r10040"
   sodipodi:docname="scatter.svg">
  <defs
     id="defs4">
    <marker
       inkscape:stockid="Arrow1Mend"
       orient="auto"
       refY="0.0"
       refX="0.0"
       id="Arrow1Mend"
       style="overflow:visible;">
      <path
         id="path3966"
         d="M 0.0,0.0 L 5.0,-5.0 L -12.5,0.0 L 5.0,5.0 L 0.0,0.0 z "
         style="fill-rule:evenodd;stroke:#000000;stroke-width:1.0pt;"
         transform="scale(0.4) rotate(180) translate(10,0)" />
    </marker>
    <marker
       inkscape:stockid="Arrow1Mstart"
       orient="auto"
       refY="0.0"
       refX="0.0"
       id="Arrow1Mstart"
       style="overflow:visible">
      <path
         id="path3963"
         d="M 0.0,0.0 L 5.0,-5.0 L -12.5,0.0 L 5.0,5.0 L 0.0,0.0 z "
         style="fill-rule:evenodd;stroke:#000000;stroke-width:1.0pt"
         transform="scale(0.4) translate(10,0)" />
    </marker>
  </defs>
  <sodipodi:namedview
     id="base"
     pagecolor="#ffffff"
     bordercolor="#666666"
     borderopacity="1.0"
     inkscape:pageopacity="0.0"
     inkscape:pageshadow="2"
     inkscape:zoom="13.915915"
     inkscape:cx="25.635428"
     inkscape:cy="23.244035"
     inkscape:document-units="px"
     inkscape:current-layer="layer1"
     showgrid="true"
     inkscape:showpageshadow="false"
     borderlayer="false"
     inkscape:window-width="1266"
     inkscape:window-height="986"
     inkscape:window-x="576"
     inkscape:window-y="127"
     inkscape:window-maximized="0">
    <inkscape:grid
       type="xygrid"
       id="grid2985"
       empspacing="1"
       visible="true"
       enabled="true"
       snapvisiblegridlinesonly="true"
       dotted="true" />
  </sodipodi:namedview>
  <metadata
     id="metadata7">
    <rdf:RDF>
      <cc:Work
         rdf:about="">
        <dc:format>image/svg+xml</dc:format>
        <dc:type
           rdf:resource="http://purl.org/dc/dcmitype/StillImage" />
        <dc:title></dc:title>
      </cc:Work>
    </rdf:RDF>
  </metadata>
  <g
     inkscape:label="Layer 1"
     inkscape:groupmode="layer"
     id="layer1"
     transform="translate(0,-1004.3622)">
    <path
       style="fill:none;stroke:#333333;stroke-width:1px;stroke-linecap:butt;stroke-linejoin:miter;stroke-opacity:1;marker-start:none;marker-end:none"
       d="m 36.5,1041.8622 -26,0 0,-26"
       id="path3951"
       inkscape:connector-curvature="0"
       sodipodi:nodetypes="ccc" />
    <path
       style="fill:none;stroke:#333333;stroke-width:1px;stroke-linecap:butt;stroke-linejoin:miter;stroke-opacity:1"
       d="m 8.5,1018.8622 2,-3 2,3"
       id="path4951"
       inkscape:connector-curvature="0" />
    <path
       style="fill:none;stroke:#333333;stroke-width:1px;stroke-linecap:butt;stroke-linejoin:miter;stroke-opacity:1"
       d="m 33.5,1039.8622 3,2 -3,2"
       id="path4953"
       inkscape:connector-curvature="0"
       sodipodi:nodetypes="ccc" />
    <path
       sodipodi:type="arc"
       style="fill:#333333;fill-opacity:1;stroke:#333333;stroke-width:1;stroke-linejoin:miter;stroke-miterlimit:4;stroke-opacity:1;stroke-dasharray:none"
       id="path4167"
       sodipodi:cx="17"
       sodipodi:cy="28"
       sodipodi:rx="1"
       sodipodi:ry="1"
       d="m 18,28 a 1,1 0 1 1 -2,0 1,1 0 1 1 2,0 z"
       transform="translate(-2.5,1008.8622)" />
    <path
       sodipodi:type="arc"
       style="fill:#333333;fill-opacity:1;stroke:#333333;stroke-width:1;stroke-linejoin:miter;stroke-miterlimit:4;stroke-opacity:1;stroke-dasharray:none"
       id="path4167-5"
       sodipodi:cx="17"
       sodipodi:cy="28"
       sodipodi:rx="1"
       sodipodi:ry="1"
       d="m 18,28 a 1,1 0 1 1 -2,0 1,1 0 1 1 2,0 z"
       transform="translate(-0.5,1004.8622)" />
    <path
       transform="translate(3.5,1007.8622)"
       sodipodi:type="arc"
       style="fill:#333333;fill-opacity:1;stroke:#333333;stroke-width:1;stroke-linejoin:miter;stroke-miterlimit:4;stroke-opacity:1;stroke-dasharray:none"
       id="path4167-5-4"
       sodipodi:cx="17"
       sodipodi:cy="28"
       sodipodi:rx="1"
       sodipodi:ry="1"
       d="m 18,28 a 1,1 0 1 1 -2,0 1,1 0 1 1 2,0 z" />
    <path
       sodipodi:type="arc"
       style="fill:#333333;fill-opacity:1;stroke:#333333;stroke-width:1;stroke-linejoin:miter;stroke-miterlimit:4;stroke-opacity:1;stroke-dasharray:none"
       id="path4167-0"
       sodipodi:cx="17"
       sodipodi:cy="28"
       sodipodi:rx="1"
       sodipodi:ry="1"
       d="m 18,28 a 1,1 0 1 1 -2,0 1,1 0 1 1 2,0 z"
       transform="translate(4.5,1002.8622)" />
    <path
       transform="translate(6.5,998.8622)"
       sodipodi:type="arc"
       style="fill:#333333;fill-opacity:1;stroke:#333333;stroke-width:1;stroke-linejoin:miter;stroke-miterlimit:4;stroke-opacity:1;stroke-dasharray:none"
       id="path4167-5-6"
       sodipodi:cx="17"
       sodipodi:cy="28"
       sodipodi:rx="1"
       sodipodi:ry="1"
       d="m 18,28 a 1,1 0 1 1 -2,0 1,1 0 1 1 2,0 z" />
    <path
       transform="translate(10.5,1001.8622)"
       sodipodi:type="arc"
       style="fill:#333333;fill-opacity:1;stroke:#333333;stroke-width:1;stroke-linejoin:miter;stroke-miterlimit:4;stroke-opacity:1;stroke-dasharray:none"
       id="path4167-5-4-2"
       sodipodi:cx="17"
       sodipodi:cy="28"
       sodipodi:rx="1"
       sodipodi:ry="1"
       d="m 18,28 a 1,1 0 1 1 -2,0 1,1 0 1 1 2,0 z" />
    <path
       sodipodi:type="arc"
       style="fill:#333333;fill-opacity:1;stroke:#333333;stroke-width:1;stroke-linejoin:miter;stroke-miterlimit:4;stroke-opacity:1;stroke-dasharray:none"
       id="path4167-0-6"
       sodipodi:cx="17"
       sodipodi:cy="28"
       sodipodi:rx="1"
       sodipodi:ry="1"
       d="m 18,28 a 1,1 0 1 1 -2,0 1,1 0 1 1 2,0 z"
       transform="translate(11.5,996.8622)" />
    <path
       transform="translate(13.5,992.8622)"
       sodipodi:type="arc"
       style="fill:#333333;fill-opacity:1;stroke:#333333;stroke-width:1;stroke-linejoin:miter;stroke-miterlimit:4;stroke-opacity:1;stroke-dasharray:none"
       id="path4167-5-6-4"
       sodipodi:cx="17"
       sodipodi:cy="28"
       sodipodi:rx="1"
       sodipodi:ry="1"
       d="m 18,28 a 1,1 0 1 1 -2,0 1,1 0 1 1 2,0 z" />
  </g>
</svg>
