<?xml version="1.0" encoding="UTF-8" standalone="no"?>
<!-- Created with Inkscape (http://www.inkscape.org/) -->

<svg
   xmlns:dc="http://purl.org/dc/elements/1.1/"
   xmlns:cc="http://creativecommons.org/ns#"
   xmlns:rdf="http://www.w3.org/1999/02/22-rdf-syntax-ns#"
   xmlns:svg="http://www.w3.org/2000/svg"
   xmlns="http://www.w3.org/2000/svg"
   xmlns:sodipodi="http://sodipodi.sourceforge.net/DTD/sodipodi-0.dtd"
   xmlns:inkscape="http://www.inkscape.org/namespaces/inkscape"
   width="64"
   height="64"
   id="svg4932"
   version="1.1"
   inkscape:version="0.48.4 r9939"
   sodipodi:docname="New document 17">
  <defs
     id="defs4934" />
  <sodipodi:namedview
     id="base"
     pagecolor="#ffffff"
     bordercolor="#666666"
     borderopacity="1.0"
     inkscape:pageopacity="0.0"
     inkscape:pageshadow="2"
     inkscape:zoom="3.6875"
     inkscape:cx="-1.0847458"
     inkscape:cy="32"
     inkscape:document-units="px"
     inkscape:current-layer="layer1"
     showgrid="false"
     inkscape:window-width="763"
     inkscape:window-height="608"
     inkscape:window-x="149"
     inkscape:window-y="210"
     inkscape:window-maximized="0" />
  <metadata
     id="metadata4937">
    <rdf:RDF>
      <cc:Work
         rdf:about="">
        <dc:format>image/svg+xml</dc:format>
        <dc:type
           rdf:resource="http://purl.org/dc/dcmitype/StillImage" />
        <dc:title></dc:title>
      </cc:Work>
    </rdf:RDF>
  </metadata>
  <g
     inkscape:label="Layer 1"
     inkscape:groupmode="layer"
     id="layer1"
     transform="translate(0,-988.36218)">
    <path
       clip-rule="evenodd"
       d="m 48.583887,1048.0544 c -0.279711,-0.2797 -0.559421,-0.5994 -0.799173,-0.9191 l -23.855307,-23.8549 c -5.794002,1.8381 -12.387179,0.4396 -16.9824223,-4.1556 -3.8759879,-3.876 -5.4743336,-9.1905 -4.7950367,-14.2253 l 9.550115,9.5501 11.348254,-3.0768 3.076816,-11.3483 -9.550115,-9.51011 c 5.074747,-0.67929 10.349288,0.91905 14.225276,4.75508 4.595243,4.63521 5.993796,11.22833 4.155698,17.02233 l 23.855307,23.8553 c 0.319669,0.2398 0.599379,0.4795 0.87909,0.7588 3.076815,3.0768 3.076815,8.0717 0,11.1485 -3.036857,3.0768 -8.031687,3.0768 -11.108502,0 z m 6.952803,-8.9507 c -1.318635,-1.3187 -3.476402,-1.3187 -4.795037,0 -1.318635,1.3186 -1.318635,3.4364 0,4.755 1.318635,1.3187 3.476402,1.3187 4.795037,0 1.318635,-1.3186 1.318635,-3.4364 0,-4.755 z"
       id="path3465"
       inkscape:connector-curvature="0"
       style="fill-rule:evenodd" />
  </g>
</svg>
