<?xml version="1.0" encoding="UTF-8" standalone="no"?>
<!-- Created with Inkscape (http://www.inkscape.org/) -->

<svg
   xmlns:dc="http://purl.org/dc/elements/1.1/"
   xmlns:cc="http://creativecommons.org/ns#"
   xmlns:rdf="http://www.w3.org/1999/02/22-rdf-syntax-ns#"
   xmlns:svg="http://www.w3.org/2000/svg"
   xmlns="http://www.w3.org/2000/svg"
   xmlns:sodipodi="http://sodipodi.sourceforge.net/DTD/sodipodi-0.dtd"
   xmlns:inkscape="http://www.inkscape.org/namespaces/inkscape"
   width="64"
   height="64"
   id="svg6120"
   version="1.1"
   inkscape:version="0.48.4 r9939"
   sodipodi:docname="New document 24">
  <defs
     id="defs6122" />
  <sodipodi:namedview
     id="base"
     pagecolor="#ffffff"
     bordercolor="#666666"
     borderopacity="1.0"
     inkscape:pageopacity="0.0"
     inkscape:pageshadow="2"
     inkscape:zoom="10.71875"
     inkscape:cx="20.618076"
     inkscape:cy="32"
     inkscape:document-units="px"
     inkscape:current-layer="layer1"
     showgrid="true"
     inkscape:window-width="987"
     inkscape:window-height="871"
     inkscape:window-x="484"
     inkscape:window-y="107"
     inkscape:window-maximized="0">
    <inkscape:grid
       type="xygrid"
       id="grid6128"
       empspacing="5"
       visible="true"
       enabled="true"
       snapvisiblegridlinesonly="true" />
  </sodipodi:namedview>
  <metadata
     id="metadata6125">
    <rdf:RDF>
      <cc:Work
         rdf:about="">
        <dc:format>image/svg+xml</dc:format>
        <dc:type
           rdf:resource="http://purl.org/dc/dcmitype/StillImage" />
        <dc:title></dc:title>
      </cc:Work>
    </rdf:RDF>
  </metadata>
  <g
     inkscape:label="Layer 1"
     inkscape:groupmode="layer"
     id="layer1"
     transform="translate(0,-988.36218)">
    <path
       clip-rule="evenodd"
       d="m 32,1005.3622 h -3.75 v 15 3.75 H 32 43.25 v -3.75 H 32 v -15 z m 0,37.5 c -12.4125,0 -22.5,-10.0875 -22.5,-22.5 0,-12.4125 10.0875,-22.50002 22.5,-22.50002 12.4125,0 22.5,10.08752 22.5,22.50002 0,12.4125 -10.0875,22.5 -22.5,22.5 z m 0,-52.50002 c -16.575,0 -30,13.42502 -30,30.00002 0,16.575 13.425,30 30,30 16.575,0 30,-13.425 30,-30 0,-16.575 -13.425,-30.00002 -30,-30.00002 z"
       id="path3543"
       inkscape:connector-curvature="0"
       style="fill-rule:evenodd" />
  </g>
</svg>
