<?xml version="1.0" encoding="UTF-8" standalone="no"?>
<!-- Created with Inkscape (http://www.inkscape.org/) -->

<svg
   xmlns:dc="http://purl.org/dc/elements/1.1/"
   xmlns:cc="http://creativecommons.org/ns#"
   xmlns:rdf="http://www.w3.org/1999/02/22-rdf-syntax-ns#"
   xmlns:svg="http://www.w3.org/2000/svg"
   xmlns="http://www.w3.org/2000/svg"
   xmlns:sodipodi="http://sodipodi.sourceforge.net/DTD/sodipodi-0.dtd"
   xmlns:inkscape="http://www.inkscape.org/namespaces/inkscape"
   width="64"
   height="64"
   id="svg4887"
   version="1.1"
   inkscape:version="0.48.4 r9939"
   sodipodi:docname="New document 14">
  <defs
     id="defs4889" />
  <sodipodi:namedview
     id="base"
     pagecolor="#ffffff"
     bordercolor="#666666"
     borderopacity="1.0"
     inkscape:pageopacity="0.0"
     inkscape:pageshadow="2"
     inkscape:zoom="3.6875"
     inkscape:cx="32"
     inkscape:cy="32"
     inkscape:document-units="px"
     inkscape:current-layer="layer1"
     showgrid="false"
     inkscape:window-width="997"
     inkscape:window-height="574"
     inkscape:window-x="129"
     inkscape:window-y="190"
     inkscape:window-maximized="0" />
  <metadata
     id="metadata4892">
    <rdf:RDF>
      <cc:Work
         rdf:about="">
        <dc:format>image/svg+xml</dc:format>
        <dc:type
           rdf:resource="http://purl.org/dc/dcmitype/StillImage" />
        <dc:title></dc:title>
      </cc:Work>
    </rdf:RDF>
  </metadata>
  <g
     inkscape:label="Layer 1"
     inkscape:groupmode="layer"
     id="layer1"
     transform="translate(0,-988.36218)">
    <path
       clip-rule="evenodd"
       d="m 62,1024.1122 v -7.5 h -6.0375 c -0.4875,-3.6375 -1.8,-7.0125 -3.7125,-9.9375 l 3.825,-4.1625 -6.1125,-6.11252 -4.425,3.6 c -2.85,-2.1 -6.15,-3.675 -9.7875,-4.3875 v -5.25 h -7.5 v 5.0625 c -3.675,0.5625 -7.0875,1.9125 -10.0125,3.9 l -4.0875,-3.75 -6.1125,6.11252 3.675,5.1375 c -2.0625,2.8875 -3.525,6.1875 -4.2375,9.7875 H 2 v 7.5 h 5.4 c 0.6,3.5625 1.9125,6.8625 3.8625,9.75 l -4.05,3.6375 6.1125,6.1125 5.4375,-3.9375 c 2.8125,1.9875 6,3.45 9.4875,4.1625 v 6.525 h 7.5 v -5.6625 c 3.525,-0.525 6.7875,-2.5125 9.675,-4.3875 l 3.7125,4.0875 6.1125,-6.075 -3.9,-4.6875 c 2.0625,-2.8125 3.6,-6 4.35,-9.525 H 62 z m -30.3375,3.6375 c -4.4625,0 -8.0625,-3.6 -8.0625,-8.025 0,-4.4625 3.6,-8.0625 8.0625,-8.0625 4.425,0 8.025,3.6 8.025,8.0625 0,4.425 -3.6,8.025 -8.025,8.025 z"
       id="path3467"
       inkscape:connector-curvature="0"
       style="fill-rule:evenodd" />
  </g>
</svg>
