<?xml version="1.0" encoding="UTF-8" standalone="no"?>
<!-- Created with Inkscape (http://www.inkscape.org/) -->

<svg
   xmlns:dc="http://purl.org/dc/elements/1.1/"
   xmlns:cc="http://creativecommons.org/ns#"
   xmlns:rdf="http://www.w3.org/1999/02/22-rdf-syntax-ns#"
   xmlns:svg="http://www.w3.org/2000/svg"
   xmlns="http://www.w3.org/2000/svg"
   xmlns:sodipodi="http://sodipodi.sourceforge.net/DTD/sodipodi-0.dtd"
   xmlns:inkscape="http://www.inkscape.org/namespaces/inkscape"
   width="64"
   height="64"
   viewBox="0 0 64.000001 64.000001"
   id="svg2"
   version="1.1"
   inkscape:version="0.91 r13725"
   sodipodi:docname="viewer.svg">
  <defs
     id="defs4" />
  <sodipodi:namedview
     id="base"
     pagecolor="#ffffff"
     bordercolor="#666666"
     borderopacity="1.0"
     inkscape:pageopacity="0.0"
     inkscape:pageshadow="2"
     inkscape:zoom="7.9195959"
     inkscape:cx="38.714331"
     inkscape:cy="24.898582"
     inkscape:document-units="px"
     inkscape:current-layer="layer1"
     showgrid="false"
     units="px"
     inkscape:window-width="2560"
     inkscape:window-height="1320"
     inkscape:window-x="-8"
     inkscape:window-y="-8"
     inkscape:window-maximized="1" />
  <metadata
     id="metadata7">
    <rdf:RDF>
      <cc:Work
         rdf:about="">
        <dc:format>image/svg+xml</dc:format>
        <dc:type
           rdf:resource="http://purl.org/dc/dcmitype/StillImage" />
        <dc:title></dc:title>
      </cc:Work>
    </rdf:RDF>
  </metadata>
  <g
     inkscape:label="Layer 1"
     inkscape:groupmode="layer"
     id="layer1"
     transform="translate(0,-988.36217)"
     style="opacity:0.75">
    <g
       transform="matrix(0.10078224,-0.10395005,0.11561946,0.09745033,4.6344178,1029.8886)"
       id="g3"
       style="opacity:1">
      <path
         inkscape:connector-curvature="0"
         d="M 334.30381,183.07315 C 316.44565,153.66993 292.2037,130.17561 261.58135,112.59079 230.95697,95.005342 198.47511,86.439031 164.13163,86.89397 129.78817,87.348908 97.046376,96.775822 65.904753,115.18287 34.7625,133.58586 9.8372931,157.7315 -8.8701659,187.61909 c -2.6755621,4.56501 -4.0453211,9.04882 -4.1085881,13.45138 -0.06327,4.40257 1.178117,8.85179 3.7234891,13.34628 17.855393,29.40462 42.0959539,52.90101 72.7210979,70.4817 30.624363,17.58751 63.107677,26.147 97.451147,25.69206 34.34415,-0.45495 67.0841,-9.84852 98.22404,-28.18619 31.13859,-18.33833 56.06977,-42.51738 74.77769,-72.53351 2.67624,-4.56366 4.04527,-9.04542 4.10857,-13.45003 0.0632,-4.40256 -1.17743,-8.85179 -3.72347,-13.34763 z m -212.8415,-50.28081 c 11.85284,-11.74037 25.94066,-17.72072 42.26545,-17.93697 2.61045,-0.0345 4.81886,0.84466 6.62187,2.63167 1.80025,1.7877 2.68655,3.97716 2.64936,6.56579 -0.0373,2.59068 -0.9868,4.80309 -2.83497,6.63642 -1.85236,1.83814 -4.08821,2.77354 -6.69936,2.80812 -11.22943,0.14872 -20.88692,4.2262 -28.96484,12.22681 -8.08074,8.00542 -12.19867,17.57201 -12.35865,28.7046 -0.0373,2.59203 -0.98543,4.80307 -2.83846,6.64053 -1.85579,1.83886 -4.08752,2.77353 -6.69866,2.80812 -2.61321,0.0346 -4.81958,-0.8433 -6.62256,-2.63166 -1.80366,-1.78902 -2.68585,-3.97854 -2.64864,-6.56784 0.23252,-16.18062 6.27731,-30.14454 18.12946,-41.88559 z m 125.25925,128.23025 c -26.40876,16.07176 -54.89039,24.31477 -85.4475,24.71955 -30.55642,0.40478 -58.81199,-7.08189 -84.767356,-22.46477 -25.955371,-15.38286 -47.426514,-36.22852 -64.412029,-62.53903 20.287461,-30.81567 45.491684,-53.99598 75.6126,-69.53551 -8.158609,13.56693 -12.351871,28.18498 -12.576958,43.848 -0.344205,23.95195 7.948879,44.31935 24.874233,61.11795 16.92532,16.79859 37.4699,25.0341 61.62676,24.7141 24.15891,-0.32003 44.94195,-9.10776 62.36069,-26.35653 17.41875,-17.24878 26.29712,-37.84841 26.64132,-61.80036 0.22509,-15.66302 -3.5502,-30.17756 -11.32262,-43.53141 29.6843,14.74731 54.2331,37.27059 73.64178,67.55837 -17.74558,26.77059 -39.82209,48.19311 -66.23092,64.26964 z"
         id="path5"
         style="" />
    </g>
  </g>
</svg>
